M48
;GenerationSoftware,Autodesk,EAGLE,9.4.2*%
;CreationDate,2019-07-24T08:01:50Z*%
FMAT,2
ICI,OFF
METRIC,TZ,000.000
T4C0.850
T3C0.855
T2C1.016
T1C1.500
%
G90
M71
T1
X12065Y4826
X12065Y12446
X42545Y12446
X42545Y4826
T2
X38100Y22606
X26924Y20066
X9906Y22860
X32766Y20066
X38100Y20066
X4826Y22860
X7366Y22860
X44450Y22606
X44450Y20066
X32766Y22860
X26924Y22606
X12446Y22860
X14986Y22860
X2794Y17018
X2794Y14478
X4318Y2540
X6858Y2540
X17780Y22860
X20320Y22860
T3
X19812Y13208
X26035Y5715
X18796Y6477
X39116Y5588
T4
X27432Y9906
X43815Y15875
X18796Y3683
X9398Y9144
X23622Y21336
X27559Y14859
X39370Y11176
X52578Y16510
X50038Y8890
X52578Y3810
X57404Y16510
X54864Y8890
X57404Y3810
X5080Y10414
X5080Y7874
M30