G04 EAGLE Gerber RS-274X export*
G75*
%MOMM*%
%FSLAX34Y34*%
%LPD*%
%INSolder stop mask CMP*%
%IPPOS*%
%AMOC8*
5,1,8,0,0,1.08239X$1,22.5*%
G01*
%ADD10P,1.869504X8X22.500000*%
%ADD11C,1.727200*%
%ADD12R,3.003200X3.003200*%
%ADD13C,1.879600*%
%ADD14P,1.951982X8X112.500000*%
%ADD15C,1.803400*%
%ADD16C,1.803200*%


D10*
X444500Y226060D03*
X444500Y200660D03*
X327660Y228600D03*
X269240Y226060D03*
X381000Y226060D03*
X269240Y200660D03*
X327660Y200660D03*
X381000Y200660D03*
D11*
X48260Y220980D02*
X48260Y236220D01*
X73660Y236220D02*
X73660Y220980D01*
X99060Y220980D02*
X99060Y236220D01*
X124460Y236220D02*
X124460Y220980D01*
X149860Y220980D02*
X149860Y236220D01*
X35560Y170180D02*
X20320Y170180D01*
X20320Y144780D02*
X35560Y144780D01*
X43180Y33020D02*
X43180Y17780D01*
X68580Y17780D02*
X68580Y33020D01*
X177800Y220980D02*
X177800Y236220D01*
X203200Y236220D02*
X203200Y220980D01*
D12*
X120650Y48260D03*
X120650Y124460D03*
X425450Y124460D03*
X425450Y48260D03*
D13*
X525780Y165100D03*
X500380Y88900D03*
X525780Y38100D03*
X574040Y165100D03*
X548640Y88900D03*
X574040Y38100D03*
D14*
X50800Y104140D03*
D15*
X50800Y78740D03*
D16*
X438150Y158750D03*
X187960Y36830D03*
X260350Y57150D03*
X93980Y91440D03*
X187960Y64770D03*
X198120Y132080D03*
X391160Y55880D03*
X236220Y213360D03*
X275590Y148590D03*
X393700Y111760D03*
X274320Y99060D03*
M02*
