G04 EAGLE Gerber RS-274X export*
G75*
%MOMM*%
%FSLAX34Y34*%
%LPD*%
%INSilk screen SOL*%
%IPPOS*%
%AMOC8*
5,1,8,0,0,1.08239X$1,22.5*%
G01*
%ADD10C,0.000000*%
%ADD11C,0.152400*%
%ADD12C,0.101600*%
%ADD13C,0.254000*%


D10*
X-12700Y-17780D02*
X604320Y-17780D01*
X604320Y274830D01*
X-12700Y274830D01*
X-12700Y-17780D01*
D11*
X13462Y267462D02*
X13462Y283718D01*
X17978Y283718D01*
X18111Y283716D01*
X18243Y283710D01*
X18375Y283700D01*
X18507Y283687D01*
X18639Y283669D01*
X18769Y283648D01*
X18900Y283623D01*
X19029Y283594D01*
X19157Y283561D01*
X19285Y283525D01*
X19411Y283485D01*
X19536Y283441D01*
X19660Y283393D01*
X19782Y283342D01*
X19903Y283287D01*
X20022Y283229D01*
X20140Y283167D01*
X20255Y283102D01*
X20369Y283033D01*
X20480Y282962D01*
X20589Y282886D01*
X20696Y282808D01*
X20801Y282727D01*
X20903Y282642D01*
X21003Y282555D01*
X21100Y282465D01*
X21195Y282372D01*
X21286Y282276D01*
X21375Y282178D01*
X21461Y282077D01*
X21544Y281973D01*
X21624Y281867D01*
X21700Y281759D01*
X21774Y281649D01*
X21844Y281536D01*
X21911Y281422D01*
X21974Y281305D01*
X22034Y281187D01*
X22091Y281067D01*
X22144Y280945D01*
X22193Y280822D01*
X22239Y280698D01*
X22281Y280572D01*
X22319Y280445D01*
X22354Y280317D01*
X22385Y280188D01*
X22412Y280059D01*
X22435Y279928D01*
X22455Y279797D01*
X22470Y279665D01*
X22482Y279533D01*
X22490Y279401D01*
X22494Y279268D01*
X22494Y279136D01*
X22490Y279003D01*
X22482Y278871D01*
X22470Y278739D01*
X22455Y278607D01*
X22435Y278476D01*
X22412Y278345D01*
X22385Y278216D01*
X22354Y278087D01*
X22319Y277959D01*
X22281Y277832D01*
X22239Y277706D01*
X22193Y277582D01*
X22144Y277459D01*
X22091Y277337D01*
X22034Y277217D01*
X21974Y277099D01*
X21911Y276982D01*
X21844Y276868D01*
X21774Y276755D01*
X21700Y276645D01*
X21624Y276537D01*
X21544Y276431D01*
X21461Y276327D01*
X21375Y276226D01*
X21286Y276128D01*
X21195Y276032D01*
X21100Y275939D01*
X21003Y275849D01*
X20903Y275762D01*
X20801Y275677D01*
X20696Y275596D01*
X20589Y275518D01*
X20480Y275442D01*
X20369Y275371D01*
X20255Y275302D01*
X20140Y275237D01*
X20022Y275175D01*
X19903Y275117D01*
X19782Y275062D01*
X19660Y275011D01*
X19536Y274963D01*
X19411Y274919D01*
X19285Y274879D01*
X19157Y274843D01*
X19029Y274810D01*
X18900Y274781D01*
X18769Y274756D01*
X18639Y274735D01*
X18507Y274717D01*
X18375Y274704D01*
X18243Y274694D01*
X18111Y274688D01*
X17978Y274686D01*
X17978Y274687D02*
X13462Y274687D01*
X28222Y274687D02*
X28222Y271074D01*
X28223Y274687D02*
X28225Y274806D01*
X28231Y274926D01*
X28241Y275045D01*
X28255Y275163D01*
X28272Y275282D01*
X28294Y275399D01*
X28319Y275516D01*
X28349Y275631D01*
X28382Y275746D01*
X28419Y275860D01*
X28459Y275972D01*
X28504Y276083D01*
X28552Y276192D01*
X28603Y276300D01*
X28658Y276406D01*
X28717Y276510D01*
X28779Y276612D01*
X28844Y276712D01*
X28913Y276810D01*
X28985Y276906D01*
X29060Y276999D01*
X29137Y277089D01*
X29218Y277177D01*
X29302Y277262D01*
X29389Y277344D01*
X29478Y277424D01*
X29570Y277500D01*
X29664Y277574D01*
X29761Y277644D01*
X29859Y277711D01*
X29960Y277775D01*
X30064Y277835D01*
X30169Y277892D01*
X30276Y277945D01*
X30384Y277995D01*
X30494Y278041D01*
X30606Y278083D01*
X30719Y278122D01*
X30833Y278157D01*
X30948Y278188D01*
X31065Y278216D01*
X31182Y278239D01*
X31299Y278259D01*
X31418Y278275D01*
X31537Y278287D01*
X31656Y278295D01*
X31775Y278299D01*
X31895Y278299D01*
X32014Y278295D01*
X32133Y278287D01*
X32252Y278275D01*
X32371Y278259D01*
X32488Y278239D01*
X32605Y278216D01*
X32722Y278188D01*
X32837Y278157D01*
X32951Y278122D01*
X33064Y278083D01*
X33176Y278041D01*
X33286Y277995D01*
X33394Y277945D01*
X33501Y277892D01*
X33606Y277835D01*
X33710Y277775D01*
X33811Y277711D01*
X33909Y277644D01*
X34006Y277574D01*
X34100Y277500D01*
X34192Y277424D01*
X34281Y277344D01*
X34368Y277262D01*
X34452Y277177D01*
X34533Y277089D01*
X34610Y276999D01*
X34685Y276906D01*
X34757Y276810D01*
X34826Y276712D01*
X34891Y276612D01*
X34953Y276510D01*
X35012Y276406D01*
X35067Y276300D01*
X35118Y276192D01*
X35166Y276083D01*
X35211Y275972D01*
X35251Y275860D01*
X35288Y275746D01*
X35321Y275631D01*
X35351Y275516D01*
X35376Y275399D01*
X35398Y275282D01*
X35415Y275163D01*
X35429Y275045D01*
X35439Y274926D01*
X35445Y274806D01*
X35447Y274687D01*
X35447Y271074D01*
X35445Y270955D01*
X35439Y270835D01*
X35429Y270716D01*
X35415Y270598D01*
X35398Y270479D01*
X35376Y270362D01*
X35351Y270245D01*
X35321Y270130D01*
X35288Y270015D01*
X35251Y269901D01*
X35211Y269789D01*
X35166Y269678D01*
X35118Y269569D01*
X35067Y269461D01*
X35012Y269355D01*
X34953Y269251D01*
X34891Y269149D01*
X34826Y269049D01*
X34757Y268951D01*
X34685Y268855D01*
X34610Y268762D01*
X34533Y268672D01*
X34452Y268584D01*
X34368Y268499D01*
X34281Y268417D01*
X34192Y268337D01*
X34100Y268261D01*
X34006Y268187D01*
X33909Y268117D01*
X33811Y268050D01*
X33710Y267986D01*
X33606Y267926D01*
X33501Y267869D01*
X33394Y267816D01*
X33286Y267766D01*
X33176Y267720D01*
X33064Y267678D01*
X32951Y267639D01*
X32837Y267604D01*
X32722Y267573D01*
X32605Y267545D01*
X32488Y267522D01*
X32371Y267502D01*
X32252Y267486D01*
X32133Y267474D01*
X32014Y267466D01*
X31895Y267462D01*
X31775Y267462D01*
X31656Y267466D01*
X31537Y267474D01*
X31418Y267486D01*
X31299Y267502D01*
X31182Y267522D01*
X31065Y267545D01*
X30948Y267573D01*
X30833Y267604D01*
X30719Y267639D01*
X30606Y267678D01*
X30494Y267720D01*
X30384Y267766D01*
X30276Y267816D01*
X30169Y267869D01*
X30064Y267926D01*
X29960Y267986D01*
X29859Y268050D01*
X29761Y268117D01*
X29664Y268187D01*
X29570Y268261D01*
X29478Y268337D01*
X29389Y268417D01*
X29302Y268499D01*
X29218Y268584D01*
X29137Y268672D01*
X29060Y268762D01*
X28985Y268855D01*
X28913Y268951D01*
X28844Y269049D01*
X28779Y269149D01*
X28717Y269251D01*
X28658Y269355D01*
X28603Y269461D01*
X28552Y269569D01*
X28504Y269678D01*
X28459Y269789D01*
X28419Y269901D01*
X28382Y270015D01*
X28349Y270130D01*
X28319Y270245D01*
X28294Y270362D01*
X28272Y270479D01*
X28255Y270598D01*
X28241Y270716D01*
X28231Y270835D01*
X28225Y270955D01*
X28223Y271074D01*
X41526Y278299D02*
X44236Y267462D01*
X46945Y274687D01*
X49654Y267462D01*
X52364Y278299D01*
X61152Y267462D02*
X65668Y267462D01*
X61152Y267462D02*
X61051Y267464D01*
X60950Y267470D01*
X60849Y267479D01*
X60748Y267492D01*
X60648Y267509D01*
X60549Y267530D01*
X60451Y267554D01*
X60354Y267582D01*
X60257Y267614D01*
X60162Y267649D01*
X60069Y267688D01*
X59977Y267730D01*
X59886Y267776D01*
X59798Y267825D01*
X59711Y267877D01*
X59626Y267933D01*
X59543Y267991D01*
X59463Y268053D01*
X59385Y268118D01*
X59309Y268185D01*
X59236Y268255D01*
X59166Y268328D01*
X59099Y268404D01*
X59034Y268482D01*
X58972Y268562D01*
X58914Y268645D01*
X58858Y268730D01*
X58806Y268817D01*
X58757Y268905D01*
X58711Y268996D01*
X58669Y269088D01*
X58630Y269181D01*
X58595Y269276D01*
X58563Y269373D01*
X58535Y269470D01*
X58511Y269568D01*
X58490Y269667D01*
X58473Y269767D01*
X58460Y269868D01*
X58451Y269969D01*
X58445Y270070D01*
X58443Y270171D01*
X58443Y274687D01*
X58445Y274806D01*
X58451Y274926D01*
X58461Y275045D01*
X58475Y275163D01*
X58492Y275282D01*
X58514Y275399D01*
X58539Y275516D01*
X58569Y275631D01*
X58602Y275746D01*
X58639Y275860D01*
X58679Y275972D01*
X58724Y276083D01*
X58772Y276192D01*
X58823Y276300D01*
X58878Y276406D01*
X58937Y276510D01*
X58999Y276612D01*
X59064Y276712D01*
X59133Y276810D01*
X59205Y276906D01*
X59280Y276999D01*
X59357Y277089D01*
X59438Y277177D01*
X59522Y277262D01*
X59609Y277344D01*
X59698Y277424D01*
X59790Y277500D01*
X59884Y277574D01*
X59981Y277644D01*
X60079Y277711D01*
X60180Y277775D01*
X60284Y277835D01*
X60389Y277892D01*
X60496Y277945D01*
X60604Y277995D01*
X60714Y278041D01*
X60826Y278083D01*
X60939Y278122D01*
X61053Y278157D01*
X61168Y278188D01*
X61285Y278216D01*
X61402Y278239D01*
X61519Y278259D01*
X61638Y278275D01*
X61757Y278287D01*
X61876Y278295D01*
X61995Y278299D01*
X62115Y278299D01*
X62234Y278295D01*
X62353Y278287D01*
X62472Y278275D01*
X62591Y278259D01*
X62708Y278239D01*
X62825Y278216D01*
X62942Y278188D01*
X63057Y278157D01*
X63171Y278122D01*
X63284Y278083D01*
X63396Y278041D01*
X63506Y277995D01*
X63614Y277945D01*
X63721Y277892D01*
X63826Y277835D01*
X63930Y277775D01*
X64031Y277711D01*
X64129Y277644D01*
X64226Y277574D01*
X64320Y277500D01*
X64412Y277424D01*
X64501Y277344D01*
X64588Y277262D01*
X64672Y277177D01*
X64753Y277089D01*
X64830Y276999D01*
X64905Y276906D01*
X64977Y276810D01*
X65046Y276712D01*
X65111Y276612D01*
X65173Y276510D01*
X65232Y276406D01*
X65287Y276300D01*
X65338Y276192D01*
X65386Y276083D01*
X65431Y275972D01*
X65471Y275860D01*
X65508Y275746D01*
X65541Y275631D01*
X65571Y275516D01*
X65596Y275399D01*
X65618Y275282D01*
X65635Y275163D01*
X65649Y275045D01*
X65659Y274926D01*
X65665Y274806D01*
X65667Y274687D01*
X65668Y274687D02*
X65668Y272881D01*
X58443Y272881D01*
X72596Y267462D02*
X72596Y278299D01*
X78014Y278299D01*
X78014Y276493D01*
X92139Y276493D02*
X96655Y276493D01*
X96655Y276494D02*
X96788Y276492D01*
X96920Y276486D01*
X97052Y276476D01*
X97184Y276463D01*
X97316Y276445D01*
X97446Y276424D01*
X97577Y276399D01*
X97706Y276370D01*
X97834Y276337D01*
X97962Y276301D01*
X98088Y276261D01*
X98213Y276217D01*
X98337Y276169D01*
X98459Y276118D01*
X98580Y276063D01*
X98699Y276005D01*
X98817Y275943D01*
X98932Y275878D01*
X99046Y275809D01*
X99157Y275738D01*
X99266Y275662D01*
X99373Y275584D01*
X99478Y275503D01*
X99580Y275418D01*
X99680Y275331D01*
X99777Y275241D01*
X99872Y275148D01*
X99963Y275052D01*
X100052Y274954D01*
X100138Y274853D01*
X100221Y274749D01*
X100301Y274643D01*
X100377Y274535D01*
X100451Y274425D01*
X100521Y274312D01*
X100588Y274198D01*
X100651Y274081D01*
X100711Y273963D01*
X100768Y273843D01*
X100821Y273721D01*
X100870Y273598D01*
X100916Y273474D01*
X100958Y273348D01*
X100996Y273221D01*
X101031Y273093D01*
X101062Y272964D01*
X101089Y272835D01*
X101112Y272704D01*
X101132Y272573D01*
X101147Y272441D01*
X101159Y272309D01*
X101167Y272177D01*
X101171Y272044D01*
X101171Y271912D01*
X101167Y271779D01*
X101159Y271647D01*
X101147Y271515D01*
X101132Y271383D01*
X101112Y271252D01*
X101089Y271121D01*
X101062Y270992D01*
X101031Y270863D01*
X100996Y270735D01*
X100958Y270608D01*
X100916Y270482D01*
X100870Y270358D01*
X100821Y270235D01*
X100768Y270113D01*
X100711Y269993D01*
X100651Y269875D01*
X100588Y269758D01*
X100521Y269644D01*
X100451Y269531D01*
X100377Y269421D01*
X100301Y269313D01*
X100221Y269207D01*
X100138Y269103D01*
X100052Y269002D01*
X99963Y268904D01*
X99872Y268808D01*
X99777Y268715D01*
X99680Y268625D01*
X99580Y268538D01*
X99478Y268453D01*
X99373Y268372D01*
X99266Y268294D01*
X99157Y268218D01*
X99046Y268147D01*
X98932Y268078D01*
X98817Y268013D01*
X98699Y267951D01*
X98580Y267893D01*
X98459Y267838D01*
X98337Y267787D01*
X98213Y267739D01*
X98088Y267695D01*
X97962Y267655D01*
X97834Y267619D01*
X97706Y267586D01*
X97577Y267557D01*
X97446Y267532D01*
X97316Y267511D01*
X97184Y267493D01*
X97052Y267480D01*
X96920Y267470D01*
X96788Y267464D01*
X96655Y267462D01*
X92139Y267462D01*
X92139Y283718D01*
X96655Y283718D01*
X96774Y283716D01*
X96894Y283710D01*
X97013Y283700D01*
X97131Y283686D01*
X97250Y283669D01*
X97367Y283647D01*
X97484Y283622D01*
X97599Y283592D01*
X97714Y283559D01*
X97828Y283522D01*
X97940Y283482D01*
X98051Y283437D01*
X98160Y283389D01*
X98268Y283338D01*
X98374Y283283D01*
X98478Y283224D01*
X98580Y283162D01*
X98680Y283097D01*
X98778Y283028D01*
X98874Y282956D01*
X98967Y282881D01*
X99057Y282804D01*
X99145Y282723D01*
X99230Y282639D01*
X99312Y282552D01*
X99392Y282463D01*
X99468Y282371D01*
X99542Y282277D01*
X99612Y282180D01*
X99679Y282082D01*
X99743Y281981D01*
X99803Y281877D01*
X99860Y281772D01*
X99913Y281665D01*
X99963Y281557D01*
X100009Y281447D01*
X100051Y281335D01*
X100090Y281222D01*
X100125Y281108D01*
X100156Y280993D01*
X100184Y280876D01*
X100207Y280759D01*
X100227Y280642D01*
X100243Y280523D01*
X100255Y280404D01*
X100263Y280285D01*
X100267Y280166D01*
X100267Y280046D01*
X100263Y279927D01*
X100255Y279808D01*
X100243Y279689D01*
X100227Y279570D01*
X100207Y279453D01*
X100184Y279336D01*
X100156Y279219D01*
X100125Y279104D01*
X100090Y278990D01*
X100051Y278877D01*
X100009Y278765D01*
X99963Y278655D01*
X99913Y278547D01*
X99860Y278440D01*
X99803Y278335D01*
X99743Y278231D01*
X99679Y278130D01*
X99612Y278032D01*
X99542Y277935D01*
X99468Y277841D01*
X99392Y277749D01*
X99312Y277660D01*
X99230Y277573D01*
X99145Y277489D01*
X99057Y277408D01*
X98967Y277331D01*
X98874Y277256D01*
X98778Y277184D01*
X98680Y277115D01*
X98580Y277050D01*
X98478Y276988D01*
X98374Y276929D01*
X98268Y276874D01*
X98160Y276823D01*
X98051Y276775D01*
X97940Y276730D01*
X97828Y276690D01*
X97714Y276653D01*
X97599Y276620D01*
X97484Y276590D01*
X97367Y276565D01*
X97250Y276543D01*
X97131Y276526D01*
X97013Y276512D01*
X96894Y276502D01*
X96774Y276496D01*
X96655Y276494D01*
X106899Y274687D02*
X106899Y271074D01*
X106900Y274687D02*
X106902Y274806D01*
X106908Y274926D01*
X106918Y275045D01*
X106932Y275163D01*
X106949Y275282D01*
X106971Y275399D01*
X106996Y275516D01*
X107026Y275631D01*
X107059Y275746D01*
X107096Y275860D01*
X107136Y275972D01*
X107181Y276083D01*
X107229Y276192D01*
X107280Y276300D01*
X107335Y276406D01*
X107394Y276510D01*
X107456Y276612D01*
X107521Y276712D01*
X107590Y276810D01*
X107662Y276906D01*
X107737Y276999D01*
X107814Y277089D01*
X107895Y277177D01*
X107979Y277262D01*
X108066Y277344D01*
X108155Y277424D01*
X108247Y277500D01*
X108341Y277574D01*
X108438Y277644D01*
X108536Y277711D01*
X108637Y277775D01*
X108741Y277835D01*
X108846Y277892D01*
X108953Y277945D01*
X109061Y277995D01*
X109171Y278041D01*
X109283Y278083D01*
X109396Y278122D01*
X109510Y278157D01*
X109625Y278188D01*
X109742Y278216D01*
X109859Y278239D01*
X109976Y278259D01*
X110095Y278275D01*
X110214Y278287D01*
X110333Y278295D01*
X110452Y278299D01*
X110572Y278299D01*
X110691Y278295D01*
X110810Y278287D01*
X110929Y278275D01*
X111048Y278259D01*
X111165Y278239D01*
X111282Y278216D01*
X111399Y278188D01*
X111514Y278157D01*
X111628Y278122D01*
X111741Y278083D01*
X111853Y278041D01*
X111963Y277995D01*
X112071Y277945D01*
X112178Y277892D01*
X112283Y277835D01*
X112387Y277775D01*
X112488Y277711D01*
X112586Y277644D01*
X112683Y277574D01*
X112777Y277500D01*
X112869Y277424D01*
X112958Y277344D01*
X113045Y277262D01*
X113129Y277177D01*
X113210Y277089D01*
X113287Y276999D01*
X113362Y276906D01*
X113434Y276810D01*
X113503Y276712D01*
X113568Y276612D01*
X113630Y276510D01*
X113689Y276406D01*
X113744Y276300D01*
X113795Y276192D01*
X113843Y276083D01*
X113888Y275972D01*
X113928Y275860D01*
X113965Y275746D01*
X113998Y275631D01*
X114028Y275516D01*
X114053Y275399D01*
X114075Y275282D01*
X114092Y275163D01*
X114106Y275045D01*
X114116Y274926D01*
X114122Y274806D01*
X114124Y274687D01*
X114124Y271074D01*
X114122Y270955D01*
X114116Y270835D01*
X114106Y270716D01*
X114092Y270598D01*
X114075Y270479D01*
X114053Y270362D01*
X114028Y270245D01*
X113998Y270130D01*
X113965Y270015D01*
X113928Y269901D01*
X113888Y269789D01*
X113843Y269678D01*
X113795Y269569D01*
X113744Y269461D01*
X113689Y269355D01*
X113630Y269251D01*
X113568Y269149D01*
X113503Y269049D01*
X113434Y268951D01*
X113362Y268855D01*
X113287Y268762D01*
X113210Y268672D01*
X113129Y268584D01*
X113045Y268499D01*
X112958Y268417D01*
X112869Y268337D01*
X112777Y268261D01*
X112683Y268187D01*
X112586Y268117D01*
X112488Y268050D01*
X112387Y267986D01*
X112283Y267926D01*
X112178Y267869D01*
X112071Y267816D01*
X111963Y267766D01*
X111853Y267720D01*
X111741Y267678D01*
X111628Y267639D01*
X111514Y267604D01*
X111399Y267573D01*
X111282Y267545D01*
X111165Y267522D01*
X111048Y267502D01*
X110929Y267486D01*
X110810Y267474D01*
X110691Y267466D01*
X110572Y267462D01*
X110452Y267462D01*
X110333Y267466D01*
X110214Y267474D01*
X110095Y267486D01*
X109976Y267502D01*
X109859Y267522D01*
X109742Y267545D01*
X109625Y267573D01*
X109510Y267604D01*
X109396Y267639D01*
X109283Y267678D01*
X109171Y267720D01*
X109061Y267766D01*
X108953Y267816D01*
X108846Y267869D01*
X108741Y267926D01*
X108637Y267986D01*
X108536Y268050D01*
X108438Y268117D01*
X108341Y268187D01*
X108247Y268261D01*
X108155Y268337D01*
X108066Y268417D01*
X107979Y268499D01*
X107895Y268584D01*
X107814Y268672D01*
X107737Y268762D01*
X107662Y268855D01*
X107590Y268951D01*
X107521Y269049D01*
X107456Y269149D01*
X107394Y269251D01*
X107335Y269355D01*
X107280Y269461D01*
X107229Y269569D01*
X107181Y269678D01*
X107136Y269789D01*
X107096Y269901D01*
X107059Y270015D01*
X107026Y270130D01*
X106996Y270245D01*
X106971Y270362D01*
X106949Y270479D01*
X106932Y270598D01*
X106918Y270716D01*
X106908Y270835D01*
X106902Y270955D01*
X106900Y271074D01*
X123534Y273784D02*
X127598Y273784D01*
X123534Y273784D02*
X123422Y273782D01*
X123311Y273776D01*
X123200Y273766D01*
X123089Y273753D01*
X122979Y273735D01*
X122870Y273713D01*
X122761Y273688D01*
X122653Y273659D01*
X122547Y273626D01*
X122441Y273589D01*
X122337Y273549D01*
X122235Y273505D01*
X122134Y273457D01*
X122035Y273406D01*
X121937Y273351D01*
X121842Y273293D01*
X121749Y273232D01*
X121658Y273167D01*
X121569Y273099D01*
X121483Y273028D01*
X121400Y272955D01*
X121319Y272878D01*
X121240Y272798D01*
X121165Y272716D01*
X121093Y272631D01*
X121023Y272544D01*
X120957Y272454D01*
X120894Y272362D01*
X120834Y272267D01*
X120778Y272171D01*
X120725Y272073D01*
X120676Y271973D01*
X120630Y271871D01*
X120588Y271768D01*
X120549Y271663D01*
X120514Y271557D01*
X120483Y271450D01*
X120456Y271342D01*
X120432Y271233D01*
X120413Y271123D01*
X120397Y271013D01*
X120385Y270902D01*
X120377Y270790D01*
X120373Y270679D01*
X120373Y270567D01*
X120377Y270456D01*
X120385Y270344D01*
X120397Y270233D01*
X120413Y270123D01*
X120432Y270013D01*
X120456Y269904D01*
X120483Y269796D01*
X120514Y269689D01*
X120549Y269583D01*
X120588Y269478D01*
X120630Y269375D01*
X120676Y269273D01*
X120725Y269173D01*
X120778Y269075D01*
X120834Y268979D01*
X120894Y268884D01*
X120957Y268792D01*
X121023Y268702D01*
X121093Y268615D01*
X121165Y268530D01*
X121240Y268448D01*
X121319Y268368D01*
X121400Y268291D01*
X121483Y268218D01*
X121569Y268147D01*
X121658Y268079D01*
X121749Y268014D01*
X121842Y267953D01*
X121937Y267895D01*
X122035Y267840D01*
X122134Y267789D01*
X122235Y267741D01*
X122337Y267697D01*
X122441Y267657D01*
X122547Y267620D01*
X122653Y267587D01*
X122761Y267558D01*
X122870Y267533D01*
X122979Y267511D01*
X123089Y267493D01*
X123200Y267480D01*
X123311Y267470D01*
X123422Y267464D01*
X123534Y267462D01*
X127598Y267462D01*
X127598Y275590D01*
X127596Y275691D01*
X127590Y275792D01*
X127581Y275893D01*
X127568Y275994D01*
X127551Y276094D01*
X127530Y276193D01*
X127506Y276291D01*
X127478Y276388D01*
X127446Y276485D01*
X127411Y276580D01*
X127372Y276673D01*
X127330Y276765D01*
X127284Y276856D01*
X127235Y276945D01*
X127183Y277031D01*
X127127Y277116D01*
X127069Y277199D01*
X127007Y277279D01*
X126942Y277357D01*
X126875Y277433D01*
X126805Y277506D01*
X126732Y277576D01*
X126656Y277643D01*
X126578Y277708D01*
X126498Y277770D01*
X126415Y277828D01*
X126330Y277884D01*
X126244Y277936D01*
X126155Y277985D01*
X126064Y278031D01*
X125972Y278073D01*
X125879Y278112D01*
X125784Y278147D01*
X125687Y278179D01*
X125590Y278207D01*
X125492Y278231D01*
X125393Y278252D01*
X125293Y278269D01*
X125192Y278282D01*
X125091Y278291D01*
X124990Y278297D01*
X124889Y278299D01*
X121276Y278299D01*
X135120Y278299D02*
X135120Y267462D01*
X135120Y278299D02*
X140539Y278299D01*
X140539Y276493D01*
X152608Y283718D02*
X152608Y267462D01*
X148092Y267462D01*
X147991Y267464D01*
X147890Y267470D01*
X147789Y267479D01*
X147688Y267492D01*
X147588Y267509D01*
X147489Y267530D01*
X147391Y267554D01*
X147294Y267582D01*
X147197Y267614D01*
X147102Y267649D01*
X147009Y267688D01*
X146917Y267730D01*
X146826Y267776D01*
X146738Y267825D01*
X146651Y267877D01*
X146566Y267933D01*
X146483Y267991D01*
X146403Y268053D01*
X146325Y268118D01*
X146249Y268185D01*
X146176Y268255D01*
X146106Y268328D01*
X146039Y268404D01*
X145974Y268482D01*
X145912Y268562D01*
X145854Y268645D01*
X145798Y268730D01*
X145746Y268817D01*
X145697Y268905D01*
X145651Y268996D01*
X145609Y269088D01*
X145570Y269181D01*
X145535Y269276D01*
X145503Y269373D01*
X145475Y269470D01*
X145451Y269568D01*
X145430Y269667D01*
X145413Y269767D01*
X145400Y269868D01*
X145391Y269969D01*
X145385Y270070D01*
X145383Y270171D01*
X145383Y275590D01*
X145385Y275691D01*
X145391Y275792D01*
X145400Y275893D01*
X145413Y275994D01*
X145430Y276094D01*
X145451Y276193D01*
X145475Y276291D01*
X145503Y276388D01*
X145535Y276485D01*
X145570Y276580D01*
X145609Y276673D01*
X145651Y276765D01*
X145697Y276856D01*
X145746Y276945D01*
X145798Y277031D01*
X145854Y277116D01*
X145912Y277199D01*
X145974Y277279D01*
X146039Y277357D01*
X146106Y277433D01*
X146176Y277506D01*
X146249Y277576D01*
X146325Y277643D01*
X146403Y277708D01*
X146483Y277770D01*
X146566Y277828D01*
X146651Y277884D01*
X146738Y277936D01*
X146826Y277985D01*
X146917Y278031D01*
X147009Y278073D01*
X147102Y278112D01*
X147197Y278147D01*
X147294Y278179D01*
X147391Y278207D01*
X147489Y278231D01*
X147588Y278252D01*
X147688Y278269D01*
X147789Y278282D01*
X147890Y278291D01*
X147991Y278297D01*
X148092Y278299D01*
X152608Y278299D01*
D12*
X132588Y34356D02*
X132588Y31759D01*
X132590Y31660D01*
X132596Y31560D01*
X132605Y31461D01*
X132618Y31363D01*
X132635Y31265D01*
X132656Y31167D01*
X132681Y31071D01*
X132709Y30976D01*
X132741Y30882D01*
X132776Y30789D01*
X132815Y30697D01*
X132858Y30607D01*
X132903Y30519D01*
X132953Y30432D01*
X133005Y30348D01*
X133061Y30265D01*
X133119Y30185D01*
X133181Y30107D01*
X133246Y30032D01*
X133314Y29959D01*
X133384Y29889D01*
X133457Y29821D01*
X133532Y29756D01*
X133610Y29694D01*
X133690Y29636D01*
X133773Y29580D01*
X133857Y29528D01*
X133944Y29478D01*
X134032Y29433D01*
X134122Y29390D01*
X134214Y29351D01*
X134307Y29316D01*
X134401Y29284D01*
X134496Y29256D01*
X134592Y29231D01*
X134690Y29210D01*
X134788Y29193D01*
X134886Y29180D01*
X134985Y29171D01*
X135085Y29165D01*
X135184Y29163D01*
X141676Y29163D01*
X141775Y29165D01*
X141875Y29171D01*
X141974Y29180D01*
X142072Y29193D01*
X142170Y29210D01*
X142268Y29231D01*
X142364Y29256D01*
X142459Y29284D01*
X142553Y29316D01*
X142646Y29351D01*
X142738Y29390D01*
X142828Y29433D01*
X142916Y29478D01*
X143003Y29528D01*
X143087Y29580D01*
X143170Y29636D01*
X143250Y29694D01*
X143328Y29756D01*
X143403Y29821D01*
X143476Y29889D01*
X143546Y29959D01*
X143614Y30032D01*
X143679Y30107D01*
X143741Y30185D01*
X143799Y30265D01*
X143855Y30348D01*
X143907Y30432D01*
X143957Y30519D01*
X144002Y30607D01*
X144045Y30697D01*
X144084Y30789D01*
X144119Y30881D01*
X144151Y30976D01*
X144179Y31071D01*
X144204Y31167D01*
X144225Y31265D01*
X144242Y31363D01*
X144255Y31461D01*
X144264Y31560D01*
X144270Y31660D01*
X144272Y31759D01*
X144272Y34356D01*
X141676Y38721D02*
X144272Y41966D01*
X132588Y41966D01*
X132588Y38721D02*
X132588Y45212D01*
X229108Y23481D02*
X229108Y20884D01*
X229110Y20785D01*
X229116Y20685D01*
X229125Y20586D01*
X229138Y20488D01*
X229155Y20390D01*
X229176Y20292D01*
X229201Y20196D01*
X229229Y20101D01*
X229261Y20007D01*
X229296Y19914D01*
X229335Y19822D01*
X229378Y19732D01*
X229423Y19644D01*
X229473Y19557D01*
X229525Y19473D01*
X229581Y19390D01*
X229639Y19310D01*
X229701Y19232D01*
X229766Y19157D01*
X229834Y19084D01*
X229904Y19014D01*
X229977Y18946D01*
X230052Y18881D01*
X230130Y18819D01*
X230210Y18761D01*
X230293Y18705D01*
X230377Y18653D01*
X230464Y18603D01*
X230552Y18558D01*
X230642Y18515D01*
X230734Y18476D01*
X230827Y18441D01*
X230921Y18409D01*
X231016Y18381D01*
X231112Y18356D01*
X231210Y18335D01*
X231308Y18318D01*
X231406Y18305D01*
X231505Y18296D01*
X231605Y18290D01*
X231704Y18288D01*
X238196Y18288D01*
X238295Y18290D01*
X238395Y18296D01*
X238494Y18305D01*
X238592Y18318D01*
X238690Y18335D01*
X238788Y18356D01*
X238884Y18381D01*
X238979Y18409D01*
X239073Y18441D01*
X239166Y18476D01*
X239258Y18515D01*
X239348Y18558D01*
X239436Y18603D01*
X239523Y18653D01*
X239607Y18705D01*
X239690Y18761D01*
X239770Y18819D01*
X239848Y18881D01*
X239923Y18946D01*
X239996Y19014D01*
X240066Y19084D01*
X240134Y19157D01*
X240199Y19232D01*
X240261Y19310D01*
X240319Y19390D01*
X240375Y19473D01*
X240427Y19557D01*
X240477Y19644D01*
X240522Y19732D01*
X240565Y19822D01*
X240604Y19914D01*
X240639Y20006D01*
X240671Y20101D01*
X240699Y20196D01*
X240724Y20292D01*
X240745Y20390D01*
X240762Y20488D01*
X240775Y20586D01*
X240784Y20685D01*
X240790Y20785D01*
X240792Y20884D01*
X240792Y23481D01*
X240792Y31416D02*
X240790Y31523D01*
X240784Y31629D01*
X240774Y31735D01*
X240761Y31841D01*
X240743Y31947D01*
X240722Y32051D01*
X240697Y32155D01*
X240668Y32258D01*
X240636Y32359D01*
X240599Y32459D01*
X240559Y32558D01*
X240516Y32656D01*
X240469Y32752D01*
X240418Y32846D01*
X240364Y32938D01*
X240307Y33028D01*
X240247Y33116D01*
X240183Y33201D01*
X240116Y33284D01*
X240046Y33365D01*
X239974Y33443D01*
X239898Y33519D01*
X239820Y33591D01*
X239739Y33661D01*
X239656Y33728D01*
X239571Y33792D01*
X239483Y33852D01*
X239393Y33909D01*
X239301Y33963D01*
X239207Y34014D01*
X239111Y34061D01*
X239013Y34104D01*
X238914Y34144D01*
X238814Y34181D01*
X238713Y34213D01*
X238610Y34242D01*
X238506Y34267D01*
X238402Y34288D01*
X238296Y34306D01*
X238190Y34319D01*
X238084Y34329D01*
X237978Y34335D01*
X237871Y34337D01*
X240792Y31416D02*
X240790Y31295D01*
X240784Y31174D01*
X240774Y31054D01*
X240761Y30933D01*
X240743Y30814D01*
X240722Y30694D01*
X240697Y30576D01*
X240668Y30459D01*
X240635Y30342D01*
X240599Y30227D01*
X240558Y30113D01*
X240515Y30000D01*
X240467Y29888D01*
X240416Y29779D01*
X240361Y29671D01*
X240303Y29564D01*
X240242Y29460D01*
X240177Y29358D01*
X240109Y29258D01*
X240038Y29160D01*
X239964Y29064D01*
X239887Y28971D01*
X239806Y28881D01*
X239723Y28793D01*
X239637Y28708D01*
X239548Y28625D01*
X239457Y28546D01*
X239363Y28469D01*
X239267Y28396D01*
X239169Y28326D01*
X239068Y28259D01*
X238965Y28195D01*
X238860Y28135D01*
X238753Y28078D01*
X238645Y28024D01*
X238535Y27974D01*
X238423Y27928D01*
X238310Y27885D01*
X238195Y27846D01*
X235599Y33364D02*
X235676Y33443D01*
X235757Y33519D01*
X235840Y33592D01*
X235925Y33662D01*
X236013Y33729D01*
X236103Y33793D01*
X236195Y33853D01*
X236290Y33910D01*
X236386Y33964D01*
X236484Y34015D01*
X236584Y34062D01*
X236686Y34106D01*
X236789Y34146D01*
X236893Y34182D01*
X236999Y34214D01*
X237105Y34243D01*
X237213Y34268D01*
X237321Y34290D01*
X237431Y34307D01*
X237540Y34321D01*
X237650Y34330D01*
X237761Y34336D01*
X237871Y34338D01*
X235599Y33364D02*
X229108Y27846D01*
X229108Y34337D01*
X336113Y29972D02*
X336113Y18288D01*
X337411Y18288D02*
X334814Y18288D01*
X334814Y29972D02*
X337411Y29972D01*
X327651Y18288D02*
X325054Y18288D01*
X327651Y18288D02*
X327750Y18290D01*
X327850Y18296D01*
X327949Y18305D01*
X328047Y18318D01*
X328145Y18335D01*
X328243Y18356D01*
X328339Y18381D01*
X328434Y18409D01*
X328528Y18441D01*
X328621Y18476D01*
X328713Y18515D01*
X328803Y18558D01*
X328891Y18603D01*
X328978Y18653D01*
X329062Y18705D01*
X329145Y18761D01*
X329225Y18819D01*
X329303Y18881D01*
X329378Y18946D01*
X329451Y19014D01*
X329521Y19084D01*
X329589Y19157D01*
X329654Y19232D01*
X329716Y19310D01*
X329774Y19390D01*
X329830Y19473D01*
X329882Y19557D01*
X329932Y19644D01*
X329977Y19732D01*
X330020Y19822D01*
X330059Y19914D01*
X330094Y20007D01*
X330126Y20101D01*
X330154Y20196D01*
X330179Y20292D01*
X330200Y20390D01*
X330217Y20488D01*
X330230Y20586D01*
X330239Y20685D01*
X330245Y20785D01*
X330247Y20884D01*
X330247Y27376D01*
X330245Y27475D01*
X330239Y27575D01*
X330230Y27674D01*
X330217Y27772D01*
X330200Y27870D01*
X330179Y27968D01*
X330154Y28064D01*
X330126Y28159D01*
X330094Y28253D01*
X330059Y28346D01*
X330020Y28438D01*
X329977Y28528D01*
X329932Y28616D01*
X329882Y28703D01*
X329830Y28787D01*
X329774Y28870D01*
X329716Y28950D01*
X329654Y29028D01*
X329589Y29103D01*
X329521Y29176D01*
X329451Y29246D01*
X329378Y29314D01*
X329303Y29379D01*
X329225Y29441D01*
X329145Y29499D01*
X329062Y29555D01*
X328978Y29607D01*
X328891Y29657D01*
X328803Y29702D01*
X328713Y29745D01*
X328621Y29784D01*
X328528Y29819D01*
X328434Y29851D01*
X328339Y29879D01*
X328243Y29904D01*
X328145Y29925D01*
X328047Y29942D01*
X327949Y29955D01*
X327850Y29964D01*
X327750Y29970D01*
X327651Y29972D01*
X325054Y29972D01*
X320689Y27376D02*
X317444Y29972D01*
X317444Y18288D01*
X320689Y18288D02*
X314198Y18288D01*
X245685Y64008D02*
X245685Y75692D01*
X242440Y75692D01*
X242327Y75690D01*
X242214Y75684D01*
X242101Y75674D01*
X241988Y75660D01*
X241876Y75643D01*
X241765Y75621D01*
X241655Y75596D01*
X241545Y75566D01*
X241437Y75533D01*
X241330Y75496D01*
X241224Y75456D01*
X241120Y75411D01*
X241017Y75363D01*
X240916Y75312D01*
X240817Y75257D01*
X240720Y75199D01*
X240625Y75137D01*
X240532Y75072D01*
X240442Y75004D01*
X240354Y74933D01*
X240268Y74858D01*
X240185Y74781D01*
X240105Y74701D01*
X240028Y74618D01*
X239953Y74532D01*
X239882Y74444D01*
X239814Y74354D01*
X239749Y74261D01*
X239687Y74166D01*
X239629Y74069D01*
X239574Y73970D01*
X239523Y73869D01*
X239475Y73766D01*
X239430Y73662D01*
X239390Y73556D01*
X239353Y73449D01*
X239320Y73341D01*
X239290Y73231D01*
X239265Y73121D01*
X239243Y73010D01*
X239226Y72898D01*
X239212Y72785D01*
X239202Y72672D01*
X239196Y72559D01*
X239194Y72446D01*
X239196Y72333D01*
X239202Y72220D01*
X239212Y72107D01*
X239226Y71994D01*
X239243Y71882D01*
X239265Y71771D01*
X239290Y71661D01*
X239320Y71551D01*
X239353Y71443D01*
X239390Y71336D01*
X239430Y71230D01*
X239475Y71126D01*
X239523Y71023D01*
X239574Y70922D01*
X239629Y70823D01*
X239687Y70726D01*
X239749Y70631D01*
X239814Y70538D01*
X239882Y70448D01*
X239953Y70360D01*
X240028Y70274D01*
X240105Y70191D01*
X240185Y70111D01*
X240268Y70034D01*
X240354Y69959D01*
X240442Y69888D01*
X240532Y69820D01*
X240625Y69755D01*
X240720Y69693D01*
X240817Y69635D01*
X240916Y69580D01*
X241017Y69529D01*
X241120Y69481D01*
X241224Y69436D01*
X241330Y69396D01*
X241437Y69359D01*
X241545Y69326D01*
X241655Y69296D01*
X241765Y69271D01*
X241876Y69249D01*
X241988Y69232D01*
X242101Y69218D01*
X242214Y69208D01*
X242327Y69202D01*
X242440Y69200D01*
X242440Y69201D02*
X245685Y69201D01*
X241791Y69201D02*
X239194Y64008D01*
X234329Y64008D02*
X231084Y64008D01*
X230971Y64010D01*
X230858Y64016D01*
X230745Y64026D01*
X230632Y64040D01*
X230520Y64057D01*
X230409Y64079D01*
X230299Y64104D01*
X230189Y64134D01*
X230081Y64167D01*
X229974Y64204D01*
X229868Y64244D01*
X229764Y64289D01*
X229661Y64337D01*
X229560Y64388D01*
X229461Y64443D01*
X229364Y64501D01*
X229269Y64563D01*
X229176Y64628D01*
X229086Y64696D01*
X228998Y64767D01*
X228912Y64842D01*
X228829Y64919D01*
X228749Y64999D01*
X228672Y65082D01*
X228597Y65168D01*
X228526Y65256D01*
X228458Y65346D01*
X228393Y65439D01*
X228331Y65534D01*
X228273Y65631D01*
X228218Y65730D01*
X228167Y65831D01*
X228119Y65934D01*
X228074Y66038D01*
X228034Y66144D01*
X227997Y66251D01*
X227964Y66359D01*
X227934Y66469D01*
X227909Y66579D01*
X227887Y66690D01*
X227870Y66802D01*
X227856Y66915D01*
X227846Y67028D01*
X227840Y67141D01*
X227838Y67254D01*
X227840Y67367D01*
X227846Y67480D01*
X227856Y67593D01*
X227870Y67706D01*
X227887Y67818D01*
X227909Y67929D01*
X227934Y68039D01*
X227964Y68149D01*
X227997Y68257D01*
X228034Y68364D01*
X228074Y68470D01*
X228119Y68574D01*
X228167Y68677D01*
X228218Y68778D01*
X228273Y68877D01*
X228331Y68974D01*
X228393Y69069D01*
X228458Y69162D01*
X228526Y69252D01*
X228597Y69340D01*
X228672Y69426D01*
X228749Y69509D01*
X228829Y69589D01*
X228912Y69666D01*
X228998Y69741D01*
X229086Y69812D01*
X229176Y69880D01*
X229269Y69945D01*
X229364Y70007D01*
X229461Y70065D01*
X229560Y70120D01*
X229661Y70171D01*
X229764Y70219D01*
X229868Y70264D01*
X229974Y70304D01*
X230081Y70341D01*
X230189Y70374D01*
X230299Y70404D01*
X230409Y70429D01*
X230520Y70451D01*
X230632Y70468D01*
X230745Y70482D01*
X230858Y70492D01*
X230971Y70498D01*
X231084Y70500D01*
X230434Y75692D02*
X234329Y75692D01*
X230434Y75692D02*
X230333Y75690D01*
X230233Y75684D01*
X230133Y75674D01*
X230033Y75661D01*
X229934Y75643D01*
X229835Y75622D01*
X229738Y75597D01*
X229641Y75568D01*
X229546Y75535D01*
X229452Y75499D01*
X229360Y75459D01*
X229269Y75416D01*
X229180Y75369D01*
X229093Y75319D01*
X229007Y75265D01*
X228924Y75208D01*
X228844Y75148D01*
X228765Y75085D01*
X228689Y75018D01*
X228616Y74949D01*
X228546Y74877D01*
X228478Y74803D01*
X228413Y74726D01*
X228352Y74646D01*
X228293Y74564D01*
X228238Y74480D01*
X228186Y74394D01*
X228137Y74306D01*
X228092Y74216D01*
X228050Y74124D01*
X228012Y74031D01*
X227978Y73936D01*
X227947Y73841D01*
X227920Y73744D01*
X227897Y73646D01*
X227877Y73547D01*
X227862Y73447D01*
X227850Y73347D01*
X227842Y73247D01*
X227838Y73146D01*
X227838Y73046D01*
X227842Y72945D01*
X227850Y72845D01*
X227862Y72745D01*
X227877Y72645D01*
X227897Y72546D01*
X227920Y72448D01*
X227947Y72351D01*
X227978Y72256D01*
X228012Y72161D01*
X228050Y72068D01*
X228092Y71976D01*
X228137Y71886D01*
X228186Y71798D01*
X228238Y71712D01*
X228293Y71628D01*
X228352Y71546D01*
X228413Y71466D01*
X228478Y71389D01*
X228546Y71315D01*
X228616Y71243D01*
X228689Y71174D01*
X228765Y71107D01*
X228844Y71044D01*
X228924Y70984D01*
X229007Y70927D01*
X229093Y70873D01*
X229180Y70823D01*
X229269Y70776D01*
X229360Y70733D01*
X229452Y70693D01*
X229546Y70657D01*
X229641Y70624D01*
X229738Y70595D01*
X229835Y70570D01*
X229934Y70549D01*
X230033Y70531D01*
X230133Y70518D01*
X230233Y70508D01*
X230333Y70502D01*
X230434Y70500D01*
X230434Y70499D02*
X233031Y70499D01*
X172025Y71628D02*
X172025Y83312D01*
X168780Y83312D01*
X168667Y83310D01*
X168554Y83304D01*
X168441Y83294D01*
X168328Y83280D01*
X168216Y83263D01*
X168105Y83241D01*
X167995Y83216D01*
X167885Y83186D01*
X167777Y83153D01*
X167670Y83116D01*
X167564Y83076D01*
X167460Y83031D01*
X167357Y82983D01*
X167256Y82932D01*
X167157Y82877D01*
X167060Y82819D01*
X166965Y82757D01*
X166872Y82692D01*
X166782Y82624D01*
X166694Y82553D01*
X166608Y82478D01*
X166525Y82401D01*
X166445Y82321D01*
X166368Y82238D01*
X166293Y82152D01*
X166222Y82064D01*
X166154Y81974D01*
X166089Y81881D01*
X166027Y81786D01*
X165969Y81689D01*
X165914Y81590D01*
X165863Y81489D01*
X165815Y81386D01*
X165770Y81282D01*
X165730Y81176D01*
X165693Y81069D01*
X165660Y80961D01*
X165630Y80851D01*
X165605Y80741D01*
X165583Y80630D01*
X165566Y80518D01*
X165552Y80405D01*
X165542Y80292D01*
X165536Y80179D01*
X165534Y80066D01*
X165536Y79953D01*
X165542Y79840D01*
X165552Y79727D01*
X165566Y79614D01*
X165583Y79502D01*
X165605Y79391D01*
X165630Y79281D01*
X165660Y79171D01*
X165693Y79063D01*
X165730Y78956D01*
X165770Y78850D01*
X165815Y78746D01*
X165863Y78643D01*
X165914Y78542D01*
X165969Y78443D01*
X166027Y78346D01*
X166089Y78251D01*
X166154Y78158D01*
X166222Y78068D01*
X166293Y77980D01*
X166368Y77894D01*
X166445Y77811D01*
X166525Y77731D01*
X166608Y77654D01*
X166694Y77579D01*
X166782Y77508D01*
X166872Y77440D01*
X166965Y77375D01*
X167060Y77313D01*
X167157Y77255D01*
X167256Y77200D01*
X167357Y77149D01*
X167460Y77101D01*
X167564Y77056D01*
X167670Y77016D01*
X167777Y76979D01*
X167885Y76946D01*
X167995Y76916D01*
X168105Y76891D01*
X168216Y76869D01*
X168328Y76852D01*
X168441Y76838D01*
X168554Y76828D01*
X168667Y76822D01*
X168780Y76820D01*
X168780Y76821D02*
X172025Y76821D01*
X168131Y76821D02*
X165534Y71628D01*
X160669Y74224D02*
X158073Y83312D01*
X160669Y74224D02*
X154178Y74224D01*
X156125Y76821D02*
X156125Y71628D01*
D13*
X-12700Y-17780D02*
X604320Y-17780D01*
X604320Y274830D01*
X-12700Y274830D01*
X-12700Y-17780D01*
M02*
