G04 EAGLE Gerber RS-274X export*
G75*
%MOMM*%
%FSLAX34Y34*%
%LPD*%
%INSilk screen CMP*%
%IPPOS*%
%AMOC8*
5,1,8,0,0,1.08239X$1,22.5*%
G01*
%ADD10C,0.000000*%
%ADD11C,0.152400*%
%ADD12C,0.127000*%
%ADD13C,0.101600*%
%ADD14C,0.254000*%


D10*
X-12700Y-17780D02*
X604320Y-17780D01*
X604320Y274830D01*
X-12700Y274830D01*
X-12700Y-17780D01*
D11*
X438150Y238760D02*
X450850Y238760D01*
X457200Y232410D01*
X457200Y219710D01*
X450850Y213360D01*
X431800Y219710D02*
X431800Y232410D01*
X438150Y238760D01*
X431800Y219710D02*
X438150Y213360D01*
X450850Y213360D01*
D12*
X435483Y247523D02*
X435483Y256413D01*
X435483Y247523D02*
X435481Y247423D01*
X435475Y247324D01*
X435465Y247224D01*
X435452Y247126D01*
X435434Y247027D01*
X435413Y246930D01*
X435388Y246834D01*
X435359Y246738D01*
X435326Y246644D01*
X435290Y246551D01*
X435250Y246460D01*
X435206Y246370D01*
X435159Y246282D01*
X435109Y246196D01*
X435055Y246112D01*
X434998Y246030D01*
X434938Y245951D01*
X434874Y245873D01*
X434808Y245799D01*
X434739Y245727D01*
X434667Y245658D01*
X434593Y245592D01*
X434515Y245528D01*
X434436Y245468D01*
X434354Y245411D01*
X434270Y245357D01*
X434184Y245307D01*
X434096Y245260D01*
X434006Y245216D01*
X433915Y245176D01*
X433822Y245140D01*
X433728Y245107D01*
X433632Y245078D01*
X433536Y245053D01*
X433439Y245032D01*
X433340Y245014D01*
X433242Y245001D01*
X433142Y244991D01*
X433043Y244985D01*
X432943Y244983D01*
X431673Y244983D01*
X441463Y244983D02*
X441463Y256413D01*
X444638Y256413D01*
X444749Y256411D01*
X444859Y256405D01*
X444970Y256396D01*
X445080Y256382D01*
X445189Y256365D01*
X445298Y256344D01*
X445406Y256319D01*
X445513Y256290D01*
X445619Y256258D01*
X445724Y256222D01*
X445827Y256182D01*
X445929Y256139D01*
X446030Y256092D01*
X446129Y256041D01*
X446226Y255988D01*
X446320Y255931D01*
X446413Y255870D01*
X446504Y255807D01*
X446593Y255740D01*
X446679Y255670D01*
X446762Y255597D01*
X446844Y255522D01*
X446922Y255444D01*
X446997Y255362D01*
X447070Y255279D01*
X447140Y255193D01*
X447207Y255104D01*
X447270Y255013D01*
X447331Y254920D01*
X447388Y254825D01*
X447441Y254729D01*
X447492Y254630D01*
X447539Y254529D01*
X447582Y254427D01*
X447622Y254324D01*
X447658Y254219D01*
X447690Y254113D01*
X447719Y254006D01*
X447744Y253898D01*
X447765Y253789D01*
X447782Y253680D01*
X447796Y253570D01*
X447805Y253459D01*
X447811Y253349D01*
X447813Y253238D01*
X447811Y253127D01*
X447805Y253017D01*
X447796Y252906D01*
X447782Y252796D01*
X447765Y252687D01*
X447744Y252578D01*
X447719Y252470D01*
X447690Y252363D01*
X447658Y252257D01*
X447622Y252152D01*
X447582Y252049D01*
X447539Y251947D01*
X447492Y251846D01*
X447441Y251747D01*
X447388Y251650D01*
X447331Y251556D01*
X447270Y251463D01*
X447207Y251372D01*
X447140Y251283D01*
X447070Y251197D01*
X446997Y251114D01*
X446922Y251032D01*
X446844Y250954D01*
X446762Y250879D01*
X446679Y250806D01*
X446593Y250736D01*
X446504Y250669D01*
X446413Y250606D01*
X446320Y250545D01*
X446226Y250488D01*
X446129Y250435D01*
X446030Y250384D01*
X445929Y250337D01*
X445827Y250294D01*
X445724Y250254D01*
X445619Y250218D01*
X445513Y250186D01*
X445406Y250157D01*
X445298Y250132D01*
X445189Y250111D01*
X445080Y250094D01*
X444970Y250080D01*
X444859Y250071D01*
X444749Y250065D01*
X444638Y250063D01*
X441463Y250063D01*
X452322Y253873D02*
X455497Y256413D01*
X455497Y244983D01*
X452322Y244983D02*
X458672Y244983D01*
D11*
X450850Y213360D02*
X438150Y213360D01*
X450850Y213360D02*
X457200Y207010D01*
X457200Y194310D01*
X450850Y187960D01*
X431800Y194310D02*
X431800Y207010D01*
X438150Y213360D01*
X431800Y194310D02*
X438150Y187960D01*
X450850Y187960D01*
D12*
X435483Y222123D02*
X435483Y231013D01*
X435483Y222123D02*
X435481Y222023D01*
X435475Y221924D01*
X435465Y221824D01*
X435452Y221726D01*
X435434Y221627D01*
X435413Y221530D01*
X435388Y221434D01*
X435359Y221338D01*
X435326Y221244D01*
X435290Y221151D01*
X435250Y221060D01*
X435206Y220970D01*
X435159Y220882D01*
X435109Y220796D01*
X435055Y220712D01*
X434998Y220630D01*
X434938Y220551D01*
X434874Y220473D01*
X434808Y220399D01*
X434739Y220327D01*
X434667Y220258D01*
X434593Y220192D01*
X434515Y220128D01*
X434436Y220068D01*
X434354Y220011D01*
X434270Y219957D01*
X434184Y219907D01*
X434096Y219860D01*
X434006Y219816D01*
X433915Y219776D01*
X433822Y219740D01*
X433728Y219707D01*
X433632Y219678D01*
X433536Y219653D01*
X433439Y219632D01*
X433340Y219614D01*
X433242Y219601D01*
X433142Y219591D01*
X433043Y219585D01*
X432943Y219583D01*
X431673Y219583D01*
X441463Y219583D02*
X441463Y231013D01*
X444638Y231013D01*
X444749Y231011D01*
X444859Y231005D01*
X444970Y230996D01*
X445080Y230982D01*
X445189Y230965D01*
X445298Y230944D01*
X445406Y230919D01*
X445513Y230890D01*
X445619Y230858D01*
X445724Y230822D01*
X445827Y230782D01*
X445929Y230739D01*
X446030Y230692D01*
X446129Y230641D01*
X446226Y230588D01*
X446320Y230531D01*
X446413Y230470D01*
X446504Y230407D01*
X446593Y230340D01*
X446679Y230270D01*
X446762Y230197D01*
X446844Y230122D01*
X446922Y230044D01*
X446997Y229962D01*
X447070Y229879D01*
X447140Y229793D01*
X447207Y229704D01*
X447270Y229613D01*
X447331Y229520D01*
X447388Y229425D01*
X447441Y229329D01*
X447492Y229230D01*
X447539Y229129D01*
X447582Y229027D01*
X447622Y228924D01*
X447658Y228819D01*
X447690Y228713D01*
X447719Y228606D01*
X447744Y228498D01*
X447765Y228389D01*
X447782Y228280D01*
X447796Y228170D01*
X447805Y228059D01*
X447811Y227949D01*
X447813Y227838D01*
X447811Y227727D01*
X447805Y227617D01*
X447796Y227506D01*
X447782Y227396D01*
X447765Y227287D01*
X447744Y227178D01*
X447719Y227070D01*
X447690Y226963D01*
X447658Y226857D01*
X447622Y226752D01*
X447582Y226649D01*
X447539Y226547D01*
X447492Y226446D01*
X447441Y226347D01*
X447388Y226250D01*
X447331Y226156D01*
X447270Y226063D01*
X447207Y225972D01*
X447140Y225883D01*
X447070Y225797D01*
X446997Y225714D01*
X446922Y225632D01*
X446844Y225554D01*
X446762Y225479D01*
X446679Y225406D01*
X446593Y225336D01*
X446504Y225269D01*
X446413Y225206D01*
X446320Y225145D01*
X446226Y225088D01*
X446129Y225035D01*
X446030Y224984D01*
X445929Y224937D01*
X445827Y224894D01*
X445724Y224854D01*
X445619Y224818D01*
X445513Y224786D01*
X445406Y224757D01*
X445298Y224732D01*
X445189Y224711D01*
X445080Y224694D01*
X444970Y224680D01*
X444859Y224671D01*
X444749Y224665D01*
X444638Y224663D01*
X441463Y224663D01*
X455814Y231014D02*
X455918Y231012D01*
X456023Y231006D01*
X456127Y230997D01*
X456230Y230984D01*
X456333Y230966D01*
X456435Y230946D01*
X456537Y230921D01*
X456637Y230893D01*
X456737Y230861D01*
X456835Y230825D01*
X456932Y230786D01*
X457027Y230744D01*
X457121Y230698D01*
X457213Y230648D01*
X457303Y230596D01*
X457391Y230540D01*
X457477Y230480D01*
X457561Y230418D01*
X457642Y230353D01*
X457721Y230285D01*
X457798Y230213D01*
X457871Y230140D01*
X457943Y230063D01*
X458011Y229984D01*
X458076Y229903D01*
X458138Y229819D01*
X458198Y229733D01*
X458254Y229645D01*
X458306Y229555D01*
X458356Y229463D01*
X458402Y229369D01*
X458444Y229274D01*
X458483Y229177D01*
X458519Y229079D01*
X458551Y228979D01*
X458579Y228879D01*
X458604Y228777D01*
X458624Y228675D01*
X458642Y228572D01*
X458655Y228469D01*
X458664Y228365D01*
X458670Y228260D01*
X458672Y228156D01*
X455814Y231013D02*
X455696Y231011D01*
X455577Y231005D01*
X455459Y230996D01*
X455342Y230983D01*
X455225Y230965D01*
X455108Y230945D01*
X454992Y230920D01*
X454877Y230892D01*
X454764Y230859D01*
X454651Y230824D01*
X454539Y230784D01*
X454429Y230742D01*
X454320Y230695D01*
X454212Y230645D01*
X454107Y230592D01*
X454003Y230535D01*
X453901Y230475D01*
X453801Y230412D01*
X453703Y230345D01*
X453607Y230276D01*
X453514Y230203D01*
X453423Y230127D01*
X453334Y230049D01*
X453248Y229967D01*
X453165Y229883D01*
X453084Y229797D01*
X453007Y229707D01*
X452932Y229616D01*
X452860Y229522D01*
X452791Y229425D01*
X452726Y229327D01*
X452663Y229226D01*
X452604Y229123D01*
X452548Y229019D01*
X452496Y228913D01*
X452447Y228805D01*
X452402Y228696D01*
X452360Y228585D01*
X452322Y228473D01*
X457720Y225934D02*
X457796Y226009D01*
X457871Y226088D01*
X457942Y226169D01*
X458011Y226253D01*
X458076Y226339D01*
X458138Y226427D01*
X458198Y226517D01*
X458254Y226609D01*
X458307Y226704D01*
X458356Y226800D01*
X458402Y226898D01*
X458445Y226997D01*
X458484Y227098D01*
X458519Y227200D01*
X458551Y227303D01*
X458579Y227407D01*
X458604Y227512D01*
X458625Y227619D01*
X458642Y227725D01*
X458655Y227832D01*
X458664Y227940D01*
X458670Y228048D01*
X458672Y228156D01*
X457719Y225933D02*
X452322Y219583D01*
X458672Y219583D01*
D11*
X334010Y241300D02*
X321310Y241300D01*
X334010Y241300D02*
X340360Y234950D01*
X340360Y222250D01*
X334010Y215900D01*
X314960Y222250D02*
X314960Y234950D01*
X321310Y241300D01*
X314960Y222250D02*
X321310Y215900D01*
X334010Y215900D01*
D12*
X318643Y250063D02*
X318643Y258953D01*
X318643Y250063D02*
X318641Y249963D01*
X318635Y249864D01*
X318625Y249764D01*
X318612Y249666D01*
X318594Y249567D01*
X318573Y249470D01*
X318548Y249374D01*
X318519Y249278D01*
X318486Y249184D01*
X318450Y249091D01*
X318410Y249000D01*
X318366Y248910D01*
X318319Y248822D01*
X318269Y248736D01*
X318215Y248652D01*
X318158Y248570D01*
X318098Y248491D01*
X318034Y248413D01*
X317968Y248339D01*
X317899Y248267D01*
X317827Y248198D01*
X317753Y248132D01*
X317675Y248068D01*
X317596Y248008D01*
X317514Y247951D01*
X317430Y247897D01*
X317344Y247847D01*
X317256Y247800D01*
X317166Y247756D01*
X317075Y247716D01*
X316982Y247680D01*
X316888Y247647D01*
X316792Y247618D01*
X316696Y247593D01*
X316599Y247572D01*
X316500Y247554D01*
X316402Y247541D01*
X316302Y247531D01*
X316203Y247525D01*
X316103Y247523D01*
X314833Y247523D01*
X324623Y247523D02*
X324623Y258953D01*
X327798Y258953D01*
X327909Y258951D01*
X328019Y258945D01*
X328130Y258936D01*
X328240Y258922D01*
X328349Y258905D01*
X328458Y258884D01*
X328566Y258859D01*
X328673Y258830D01*
X328779Y258798D01*
X328884Y258762D01*
X328987Y258722D01*
X329089Y258679D01*
X329190Y258632D01*
X329289Y258581D01*
X329386Y258528D01*
X329480Y258471D01*
X329573Y258410D01*
X329664Y258347D01*
X329753Y258280D01*
X329839Y258210D01*
X329922Y258137D01*
X330004Y258062D01*
X330082Y257984D01*
X330157Y257902D01*
X330230Y257819D01*
X330300Y257733D01*
X330367Y257644D01*
X330430Y257553D01*
X330491Y257460D01*
X330548Y257365D01*
X330601Y257269D01*
X330652Y257170D01*
X330699Y257069D01*
X330742Y256967D01*
X330782Y256864D01*
X330818Y256759D01*
X330850Y256653D01*
X330879Y256546D01*
X330904Y256438D01*
X330925Y256329D01*
X330942Y256220D01*
X330956Y256110D01*
X330965Y255999D01*
X330971Y255889D01*
X330973Y255778D01*
X330971Y255667D01*
X330965Y255557D01*
X330956Y255446D01*
X330942Y255336D01*
X330925Y255227D01*
X330904Y255118D01*
X330879Y255010D01*
X330850Y254903D01*
X330818Y254797D01*
X330782Y254692D01*
X330742Y254589D01*
X330699Y254487D01*
X330652Y254386D01*
X330601Y254287D01*
X330548Y254190D01*
X330491Y254096D01*
X330430Y254003D01*
X330367Y253912D01*
X330300Y253823D01*
X330230Y253737D01*
X330157Y253654D01*
X330082Y253572D01*
X330004Y253494D01*
X329922Y253419D01*
X329839Y253346D01*
X329753Y253276D01*
X329664Y253209D01*
X329573Y253146D01*
X329480Y253085D01*
X329386Y253028D01*
X329289Y252975D01*
X329190Y252924D01*
X329089Y252877D01*
X328987Y252834D01*
X328884Y252794D01*
X328779Y252758D01*
X328673Y252726D01*
X328566Y252697D01*
X328458Y252672D01*
X328349Y252651D01*
X328240Y252634D01*
X328130Y252620D01*
X328019Y252611D01*
X327909Y252605D01*
X327798Y252603D01*
X324623Y252603D01*
X335482Y247523D02*
X338657Y247523D01*
X338768Y247525D01*
X338878Y247531D01*
X338989Y247540D01*
X339099Y247554D01*
X339208Y247571D01*
X339317Y247592D01*
X339425Y247617D01*
X339532Y247646D01*
X339638Y247678D01*
X339743Y247714D01*
X339846Y247754D01*
X339948Y247797D01*
X340049Y247844D01*
X340148Y247895D01*
X340245Y247948D01*
X340339Y248005D01*
X340432Y248066D01*
X340523Y248129D01*
X340612Y248196D01*
X340698Y248266D01*
X340781Y248339D01*
X340863Y248414D01*
X340941Y248492D01*
X341016Y248574D01*
X341089Y248657D01*
X341159Y248743D01*
X341226Y248832D01*
X341289Y248923D01*
X341350Y249016D01*
X341407Y249110D01*
X341460Y249207D01*
X341511Y249306D01*
X341558Y249407D01*
X341601Y249509D01*
X341641Y249612D01*
X341677Y249717D01*
X341709Y249823D01*
X341738Y249930D01*
X341763Y250038D01*
X341784Y250147D01*
X341801Y250256D01*
X341815Y250366D01*
X341824Y250477D01*
X341830Y250587D01*
X341832Y250698D01*
X341830Y250809D01*
X341824Y250919D01*
X341815Y251030D01*
X341801Y251140D01*
X341784Y251249D01*
X341763Y251358D01*
X341738Y251466D01*
X341709Y251573D01*
X341677Y251679D01*
X341641Y251784D01*
X341601Y251887D01*
X341558Y251989D01*
X341511Y252090D01*
X341460Y252189D01*
X341407Y252285D01*
X341350Y252380D01*
X341289Y252473D01*
X341226Y252564D01*
X341159Y252653D01*
X341089Y252739D01*
X341016Y252822D01*
X340941Y252904D01*
X340863Y252982D01*
X340781Y253057D01*
X340698Y253130D01*
X340612Y253200D01*
X340523Y253267D01*
X340432Y253330D01*
X340339Y253391D01*
X340245Y253448D01*
X340148Y253501D01*
X340049Y253552D01*
X339948Y253599D01*
X339846Y253642D01*
X339743Y253682D01*
X339638Y253718D01*
X339532Y253750D01*
X339425Y253779D01*
X339317Y253804D01*
X339208Y253825D01*
X339099Y253842D01*
X338989Y253856D01*
X338878Y253865D01*
X338768Y253871D01*
X338657Y253873D01*
X339292Y258953D02*
X335482Y258953D01*
X339292Y258953D02*
X339392Y258951D01*
X339491Y258945D01*
X339591Y258935D01*
X339689Y258922D01*
X339788Y258904D01*
X339885Y258883D01*
X339981Y258858D01*
X340077Y258829D01*
X340171Y258796D01*
X340264Y258760D01*
X340355Y258720D01*
X340445Y258676D01*
X340533Y258629D01*
X340619Y258579D01*
X340703Y258525D01*
X340785Y258468D01*
X340864Y258408D01*
X340942Y258344D01*
X341016Y258278D01*
X341088Y258209D01*
X341157Y258137D01*
X341223Y258063D01*
X341287Y257985D01*
X341347Y257906D01*
X341404Y257824D01*
X341458Y257740D01*
X341508Y257654D01*
X341555Y257566D01*
X341599Y257476D01*
X341639Y257385D01*
X341675Y257292D01*
X341708Y257198D01*
X341737Y257102D01*
X341762Y257006D01*
X341783Y256909D01*
X341801Y256810D01*
X341814Y256712D01*
X341824Y256612D01*
X341830Y256513D01*
X341832Y256413D01*
X341830Y256313D01*
X341824Y256214D01*
X341814Y256114D01*
X341801Y256016D01*
X341783Y255917D01*
X341762Y255820D01*
X341737Y255724D01*
X341708Y255628D01*
X341675Y255534D01*
X341639Y255441D01*
X341599Y255350D01*
X341555Y255260D01*
X341508Y255172D01*
X341458Y255086D01*
X341404Y255002D01*
X341347Y254920D01*
X341287Y254841D01*
X341223Y254763D01*
X341157Y254689D01*
X341088Y254617D01*
X341016Y254548D01*
X340942Y254482D01*
X340864Y254418D01*
X340785Y254358D01*
X340703Y254301D01*
X340619Y254247D01*
X340533Y254197D01*
X340445Y254150D01*
X340355Y254106D01*
X340264Y254066D01*
X340171Y254030D01*
X340077Y253997D01*
X339981Y253968D01*
X339885Y253943D01*
X339788Y253922D01*
X339689Y253904D01*
X339591Y253891D01*
X339491Y253881D01*
X339392Y253875D01*
X339292Y253873D01*
X336752Y253873D01*
D11*
X275590Y238760D02*
X262890Y238760D01*
X275590Y238760D02*
X281940Y232410D01*
X281940Y219710D01*
X275590Y213360D01*
X256540Y219710D02*
X256540Y232410D01*
X262890Y238760D01*
X256540Y219710D02*
X262890Y213360D01*
X275590Y213360D01*
D12*
X260223Y247523D02*
X260223Y256413D01*
X260223Y247523D02*
X260221Y247423D01*
X260215Y247324D01*
X260205Y247224D01*
X260192Y247126D01*
X260174Y247027D01*
X260153Y246930D01*
X260128Y246834D01*
X260099Y246738D01*
X260066Y246644D01*
X260030Y246551D01*
X259990Y246460D01*
X259946Y246370D01*
X259899Y246282D01*
X259849Y246196D01*
X259795Y246112D01*
X259738Y246030D01*
X259678Y245951D01*
X259614Y245873D01*
X259548Y245799D01*
X259479Y245727D01*
X259407Y245658D01*
X259333Y245592D01*
X259255Y245528D01*
X259176Y245468D01*
X259094Y245411D01*
X259010Y245357D01*
X258924Y245307D01*
X258836Y245260D01*
X258746Y245216D01*
X258655Y245176D01*
X258562Y245140D01*
X258468Y245107D01*
X258372Y245078D01*
X258276Y245053D01*
X258179Y245032D01*
X258080Y245014D01*
X257982Y245001D01*
X257882Y244991D01*
X257783Y244985D01*
X257683Y244983D01*
X256413Y244983D01*
X266203Y244983D02*
X266203Y256413D01*
X269378Y256413D01*
X269489Y256411D01*
X269599Y256405D01*
X269710Y256396D01*
X269820Y256382D01*
X269929Y256365D01*
X270038Y256344D01*
X270146Y256319D01*
X270253Y256290D01*
X270359Y256258D01*
X270464Y256222D01*
X270567Y256182D01*
X270669Y256139D01*
X270770Y256092D01*
X270869Y256041D01*
X270966Y255988D01*
X271060Y255931D01*
X271153Y255870D01*
X271244Y255807D01*
X271333Y255740D01*
X271419Y255670D01*
X271502Y255597D01*
X271584Y255522D01*
X271662Y255444D01*
X271737Y255362D01*
X271810Y255279D01*
X271880Y255193D01*
X271947Y255104D01*
X272010Y255013D01*
X272071Y254920D01*
X272128Y254825D01*
X272181Y254729D01*
X272232Y254630D01*
X272279Y254529D01*
X272322Y254427D01*
X272362Y254324D01*
X272398Y254219D01*
X272430Y254113D01*
X272459Y254006D01*
X272484Y253898D01*
X272505Y253789D01*
X272522Y253680D01*
X272536Y253570D01*
X272545Y253459D01*
X272551Y253349D01*
X272553Y253238D01*
X272551Y253127D01*
X272545Y253017D01*
X272536Y252906D01*
X272522Y252796D01*
X272505Y252687D01*
X272484Y252578D01*
X272459Y252470D01*
X272430Y252363D01*
X272398Y252257D01*
X272362Y252152D01*
X272322Y252049D01*
X272279Y251947D01*
X272232Y251846D01*
X272181Y251747D01*
X272128Y251650D01*
X272071Y251556D01*
X272010Y251463D01*
X271947Y251372D01*
X271880Y251283D01*
X271810Y251197D01*
X271737Y251114D01*
X271662Y251032D01*
X271584Y250954D01*
X271502Y250879D01*
X271419Y250806D01*
X271333Y250736D01*
X271244Y250669D01*
X271153Y250606D01*
X271060Y250545D01*
X270966Y250488D01*
X270869Y250435D01*
X270770Y250384D01*
X270669Y250337D01*
X270567Y250294D01*
X270464Y250254D01*
X270359Y250218D01*
X270253Y250186D01*
X270146Y250157D01*
X270038Y250132D01*
X269929Y250111D01*
X269820Y250094D01*
X269710Y250080D01*
X269599Y250071D01*
X269489Y250065D01*
X269378Y250063D01*
X266203Y250063D01*
X277062Y247523D02*
X279602Y256413D01*
X277062Y247523D02*
X283412Y247523D01*
X281507Y250063D02*
X281507Y244983D01*
D11*
X374650Y238760D02*
X387350Y238760D01*
X393700Y232410D01*
X393700Y219710D01*
X387350Y213360D01*
X368300Y219710D02*
X368300Y232410D01*
X374650Y238760D01*
X368300Y219710D02*
X374650Y213360D01*
X387350Y213360D01*
D12*
X371983Y247523D02*
X371983Y256413D01*
X371983Y247523D02*
X371981Y247423D01*
X371975Y247324D01*
X371965Y247224D01*
X371952Y247126D01*
X371934Y247027D01*
X371913Y246930D01*
X371888Y246834D01*
X371859Y246738D01*
X371826Y246644D01*
X371790Y246551D01*
X371750Y246460D01*
X371706Y246370D01*
X371659Y246282D01*
X371609Y246196D01*
X371555Y246112D01*
X371498Y246030D01*
X371438Y245951D01*
X371374Y245873D01*
X371308Y245799D01*
X371239Y245727D01*
X371167Y245658D01*
X371093Y245592D01*
X371015Y245528D01*
X370936Y245468D01*
X370854Y245411D01*
X370770Y245357D01*
X370684Y245307D01*
X370596Y245260D01*
X370506Y245216D01*
X370415Y245176D01*
X370322Y245140D01*
X370228Y245107D01*
X370132Y245078D01*
X370036Y245053D01*
X369939Y245032D01*
X369840Y245014D01*
X369742Y245001D01*
X369642Y244991D01*
X369543Y244985D01*
X369443Y244983D01*
X368173Y244983D01*
X377963Y244983D02*
X377963Y256413D01*
X381138Y256413D01*
X381249Y256411D01*
X381359Y256405D01*
X381470Y256396D01*
X381580Y256382D01*
X381689Y256365D01*
X381798Y256344D01*
X381906Y256319D01*
X382013Y256290D01*
X382119Y256258D01*
X382224Y256222D01*
X382327Y256182D01*
X382429Y256139D01*
X382530Y256092D01*
X382629Y256041D01*
X382726Y255988D01*
X382820Y255931D01*
X382913Y255870D01*
X383004Y255807D01*
X383093Y255740D01*
X383179Y255670D01*
X383262Y255597D01*
X383344Y255522D01*
X383422Y255444D01*
X383497Y255362D01*
X383570Y255279D01*
X383640Y255193D01*
X383707Y255104D01*
X383770Y255013D01*
X383831Y254920D01*
X383888Y254825D01*
X383941Y254729D01*
X383992Y254630D01*
X384039Y254529D01*
X384082Y254427D01*
X384122Y254324D01*
X384158Y254219D01*
X384190Y254113D01*
X384219Y254006D01*
X384244Y253898D01*
X384265Y253789D01*
X384282Y253680D01*
X384296Y253570D01*
X384305Y253459D01*
X384311Y253349D01*
X384313Y253238D01*
X384311Y253127D01*
X384305Y253017D01*
X384296Y252906D01*
X384282Y252796D01*
X384265Y252687D01*
X384244Y252578D01*
X384219Y252470D01*
X384190Y252363D01*
X384158Y252257D01*
X384122Y252152D01*
X384082Y252049D01*
X384039Y251947D01*
X383992Y251846D01*
X383941Y251747D01*
X383888Y251650D01*
X383831Y251556D01*
X383770Y251463D01*
X383707Y251372D01*
X383640Y251283D01*
X383570Y251197D01*
X383497Y251114D01*
X383422Y251032D01*
X383344Y250954D01*
X383262Y250879D01*
X383179Y250806D01*
X383093Y250736D01*
X383004Y250669D01*
X382913Y250606D01*
X382820Y250545D01*
X382726Y250488D01*
X382629Y250435D01*
X382530Y250384D01*
X382429Y250337D01*
X382327Y250294D01*
X382224Y250254D01*
X382119Y250218D01*
X382013Y250186D01*
X381906Y250157D01*
X381798Y250132D01*
X381689Y250111D01*
X381580Y250094D01*
X381470Y250080D01*
X381359Y250071D01*
X381249Y250065D01*
X381138Y250063D01*
X377963Y250063D01*
X388822Y244983D02*
X392632Y244983D01*
X392732Y244985D01*
X392831Y244991D01*
X392931Y245001D01*
X393029Y245014D01*
X393128Y245032D01*
X393225Y245053D01*
X393321Y245078D01*
X393417Y245107D01*
X393511Y245140D01*
X393604Y245176D01*
X393695Y245216D01*
X393785Y245260D01*
X393873Y245307D01*
X393959Y245357D01*
X394043Y245411D01*
X394125Y245468D01*
X394204Y245528D01*
X394282Y245592D01*
X394356Y245658D01*
X394428Y245727D01*
X394497Y245799D01*
X394563Y245873D01*
X394627Y245951D01*
X394687Y246030D01*
X394744Y246112D01*
X394798Y246196D01*
X394848Y246282D01*
X394895Y246370D01*
X394939Y246460D01*
X394979Y246551D01*
X395015Y246644D01*
X395048Y246738D01*
X395077Y246834D01*
X395102Y246930D01*
X395123Y247027D01*
X395141Y247126D01*
X395154Y247224D01*
X395164Y247324D01*
X395170Y247423D01*
X395172Y247523D01*
X395172Y248793D01*
X395170Y248893D01*
X395164Y248992D01*
X395154Y249092D01*
X395141Y249190D01*
X395123Y249289D01*
X395102Y249386D01*
X395077Y249482D01*
X395048Y249578D01*
X395015Y249672D01*
X394979Y249765D01*
X394939Y249856D01*
X394895Y249946D01*
X394848Y250034D01*
X394798Y250120D01*
X394744Y250204D01*
X394687Y250286D01*
X394627Y250365D01*
X394563Y250443D01*
X394497Y250517D01*
X394428Y250589D01*
X394356Y250658D01*
X394282Y250724D01*
X394204Y250788D01*
X394125Y250848D01*
X394043Y250905D01*
X393959Y250959D01*
X393873Y251009D01*
X393785Y251056D01*
X393695Y251100D01*
X393604Y251140D01*
X393511Y251176D01*
X393417Y251209D01*
X393321Y251238D01*
X393225Y251263D01*
X393128Y251284D01*
X393029Y251302D01*
X392931Y251315D01*
X392831Y251325D01*
X392732Y251331D01*
X392632Y251333D01*
X388822Y251333D01*
X388822Y256413D01*
X395172Y256413D01*
D11*
X275590Y213360D02*
X262890Y213360D01*
X275590Y213360D02*
X281940Y207010D01*
X281940Y194310D01*
X275590Y187960D01*
X256540Y194310D02*
X256540Y207010D01*
X262890Y213360D01*
X256540Y194310D02*
X262890Y187960D01*
X275590Y187960D01*
D12*
X260223Y222123D02*
X260223Y231013D01*
X260223Y222123D02*
X260221Y222023D01*
X260215Y221924D01*
X260205Y221824D01*
X260192Y221726D01*
X260174Y221627D01*
X260153Y221530D01*
X260128Y221434D01*
X260099Y221338D01*
X260066Y221244D01*
X260030Y221151D01*
X259990Y221060D01*
X259946Y220970D01*
X259899Y220882D01*
X259849Y220796D01*
X259795Y220712D01*
X259738Y220630D01*
X259678Y220551D01*
X259614Y220473D01*
X259548Y220399D01*
X259479Y220327D01*
X259407Y220258D01*
X259333Y220192D01*
X259255Y220128D01*
X259176Y220068D01*
X259094Y220011D01*
X259010Y219957D01*
X258924Y219907D01*
X258836Y219860D01*
X258746Y219816D01*
X258655Y219776D01*
X258562Y219740D01*
X258468Y219707D01*
X258372Y219678D01*
X258276Y219653D01*
X258179Y219632D01*
X258080Y219614D01*
X257982Y219601D01*
X257882Y219591D01*
X257783Y219585D01*
X257683Y219583D01*
X256413Y219583D01*
X266203Y219583D02*
X266203Y231013D01*
X269378Y231013D01*
X269489Y231011D01*
X269599Y231005D01*
X269710Y230996D01*
X269820Y230982D01*
X269929Y230965D01*
X270038Y230944D01*
X270146Y230919D01*
X270253Y230890D01*
X270359Y230858D01*
X270464Y230822D01*
X270567Y230782D01*
X270669Y230739D01*
X270770Y230692D01*
X270869Y230641D01*
X270966Y230588D01*
X271060Y230531D01*
X271153Y230470D01*
X271244Y230407D01*
X271333Y230340D01*
X271419Y230270D01*
X271502Y230197D01*
X271584Y230122D01*
X271662Y230044D01*
X271737Y229962D01*
X271810Y229879D01*
X271880Y229793D01*
X271947Y229704D01*
X272010Y229613D01*
X272071Y229520D01*
X272128Y229425D01*
X272181Y229329D01*
X272232Y229230D01*
X272279Y229129D01*
X272322Y229027D01*
X272362Y228924D01*
X272398Y228819D01*
X272430Y228713D01*
X272459Y228606D01*
X272484Y228498D01*
X272505Y228389D01*
X272522Y228280D01*
X272536Y228170D01*
X272545Y228059D01*
X272551Y227949D01*
X272553Y227838D01*
X272551Y227727D01*
X272545Y227617D01*
X272536Y227506D01*
X272522Y227396D01*
X272505Y227287D01*
X272484Y227178D01*
X272459Y227070D01*
X272430Y226963D01*
X272398Y226857D01*
X272362Y226752D01*
X272322Y226649D01*
X272279Y226547D01*
X272232Y226446D01*
X272181Y226347D01*
X272128Y226250D01*
X272071Y226156D01*
X272010Y226063D01*
X271947Y225972D01*
X271880Y225883D01*
X271810Y225797D01*
X271737Y225714D01*
X271662Y225632D01*
X271584Y225554D01*
X271502Y225479D01*
X271419Y225406D01*
X271333Y225336D01*
X271244Y225269D01*
X271153Y225206D01*
X271060Y225145D01*
X270966Y225088D01*
X270869Y225035D01*
X270770Y224984D01*
X270669Y224937D01*
X270567Y224894D01*
X270464Y224854D01*
X270359Y224818D01*
X270253Y224786D01*
X270146Y224757D01*
X270038Y224732D01*
X269929Y224711D01*
X269820Y224694D01*
X269710Y224680D01*
X269599Y224671D01*
X269489Y224665D01*
X269378Y224663D01*
X266203Y224663D01*
X277062Y225933D02*
X280872Y225933D01*
X280972Y225931D01*
X281071Y225925D01*
X281171Y225915D01*
X281269Y225902D01*
X281368Y225884D01*
X281465Y225863D01*
X281561Y225838D01*
X281657Y225809D01*
X281751Y225776D01*
X281844Y225740D01*
X281935Y225700D01*
X282025Y225656D01*
X282113Y225609D01*
X282199Y225559D01*
X282283Y225505D01*
X282365Y225448D01*
X282444Y225388D01*
X282522Y225324D01*
X282596Y225258D01*
X282668Y225189D01*
X282737Y225117D01*
X282803Y225043D01*
X282867Y224965D01*
X282927Y224886D01*
X282984Y224804D01*
X283038Y224720D01*
X283088Y224634D01*
X283135Y224546D01*
X283179Y224456D01*
X283219Y224365D01*
X283255Y224272D01*
X283288Y224178D01*
X283317Y224082D01*
X283342Y223986D01*
X283363Y223889D01*
X283381Y223790D01*
X283394Y223692D01*
X283404Y223592D01*
X283410Y223493D01*
X283412Y223393D01*
X283412Y222758D01*
X283410Y222647D01*
X283404Y222537D01*
X283395Y222426D01*
X283381Y222316D01*
X283364Y222207D01*
X283343Y222098D01*
X283318Y221990D01*
X283289Y221883D01*
X283257Y221777D01*
X283221Y221672D01*
X283181Y221569D01*
X283138Y221467D01*
X283091Y221366D01*
X283040Y221267D01*
X282987Y221170D01*
X282930Y221076D01*
X282869Y220983D01*
X282806Y220892D01*
X282739Y220803D01*
X282669Y220717D01*
X282596Y220634D01*
X282521Y220552D01*
X282443Y220474D01*
X282361Y220399D01*
X282278Y220326D01*
X282192Y220256D01*
X282103Y220189D01*
X282012Y220126D01*
X281919Y220065D01*
X281824Y220008D01*
X281728Y219955D01*
X281629Y219904D01*
X281528Y219857D01*
X281426Y219814D01*
X281323Y219774D01*
X281218Y219738D01*
X281112Y219706D01*
X281005Y219677D01*
X280897Y219652D01*
X280788Y219631D01*
X280679Y219614D01*
X280569Y219600D01*
X280458Y219591D01*
X280348Y219585D01*
X280237Y219583D01*
X280126Y219585D01*
X280016Y219591D01*
X279905Y219600D01*
X279795Y219614D01*
X279686Y219631D01*
X279577Y219652D01*
X279469Y219677D01*
X279362Y219706D01*
X279256Y219738D01*
X279151Y219774D01*
X279048Y219814D01*
X278946Y219857D01*
X278845Y219904D01*
X278746Y219955D01*
X278650Y220008D01*
X278555Y220065D01*
X278462Y220126D01*
X278371Y220189D01*
X278282Y220256D01*
X278196Y220326D01*
X278113Y220399D01*
X278031Y220474D01*
X277953Y220552D01*
X277878Y220634D01*
X277805Y220717D01*
X277735Y220803D01*
X277668Y220892D01*
X277605Y220983D01*
X277544Y221076D01*
X277487Y221171D01*
X277434Y221267D01*
X277383Y221366D01*
X277336Y221467D01*
X277293Y221569D01*
X277253Y221672D01*
X277217Y221777D01*
X277185Y221883D01*
X277156Y221990D01*
X277131Y222098D01*
X277110Y222207D01*
X277093Y222316D01*
X277079Y222426D01*
X277070Y222537D01*
X277064Y222647D01*
X277062Y222758D01*
X277062Y225933D01*
X277064Y226073D01*
X277070Y226213D01*
X277079Y226353D01*
X277093Y226492D01*
X277110Y226631D01*
X277131Y226769D01*
X277156Y226907D01*
X277185Y227044D01*
X277217Y227180D01*
X277254Y227315D01*
X277294Y227449D01*
X277337Y227582D01*
X277385Y227714D01*
X277435Y227845D01*
X277490Y227974D01*
X277548Y228101D01*
X277609Y228227D01*
X277674Y228351D01*
X277743Y228473D01*
X277814Y228593D01*
X277889Y228711D01*
X277967Y228828D01*
X278049Y228942D01*
X278133Y229053D01*
X278221Y229162D01*
X278311Y229269D01*
X278405Y229374D01*
X278501Y229475D01*
X278600Y229574D01*
X278701Y229670D01*
X278806Y229764D01*
X278913Y229854D01*
X279022Y229942D01*
X279133Y230026D01*
X279247Y230108D01*
X279364Y230186D01*
X279482Y230261D01*
X279602Y230332D01*
X279724Y230401D01*
X279848Y230466D01*
X279974Y230527D01*
X280101Y230585D01*
X280230Y230640D01*
X280361Y230690D01*
X280493Y230738D01*
X280626Y230781D01*
X280760Y230821D01*
X280895Y230858D01*
X281031Y230890D01*
X281168Y230919D01*
X281306Y230944D01*
X281444Y230965D01*
X281583Y230982D01*
X281722Y230996D01*
X281862Y231005D01*
X282002Y231011D01*
X282142Y231013D01*
D11*
X321310Y213360D02*
X334010Y213360D01*
X340360Y207010D01*
X340360Y194310D01*
X334010Y187960D01*
X314960Y194310D02*
X314960Y207010D01*
X321310Y213360D01*
X314960Y194310D02*
X321310Y187960D01*
X334010Y187960D01*
D12*
X318643Y222123D02*
X318643Y231013D01*
X318643Y222123D02*
X318641Y222023D01*
X318635Y221924D01*
X318625Y221824D01*
X318612Y221726D01*
X318594Y221627D01*
X318573Y221530D01*
X318548Y221434D01*
X318519Y221338D01*
X318486Y221244D01*
X318450Y221151D01*
X318410Y221060D01*
X318366Y220970D01*
X318319Y220882D01*
X318269Y220796D01*
X318215Y220712D01*
X318158Y220630D01*
X318098Y220551D01*
X318034Y220473D01*
X317968Y220399D01*
X317899Y220327D01*
X317827Y220258D01*
X317753Y220192D01*
X317675Y220128D01*
X317596Y220068D01*
X317514Y220011D01*
X317430Y219957D01*
X317344Y219907D01*
X317256Y219860D01*
X317166Y219816D01*
X317075Y219776D01*
X316982Y219740D01*
X316888Y219707D01*
X316792Y219678D01*
X316696Y219653D01*
X316599Y219632D01*
X316500Y219614D01*
X316402Y219601D01*
X316302Y219591D01*
X316203Y219585D01*
X316103Y219583D01*
X314833Y219583D01*
X324623Y219583D02*
X324623Y231013D01*
X327798Y231013D01*
X327909Y231011D01*
X328019Y231005D01*
X328130Y230996D01*
X328240Y230982D01*
X328349Y230965D01*
X328458Y230944D01*
X328566Y230919D01*
X328673Y230890D01*
X328779Y230858D01*
X328884Y230822D01*
X328987Y230782D01*
X329089Y230739D01*
X329190Y230692D01*
X329289Y230641D01*
X329386Y230588D01*
X329480Y230531D01*
X329573Y230470D01*
X329664Y230407D01*
X329753Y230340D01*
X329839Y230270D01*
X329922Y230197D01*
X330004Y230122D01*
X330082Y230044D01*
X330157Y229962D01*
X330230Y229879D01*
X330300Y229793D01*
X330367Y229704D01*
X330430Y229613D01*
X330491Y229520D01*
X330548Y229425D01*
X330601Y229329D01*
X330652Y229230D01*
X330699Y229129D01*
X330742Y229027D01*
X330782Y228924D01*
X330818Y228819D01*
X330850Y228713D01*
X330879Y228606D01*
X330904Y228498D01*
X330925Y228389D01*
X330942Y228280D01*
X330956Y228170D01*
X330965Y228059D01*
X330971Y227949D01*
X330973Y227838D01*
X330971Y227727D01*
X330965Y227617D01*
X330956Y227506D01*
X330942Y227396D01*
X330925Y227287D01*
X330904Y227178D01*
X330879Y227070D01*
X330850Y226963D01*
X330818Y226857D01*
X330782Y226752D01*
X330742Y226649D01*
X330699Y226547D01*
X330652Y226446D01*
X330601Y226347D01*
X330548Y226250D01*
X330491Y226156D01*
X330430Y226063D01*
X330367Y225972D01*
X330300Y225883D01*
X330230Y225797D01*
X330157Y225714D01*
X330082Y225632D01*
X330004Y225554D01*
X329922Y225479D01*
X329839Y225406D01*
X329753Y225336D01*
X329664Y225269D01*
X329573Y225206D01*
X329480Y225145D01*
X329386Y225088D01*
X329289Y225035D01*
X329190Y224984D01*
X329089Y224937D01*
X328987Y224894D01*
X328884Y224854D01*
X328779Y224818D01*
X328673Y224786D01*
X328566Y224757D01*
X328458Y224732D01*
X328349Y224711D01*
X328240Y224694D01*
X328130Y224680D01*
X328019Y224671D01*
X327909Y224665D01*
X327798Y224663D01*
X324623Y224663D01*
X335482Y229743D02*
X335482Y231013D01*
X341832Y231013D01*
X338657Y219583D01*
D11*
X374650Y213360D02*
X387350Y213360D01*
X393700Y207010D01*
X393700Y194310D01*
X387350Y187960D01*
X368300Y194310D02*
X368300Y207010D01*
X374650Y213360D01*
X368300Y194310D02*
X374650Y187960D01*
X387350Y187960D01*
D12*
X371983Y222123D02*
X371983Y231013D01*
X371983Y222123D02*
X371981Y222023D01*
X371975Y221924D01*
X371965Y221824D01*
X371952Y221726D01*
X371934Y221627D01*
X371913Y221530D01*
X371888Y221434D01*
X371859Y221338D01*
X371826Y221244D01*
X371790Y221151D01*
X371750Y221060D01*
X371706Y220970D01*
X371659Y220882D01*
X371609Y220796D01*
X371555Y220712D01*
X371498Y220630D01*
X371438Y220551D01*
X371374Y220473D01*
X371308Y220399D01*
X371239Y220327D01*
X371167Y220258D01*
X371093Y220192D01*
X371015Y220128D01*
X370936Y220068D01*
X370854Y220011D01*
X370770Y219957D01*
X370684Y219907D01*
X370596Y219860D01*
X370506Y219816D01*
X370415Y219776D01*
X370322Y219740D01*
X370228Y219707D01*
X370132Y219678D01*
X370036Y219653D01*
X369939Y219632D01*
X369840Y219614D01*
X369742Y219601D01*
X369642Y219591D01*
X369543Y219585D01*
X369443Y219583D01*
X368173Y219583D01*
X377963Y219583D02*
X377963Y231013D01*
X381138Y231013D01*
X381249Y231011D01*
X381359Y231005D01*
X381470Y230996D01*
X381580Y230982D01*
X381689Y230965D01*
X381798Y230944D01*
X381906Y230919D01*
X382013Y230890D01*
X382119Y230858D01*
X382224Y230822D01*
X382327Y230782D01*
X382429Y230739D01*
X382530Y230692D01*
X382629Y230641D01*
X382726Y230588D01*
X382820Y230531D01*
X382913Y230470D01*
X383004Y230407D01*
X383093Y230340D01*
X383179Y230270D01*
X383262Y230197D01*
X383344Y230122D01*
X383422Y230044D01*
X383497Y229962D01*
X383570Y229879D01*
X383640Y229793D01*
X383707Y229704D01*
X383770Y229613D01*
X383831Y229520D01*
X383888Y229425D01*
X383941Y229329D01*
X383992Y229230D01*
X384039Y229129D01*
X384082Y229027D01*
X384122Y228924D01*
X384158Y228819D01*
X384190Y228713D01*
X384219Y228606D01*
X384244Y228498D01*
X384265Y228389D01*
X384282Y228280D01*
X384296Y228170D01*
X384305Y228059D01*
X384311Y227949D01*
X384313Y227838D01*
X384311Y227727D01*
X384305Y227617D01*
X384296Y227506D01*
X384282Y227396D01*
X384265Y227287D01*
X384244Y227178D01*
X384219Y227070D01*
X384190Y226963D01*
X384158Y226857D01*
X384122Y226752D01*
X384082Y226649D01*
X384039Y226547D01*
X383992Y226446D01*
X383941Y226347D01*
X383888Y226250D01*
X383831Y226156D01*
X383770Y226063D01*
X383707Y225972D01*
X383640Y225883D01*
X383570Y225797D01*
X383497Y225714D01*
X383422Y225632D01*
X383344Y225554D01*
X383262Y225479D01*
X383179Y225406D01*
X383093Y225336D01*
X383004Y225269D01*
X382913Y225206D01*
X382820Y225145D01*
X382726Y225088D01*
X382629Y225035D01*
X382530Y224984D01*
X382429Y224937D01*
X382327Y224894D01*
X382224Y224854D01*
X382119Y224818D01*
X382013Y224786D01*
X381906Y224757D01*
X381798Y224732D01*
X381689Y224711D01*
X381580Y224694D01*
X381470Y224680D01*
X381359Y224671D01*
X381249Y224665D01*
X381138Y224663D01*
X377963Y224663D01*
X388822Y222758D02*
X388824Y222869D01*
X388830Y222979D01*
X388839Y223090D01*
X388853Y223200D01*
X388870Y223309D01*
X388891Y223418D01*
X388916Y223526D01*
X388945Y223633D01*
X388977Y223739D01*
X389013Y223844D01*
X389053Y223947D01*
X389096Y224049D01*
X389143Y224150D01*
X389194Y224249D01*
X389247Y224346D01*
X389304Y224440D01*
X389365Y224533D01*
X389428Y224624D01*
X389495Y224713D01*
X389565Y224799D01*
X389638Y224882D01*
X389713Y224964D01*
X389791Y225042D01*
X389873Y225117D01*
X389956Y225190D01*
X390042Y225260D01*
X390131Y225327D01*
X390222Y225390D01*
X390315Y225451D01*
X390410Y225508D01*
X390506Y225561D01*
X390605Y225612D01*
X390706Y225659D01*
X390808Y225702D01*
X390911Y225742D01*
X391016Y225778D01*
X391122Y225810D01*
X391229Y225839D01*
X391337Y225864D01*
X391446Y225885D01*
X391555Y225902D01*
X391665Y225916D01*
X391776Y225925D01*
X391886Y225931D01*
X391997Y225933D01*
X392108Y225931D01*
X392218Y225925D01*
X392329Y225916D01*
X392439Y225902D01*
X392548Y225885D01*
X392657Y225864D01*
X392765Y225839D01*
X392872Y225810D01*
X392978Y225778D01*
X393083Y225742D01*
X393186Y225702D01*
X393288Y225659D01*
X393389Y225612D01*
X393488Y225561D01*
X393585Y225508D01*
X393679Y225451D01*
X393772Y225390D01*
X393863Y225327D01*
X393952Y225260D01*
X394038Y225190D01*
X394121Y225117D01*
X394203Y225042D01*
X394281Y224964D01*
X394356Y224882D01*
X394429Y224799D01*
X394499Y224713D01*
X394566Y224624D01*
X394629Y224533D01*
X394690Y224440D01*
X394747Y224346D01*
X394800Y224249D01*
X394851Y224150D01*
X394898Y224049D01*
X394941Y223947D01*
X394981Y223844D01*
X395017Y223739D01*
X395049Y223633D01*
X395078Y223526D01*
X395103Y223418D01*
X395124Y223309D01*
X395141Y223200D01*
X395155Y223090D01*
X395164Y222979D01*
X395170Y222869D01*
X395172Y222758D01*
X395170Y222647D01*
X395164Y222537D01*
X395155Y222426D01*
X395141Y222316D01*
X395124Y222207D01*
X395103Y222098D01*
X395078Y221990D01*
X395049Y221883D01*
X395017Y221777D01*
X394981Y221672D01*
X394941Y221569D01*
X394898Y221467D01*
X394851Y221366D01*
X394800Y221267D01*
X394747Y221170D01*
X394690Y221076D01*
X394629Y220983D01*
X394566Y220892D01*
X394499Y220803D01*
X394429Y220717D01*
X394356Y220634D01*
X394281Y220552D01*
X394203Y220474D01*
X394121Y220399D01*
X394038Y220326D01*
X393952Y220256D01*
X393863Y220189D01*
X393772Y220126D01*
X393679Y220065D01*
X393584Y220008D01*
X393488Y219955D01*
X393389Y219904D01*
X393288Y219857D01*
X393186Y219814D01*
X393083Y219774D01*
X392978Y219738D01*
X392872Y219706D01*
X392765Y219677D01*
X392657Y219652D01*
X392548Y219631D01*
X392439Y219614D01*
X392329Y219600D01*
X392218Y219591D01*
X392108Y219585D01*
X391997Y219583D01*
X391886Y219585D01*
X391776Y219591D01*
X391665Y219600D01*
X391555Y219614D01*
X391446Y219631D01*
X391337Y219652D01*
X391229Y219677D01*
X391122Y219706D01*
X391016Y219738D01*
X390911Y219774D01*
X390808Y219814D01*
X390706Y219857D01*
X390605Y219904D01*
X390506Y219955D01*
X390410Y220008D01*
X390315Y220065D01*
X390222Y220126D01*
X390131Y220189D01*
X390042Y220256D01*
X389956Y220326D01*
X389873Y220399D01*
X389791Y220474D01*
X389713Y220552D01*
X389638Y220634D01*
X389565Y220717D01*
X389495Y220803D01*
X389428Y220892D01*
X389365Y220983D01*
X389304Y221076D01*
X389247Y221171D01*
X389194Y221267D01*
X389143Y221366D01*
X389096Y221467D01*
X389053Y221569D01*
X389013Y221672D01*
X388977Y221777D01*
X388945Y221883D01*
X388916Y221990D01*
X388891Y222098D01*
X388870Y222207D01*
X388853Y222316D01*
X388839Y222426D01*
X388830Y222537D01*
X388824Y222647D01*
X388822Y222758D01*
X389457Y228473D02*
X389459Y228573D01*
X389465Y228672D01*
X389475Y228772D01*
X389488Y228870D01*
X389506Y228969D01*
X389527Y229066D01*
X389552Y229162D01*
X389581Y229258D01*
X389614Y229352D01*
X389650Y229445D01*
X389690Y229536D01*
X389734Y229626D01*
X389781Y229714D01*
X389831Y229800D01*
X389885Y229884D01*
X389942Y229966D01*
X390002Y230045D01*
X390066Y230123D01*
X390132Y230197D01*
X390201Y230269D01*
X390273Y230338D01*
X390347Y230404D01*
X390425Y230468D01*
X390504Y230528D01*
X390586Y230585D01*
X390670Y230639D01*
X390756Y230689D01*
X390844Y230736D01*
X390934Y230780D01*
X391025Y230820D01*
X391118Y230856D01*
X391212Y230889D01*
X391308Y230918D01*
X391404Y230943D01*
X391501Y230964D01*
X391600Y230982D01*
X391698Y230995D01*
X391798Y231005D01*
X391897Y231011D01*
X391997Y231013D01*
X392097Y231011D01*
X392196Y231005D01*
X392296Y230995D01*
X392394Y230982D01*
X392493Y230964D01*
X392590Y230943D01*
X392686Y230918D01*
X392782Y230889D01*
X392876Y230856D01*
X392969Y230820D01*
X393060Y230780D01*
X393150Y230736D01*
X393238Y230689D01*
X393324Y230639D01*
X393408Y230585D01*
X393490Y230528D01*
X393569Y230468D01*
X393647Y230404D01*
X393721Y230338D01*
X393793Y230269D01*
X393862Y230197D01*
X393928Y230123D01*
X393992Y230045D01*
X394052Y229966D01*
X394109Y229884D01*
X394163Y229800D01*
X394213Y229714D01*
X394260Y229626D01*
X394304Y229536D01*
X394344Y229445D01*
X394380Y229352D01*
X394413Y229258D01*
X394442Y229162D01*
X394467Y229066D01*
X394488Y228969D01*
X394506Y228870D01*
X394519Y228772D01*
X394529Y228672D01*
X394535Y228573D01*
X394537Y228473D01*
X394535Y228373D01*
X394529Y228274D01*
X394519Y228174D01*
X394506Y228076D01*
X394488Y227977D01*
X394467Y227880D01*
X394442Y227784D01*
X394413Y227688D01*
X394380Y227594D01*
X394344Y227501D01*
X394304Y227410D01*
X394260Y227320D01*
X394213Y227232D01*
X394163Y227146D01*
X394109Y227062D01*
X394052Y226980D01*
X393992Y226901D01*
X393928Y226823D01*
X393862Y226749D01*
X393793Y226677D01*
X393721Y226608D01*
X393647Y226542D01*
X393569Y226478D01*
X393490Y226418D01*
X393408Y226361D01*
X393324Y226307D01*
X393238Y226257D01*
X393150Y226210D01*
X393060Y226166D01*
X392969Y226126D01*
X392876Y226090D01*
X392782Y226057D01*
X392686Y226028D01*
X392590Y226003D01*
X392493Y225982D01*
X392394Y225964D01*
X392296Y225951D01*
X392196Y225941D01*
X392097Y225935D01*
X391997Y225933D01*
X391897Y225935D01*
X391798Y225941D01*
X391698Y225951D01*
X391600Y225964D01*
X391501Y225982D01*
X391404Y226003D01*
X391308Y226028D01*
X391212Y226057D01*
X391118Y226090D01*
X391025Y226126D01*
X390934Y226166D01*
X390844Y226210D01*
X390756Y226257D01*
X390670Y226307D01*
X390586Y226361D01*
X390504Y226418D01*
X390425Y226478D01*
X390347Y226542D01*
X390273Y226608D01*
X390201Y226677D01*
X390132Y226749D01*
X390066Y226823D01*
X390002Y226901D01*
X389942Y226980D01*
X389885Y227062D01*
X389831Y227146D01*
X389781Y227232D01*
X389734Y227320D01*
X389690Y227410D01*
X389650Y227501D01*
X389614Y227594D01*
X389581Y227688D01*
X389552Y227784D01*
X389527Y227880D01*
X389506Y227977D01*
X389488Y228076D01*
X389475Y228174D01*
X389465Y228274D01*
X389459Y228373D01*
X389457Y228473D01*
D11*
X130810Y241300D02*
X118110Y241300D01*
X130810Y241300D02*
X137160Y234950D01*
X137160Y222250D01*
X130810Y215900D01*
X92710Y241300D02*
X86360Y234950D01*
X92710Y241300D02*
X105410Y241300D01*
X111760Y234950D01*
X111760Y222250D01*
X105410Y215900D01*
X92710Y215900D01*
X86360Y222250D01*
X111760Y234950D02*
X118110Y241300D01*
X111760Y222250D02*
X118110Y215900D01*
X130810Y215900D01*
X54610Y241300D02*
X41910Y241300D01*
X54610Y241300D02*
X60960Y234950D01*
X60960Y222250D01*
X54610Y215900D01*
X60960Y234950D02*
X67310Y241300D01*
X80010Y241300D01*
X86360Y234950D01*
X86360Y222250D01*
X80010Y215900D01*
X67310Y215900D01*
X60960Y222250D01*
X35560Y222250D02*
X35560Y234950D01*
X41910Y241300D01*
X35560Y222250D02*
X41910Y215900D01*
X54610Y215900D01*
X143510Y241300D02*
X156210Y241300D01*
X162560Y234950D01*
X162560Y222250D01*
X156210Y215900D01*
X137160Y234950D02*
X143510Y241300D01*
X137160Y222250D02*
X143510Y215900D01*
X156210Y215900D01*
D12*
X35433Y250698D02*
X35433Y255778D01*
X35435Y255889D01*
X35441Y255999D01*
X35450Y256110D01*
X35464Y256220D01*
X35481Y256329D01*
X35502Y256438D01*
X35527Y256546D01*
X35556Y256653D01*
X35588Y256759D01*
X35624Y256864D01*
X35664Y256967D01*
X35707Y257069D01*
X35754Y257170D01*
X35805Y257269D01*
X35858Y257366D01*
X35915Y257460D01*
X35976Y257553D01*
X36039Y257644D01*
X36106Y257733D01*
X36176Y257819D01*
X36249Y257902D01*
X36324Y257984D01*
X36402Y258062D01*
X36484Y258137D01*
X36567Y258210D01*
X36653Y258280D01*
X36742Y258347D01*
X36833Y258410D01*
X36926Y258471D01*
X37020Y258528D01*
X37117Y258581D01*
X37216Y258632D01*
X37317Y258679D01*
X37419Y258722D01*
X37522Y258762D01*
X37627Y258798D01*
X37733Y258830D01*
X37840Y258859D01*
X37948Y258884D01*
X38057Y258905D01*
X38166Y258922D01*
X38276Y258936D01*
X38387Y258945D01*
X38497Y258951D01*
X38608Y258953D01*
X38719Y258951D01*
X38829Y258945D01*
X38940Y258936D01*
X39050Y258922D01*
X39159Y258905D01*
X39268Y258884D01*
X39376Y258859D01*
X39483Y258830D01*
X39589Y258798D01*
X39694Y258762D01*
X39797Y258722D01*
X39899Y258679D01*
X40000Y258632D01*
X40099Y258581D01*
X40196Y258528D01*
X40290Y258471D01*
X40383Y258410D01*
X40474Y258347D01*
X40563Y258280D01*
X40649Y258210D01*
X40732Y258137D01*
X40814Y258062D01*
X40892Y257984D01*
X40967Y257902D01*
X41040Y257819D01*
X41110Y257733D01*
X41177Y257644D01*
X41240Y257553D01*
X41301Y257460D01*
X41358Y257366D01*
X41411Y257269D01*
X41462Y257170D01*
X41509Y257069D01*
X41552Y256967D01*
X41592Y256864D01*
X41628Y256759D01*
X41660Y256653D01*
X41689Y256546D01*
X41714Y256438D01*
X41735Y256329D01*
X41752Y256220D01*
X41766Y256110D01*
X41775Y255999D01*
X41781Y255889D01*
X41783Y255778D01*
X41783Y250698D01*
X41781Y250587D01*
X41775Y250477D01*
X41766Y250366D01*
X41752Y250256D01*
X41735Y250147D01*
X41714Y250038D01*
X41689Y249930D01*
X41660Y249823D01*
X41628Y249717D01*
X41592Y249612D01*
X41552Y249509D01*
X41509Y249407D01*
X41462Y249306D01*
X41411Y249207D01*
X41358Y249110D01*
X41301Y249016D01*
X41240Y248923D01*
X41177Y248832D01*
X41110Y248743D01*
X41040Y248657D01*
X40967Y248574D01*
X40892Y248492D01*
X40814Y248414D01*
X40732Y248339D01*
X40649Y248266D01*
X40563Y248196D01*
X40474Y248129D01*
X40383Y248066D01*
X40290Y248005D01*
X40195Y247948D01*
X40099Y247895D01*
X40000Y247844D01*
X39899Y247797D01*
X39797Y247754D01*
X39694Y247714D01*
X39589Y247678D01*
X39483Y247646D01*
X39376Y247617D01*
X39268Y247592D01*
X39159Y247571D01*
X39050Y247554D01*
X38940Y247540D01*
X38829Y247531D01*
X38719Y247525D01*
X38608Y247523D01*
X38497Y247525D01*
X38387Y247531D01*
X38276Y247540D01*
X38166Y247554D01*
X38057Y247571D01*
X37948Y247592D01*
X37840Y247617D01*
X37733Y247646D01*
X37627Y247678D01*
X37522Y247714D01*
X37419Y247754D01*
X37317Y247797D01*
X37216Y247844D01*
X37117Y247895D01*
X37021Y247948D01*
X36926Y248005D01*
X36833Y248066D01*
X36742Y248129D01*
X36653Y248196D01*
X36567Y248266D01*
X36484Y248339D01*
X36402Y248414D01*
X36324Y248492D01*
X36249Y248574D01*
X36176Y248657D01*
X36106Y248743D01*
X36039Y248832D01*
X35976Y248923D01*
X35915Y249016D01*
X35858Y249111D01*
X35805Y249207D01*
X35754Y249306D01*
X35707Y249407D01*
X35664Y249509D01*
X35624Y249612D01*
X35588Y249717D01*
X35556Y249823D01*
X35527Y249930D01*
X35502Y250038D01*
X35481Y250147D01*
X35464Y250256D01*
X35450Y250366D01*
X35441Y250477D01*
X35435Y250587D01*
X35433Y250698D01*
X47244Y250698D02*
X47244Y258953D01*
X47244Y250698D02*
X47246Y250587D01*
X47252Y250477D01*
X47261Y250366D01*
X47275Y250256D01*
X47292Y250147D01*
X47313Y250038D01*
X47338Y249930D01*
X47367Y249823D01*
X47399Y249717D01*
X47435Y249612D01*
X47475Y249509D01*
X47518Y249407D01*
X47565Y249306D01*
X47616Y249207D01*
X47669Y249111D01*
X47726Y249016D01*
X47787Y248923D01*
X47850Y248832D01*
X47917Y248743D01*
X47987Y248657D01*
X48060Y248574D01*
X48135Y248492D01*
X48213Y248414D01*
X48295Y248339D01*
X48378Y248266D01*
X48464Y248196D01*
X48553Y248129D01*
X48644Y248066D01*
X48737Y248005D01*
X48832Y247948D01*
X48928Y247895D01*
X49027Y247844D01*
X49128Y247797D01*
X49230Y247754D01*
X49333Y247714D01*
X49438Y247678D01*
X49544Y247646D01*
X49651Y247617D01*
X49759Y247592D01*
X49868Y247571D01*
X49977Y247554D01*
X50087Y247540D01*
X50198Y247531D01*
X50308Y247525D01*
X50419Y247523D01*
X50530Y247525D01*
X50640Y247531D01*
X50751Y247540D01*
X50861Y247554D01*
X50970Y247571D01*
X51079Y247592D01*
X51187Y247617D01*
X51294Y247646D01*
X51400Y247678D01*
X51505Y247714D01*
X51608Y247754D01*
X51710Y247797D01*
X51811Y247844D01*
X51910Y247895D01*
X52006Y247948D01*
X52101Y248005D01*
X52194Y248066D01*
X52285Y248129D01*
X52374Y248196D01*
X52460Y248266D01*
X52543Y248339D01*
X52625Y248414D01*
X52703Y248492D01*
X52778Y248574D01*
X52851Y248657D01*
X52921Y248743D01*
X52988Y248832D01*
X53051Y248923D01*
X53112Y249016D01*
X53169Y249110D01*
X53222Y249207D01*
X53273Y249306D01*
X53320Y249407D01*
X53363Y249509D01*
X53403Y249612D01*
X53439Y249717D01*
X53471Y249823D01*
X53500Y249930D01*
X53525Y250038D01*
X53546Y250147D01*
X53563Y250256D01*
X53577Y250366D01*
X53586Y250477D01*
X53592Y250587D01*
X53594Y250698D01*
X53594Y258953D01*
X61468Y258953D02*
X61468Y247523D01*
X58293Y258953D02*
X64643Y258953D01*
X68453Y246253D02*
X73533Y246253D01*
X78511Y247523D02*
X78511Y258953D01*
X83591Y258953D01*
X83591Y253873D02*
X78511Y253873D01*
X88011Y255778D02*
X88011Y250698D01*
X88011Y255778D02*
X88013Y255889D01*
X88019Y255999D01*
X88028Y256110D01*
X88042Y256220D01*
X88059Y256329D01*
X88080Y256438D01*
X88105Y256546D01*
X88134Y256653D01*
X88166Y256759D01*
X88202Y256864D01*
X88242Y256967D01*
X88285Y257069D01*
X88332Y257170D01*
X88383Y257269D01*
X88436Y257366D01*
X88493Y257460D01*
X88554Y257553D01*
X88617Y257644D01*
X88684Y257733D01*
X88754Y257819D01*
X88827Y257902D01*
X88902Y257984D01*
X88980Y258062D01*
X89062Y258137D01*
X89145Y258210D01*
X89231Y258280D01*
X89320Y258347D01*
X89411Y258410D01*
X89504Y258471D01*
X89599Y258528D01*
X89695Y258581D01*
X89794Y258632D01*
X89895Y258679D01*
X89997Y258722D01*
X90100Y258762D01*
X90205Y258798D01*
X90311Y258830D01*
X90418Y258859D01*
X90526Y258884D01*
X90635Y258905D01*
X90744Y258922D01*
X90854Y258936D01*
X90965Y258945D01*
X91075Y258951D01*
X91186Y258953D01*
X91297Y258951D01*
X91407Y258945D01*
X91518Y258936D01*
X91628Y258922D01*
X91737Y258905D01*
X91846Y258884D01*
X91954Y258859D01*
X92061Y258830D01*
X92167Y258798D01*
X92272Y258762D01*
X92375Y258722D01*
X92477Y258679D01*
X92578Y258632D01*
X92677Y258581D01*
X92774Y258528D01*
X92868Y258471D01*
X92961Y258410D01*
X93052Y258347D01*
X93141Y258280D01*
X93227Y258210D01*
X93310Y258137D01*
X93392Y258062D01*
X93470Y257984D01*
X93545Y257902D01*
X93618Y257819D01*
X93688Y257733D01*
X93755Y257644D01*
X93818Y257553D01*
X93879Y257460D01*
X93936Y257366D01*
X93989Y257269D01*
X94040Y257170D01*
X94087Y257069D01*
X94130Y256967D01*
X94170Y256864D01*
X94206Y256759D01*
X94238Y256653D01*
X94267Y256546D01*
X94292Y256438D01*
X94313Y256329D01*
X94330Y256220D01*
X94344Y256110D01*
X94353Y255999D01*
X94359Y255889D01*
X94361Y255778D01*
X94361Y250698D01*
X94359Y250587D01*
X94353Y250477D01*
X94344Y250366D01*
X94330Y250256D01*
X94313Y250147D01*
X94292Y250038D01*
X94267Y249930D01*
X94238Y249823D01*
X94206Y249717D01*
X94170Y249612D01*
X94130Y249509D01*
X94087Y249407D01*
X94040Y249306D01*
X93989Y249207D01*
X93936Y249110D01*
X93879Y249016D01*
X93818Y248923D01*
X93755Y248832D01*
X93688Y248743D01*
X93618Y248657D01*
X93545Y248574D01*
X93470Y248492D01*
X93392Y248414D01*
X93310Y248339D01*
X93227Y248266D01*
X93141Y248196D01*
X93052Y248129D01*
X92961Y248066D01*
X92868Y248005D01*
X92773Y247948D01*
X92677Y247895D01*
X92578Y247844D01*
X92477Y247797D01*
X92375Y247754D01*
X92272Y247714D01*
X92167Y247678D01*
X92061Y247646D01*
X91954Y247617D01*
X91846Y247592D01*
X91737Y247571D01*
X91628Y247554D01*
X91518Y247540D01*
X91407Y247531D01*
X91297Y247525D01*
X91186Y247523D01*
X91075Y247525D01*
X90965Y247531D01*
X90854Y247540D01*
X90744Y247554D01*
X90635Y247571D01*
X90526Y247592D01*
X90418Y247617D01*
X90311Y247646D01*
X90205Y247678D01*
X90100Y247714D01*
X89997Y247754D01*
X89895Y247797D01*
X89794Y247844D01*
X89695Y247895D01*
X89599Y247948D01*
X89504Y248005D01*
X89411Y248066D01*
X89320Y248129D01*
X89231Y248196D01*
X89145Y248266D01*
X89062Y248339D01*
X88980Y248414D01*
X88902Y248492D01*
X88827Y248574D01*
X88754Y248657D01*
X88684Y248743D01*
X88617Y248832D01*
X88554Y248923D01*
X88493Y249016D01*
X88436Y249111D01*
X88383Y249207D01*
X88332Y249306D01*
X88285Y249407D01*
X88242Y249509D01*
X88202Y249612D01*
X88166Y249717D01*
X88134Y249823D01*
X88105Y249930D01*
X88080Y250038D01*
X88059Y250147D01*
X88042Y250256D01*
X88028Y250366D01*
X88019Y250477D01*
X88013Y250587D01*
X88011Y250698D01*
X99905Y247523D02*
X99905Y258953D01*
X103080Y258953D01*
X103191Y258951D01*
X103301Y258945D01*
X103412Y258936D01*
X103522Y258922D01*
X103631Y258905D01*
X103740Y258884D01*
X103848Y258859D01*
X103955Y258830D01*
X104061Y258798D01*
X104166Y258762D01*
X104269Y258722D01*
X104371Y258679D01*
X104472Y258632D01*
X104571Y258581D01*
X104668Y258528D01*
X104762Y258471D01*
X104855Y258410D01*
X104946Y258347D01*
X105035Y258280D01*
X105121Y258210D01*
X105204Y258137D01*
X105286Y258062D01*
X105364Y257984D01*
X105439Y257902D01*
X105512Y257819D01*
X105582Y257733D01*
X105649Y257644D01*
X105712Y257553D01*
X105773Y257460D01*
X105830Y257365D01*
X105883Y257269D01*
X105934Y257170D01*
X105981Y257069D01*
X106024Y256967D01*
X106064Y256864D01*
X106100Y256759D01*
X106132Y256653D01*
X106161Y256546D01*
X106186Y256438D01*
X106207Y256329D01*
X106224Y256220D01*
X106238Y256110D01*
X106247Y255999D01*
X106253Y255889D01*
X106255Y255778D01*
X106253Y255667D01*
X106247Y255557D01*
X106238Y255446D01*
X106224Y255336D01*
X106207Y255227D01*
X106186Y255118D01*
X106161Y255010D01*
X106132Y254903D01*
X106100Y254797D01*
X106064Y254692D01*
X106024Y254589D01*
X105981Y254487D01*
X105934Y254386D01*
X105883Y254287D01*
X105830Y254190D01*
X105773Y254096D01*
X105712Y254003D01*
X105649Y253912D01*
X105582Y253823D01*
X105512Y253737D01*
X105439Y253654D01*
X105364Y253572D01*
X105286Y253494D01*
X105204Y253419D01*
X105121Y253346D01*
X105035Y253276D01*
X104946Y253209D01*
X104855Y253146D01*
X104762Y253085D01*
X104667Y253028D01*
X104571Y252975D01*
X104472Y252924D01*
X104371Y252877D01*
X104269Y252834D01*
X104166Y252794D01*
X104061Y252758D01*
X103955Y252726D01*
X103848Y252697D01*
X103740Y252672D01*
X103631Y252651D01*
X103522Y252634D01*
X103412Y252620D01*
X103301Y252611D01*
X103191Y252605D01*
X103080Y252603D01*
X99905Y252603D01*
X103715Y252603D02*
X106255Y247523D01*
X113755Y247523D02*
X116295Y247523D01*
X113755Y247523D02*
X113655Y247525D01*
X113556Y247531D01*
X113456Y247541D01*
X113358Y247554D01*
X113259Y247572D01*
X113162Y247593D01*
X113066Y247618D01*
X112970Y247647D01*
X112876Y247680D01*
X112783Y247716D01*
X112692Y247756D01*
X112602Y247800D01*
X112514Y247847D01*
X112428Y247897D01*
X112344Y247951D01*
X112262Y248008D01*
X112183Y248068D01*
X112105Y248132D01*
X112031Y248198D01*
X111959Y248267D01*
X111890Y248339D01*
X111824Y248413D01*
X111760Y248491D01*
X111700Y248570D01*
X111643Y248652D01*
X111589Y248736D01*
X111539Y248822D01*
X111492Y248910D01*
X111448Y249000D01*
X111408Y249091D01*
X111372Y249184D01*
X111339Y249278D01*
X111310Y249374D01*
X111285Y249470D01*
X111264Y249567D01*
X111246Y249666D01*
X111233Y249764D01*
X111223Y249864D01*
X111217Y249963D01*
X111215Y250063D01*
X111215Y256413D01*
X111217Y256513D01*
X111223Y256612D01*
X111233Y256712D01*
X111246Y256810D01*
X111264Y256909D01*
X111285Y257006D01*
X111310Y257102D01*
X111339Y257198D01*
X111372Y257292D01*
X111408Y257385D01*
X111448Y257476D01*
X111492Y257566D01*
X111539Y257654D01*
X111589Y257740D01*
X111643Y257824D01*
X111700Y257906D01*
X111760Y257985D01*
X111824Y258063D01*
X111890Y258137D01*
X111959Y258209D01*
X112031Y258278D01*
X112105Y258344D01*
X112183Y258408D01*
X112262Y258468D01*
X112344Y258525D01*
X112428Y258579D01*
X112514Y258629D01*
X112602Y258676D01*
X112692Y258720D01*
X112783Y258760D01*
X112876Y258796D01*
X112970Y258829D01*
X113066Y258858D01*
X113162Y258883D01*
X113259Y258904D01*
X113358Y258922D01*
X113456Y258935D01*
X113556Y258945D01*
X113655Y258951D01*
X113755Y258953D01*
X116295Y258953D01*
X121183Y247523D02*
X126263Y247523D01*
X121183Y247523D02*
X121183Y258953D01*
X126263Y258953D01*
X124993Y253873D02*
X121183Y253873D01*
D11*
X40640Y176530D02*
X40640Y163830D01*
X34290Y157480D01*
X21590Y157480D01*
X15240Y163830D01*
X21590Y182880D02*
X34290Y182880D01*
X40640Y176530D01*
X21590Y182880D02*
X15240Y176530D01*
X15240Y163830D01*
X34290Y157480D02*
X40640Y151130D01*
X40640Y138430D01*
X34290Y132080D01*
X21590Y132080D01*
X15240Y138430D01*
X15240Y151130D01*
X21590Y157480D01*
D12*
X55753Y127864D02*
X55853Y127862D01*
X55952Y127856D01*
X56052Y127846D01*
X56150Y127833D01*
X56249Y127815D01*
X56346Y127794D01*
X56442Y127769D01*
X56538Y127740D01*
X56632Y127707D01*
X56725Y127671D01*
X56816Y127631D01*
X56906Y127587D01*
X56994Y127540D01*
X57080Y127490D01*
X57164Y127436D01*
X57246Y127379D01*
X57325Y127319D01*
X57403Y127255D01*
X57477Y127189D01*
X57549Y127120D01*
X57618Y127048D01*
X57684Y126974D01*
X57748Y126896D01*
X57808Y126817D01*
X57865Y126735D01*
X57919Y126651D01*
X57969Y126565D01*
X58016Y126477D01*
X58060Y126387D01*
X58100Y126296D01*
X58136Y126203D01*
X58169Y126109D01*
X58198Y126013D01*
X58223Y125917D01*
X58244Y125820D01*
X58262Y125721D01*
X58275Y125623D01*
X58285Y125523D01*
X58291Y125424D01*
X58293Y125324D01*
X58291Y125183D01*
X58286Y125042D01*
X58276Y124901D01*
X58263Y124760D01*
X58247Y124620D01*
X58226Y124480D01*
X58202Y124341D01*
X58174Y124202D01*
X58143Y124065D01*
X58108Y123928D01*
X58070Y123792D01*
X58028Y123657D01*
X57982Y123524D01*
X57933Y123391D01*
X57880Y123260D01*
X57824Y123131D01*
X57765Y123002D01*
X57702Y122876D01*
X57636Y122751D01*
X57567Y122628D01*
X57494Y122507D01*
X57418Y122388D01*
X57339Y122270D01*
X57258Y122155D01*
X57173Y122043D01*
X57085Y121932D01*
X56994Y121824D01*
X56901Y121718D01*
X56804Y121615D01*
X56705Y121514D01*
X49403Y121831D02*
X49303Y121833D01*
X49204Y121839D01*
X49104Y121849D01*
X49006Y121862D01*
X48907Y121880D01*
X48810Y121901D01*
X48714Y121926D01*
X48618Y121955D01*
X48524Y121988D01*
X48431Y122024D01*
X48340Y122064D01*
X48250Y122108D01*
X48162Y122155D01*
X48076Y122205D01*
X47992Y122259D01*
X47910Y122316D01*
X47831Y122376D01*
X47753Y122440D01*
X47679Y122506D01*
X47607Y122575D01*
X47538Y122647D01*
X47472Y122721D01*
X47408Y122799D01*
X47348Y122878D01*
X47291Y122960D01*
X47237Y123044D01*
X47187Y123130D01*
X47140Y123218D01*
X47096Y123308D01*
X47056Y123399D01*
X47020Y123492D01*
X46987Y123586D01*
X46958Y123682D01*
X46933Y123778D01*
X46912Y123875D01*
X46894Y123974D01*
X46881Y124072D01*
X46871Y124172D01*
X46865Y124271D01*
X46863Y124371D01*
X46865Y124504D01*
X46870Y124637D01*
X46880Y124770D01*
X46893Y124903D01*
X46910Y125035D01*
X46930Y125167D01*
X46954Y125298D01*
X46982Y125428D01*
X47013Y125558D01*
X47048Y125686D01*
X47087Y125814D01*
X47129Y125940D01*
X47175Y126065D01*
X47224Y126189D01*
X47276Y126312D01*
X47332Y126433D01*
X47392Y126552D01*
X47454Y126670D01*
X47520Y126785D01*
X47589Y126899D01*
X47662Y127011D01*
X47737Y127121D01*
X47816Y127229D01*
X51626Y123101D02*
X51574Y123017D01*
X51519Y122934D01*
X51460Y122854D01*
X51399Y122776D01*
X51335Y122701D01*
X51267Y122628D01*
X51197Y122557D01*
X51125Y122490D01*
X51050Y122425D01*
X50972Y122363D01*
X50892Y122304D01*
X50810Y122248D01*
X50726Y122196D01*
X50640Y122147D01*
X50552Y122101D01*
X50462Y122058D01*
X50371Y122019D01*
X50278Y121984D01*
X50184Y121952D01*
X50089Y121924D01*
X49993Y121899D01*
X49896Y121879D01*
X49798Y121861D01*
X49700Y121848D01*
X49601Y121839D01*
X49502Y121833D01*
X49403Y121831D01*
X53530Y126594D02*
X53582Y126678D01*
X53637Y126761D01*
X53696Y126841D01*
X53757Y126919D01*
X53821Y126994D01*
X53889Y127067D01*
X53959Y127138D01*
X54031Y127205D01*
X54106Y127270D01*
X54184Y127332D01*
X54264Y127391D01*
X54346Y127447D01*
X54430Y127499D01*
X54516Y127548D01*
X54604Y127594D01*
X54694Y127637D01*
X54785Y127676D01*
X54878Y127711D01*
X54972Y127743D01*
X55067Y127771D01*
X55163Y127796D01*
X55260Y127816D01*
X55358Y127834D01*
X55456Y127847D01*
X55555Y127856D01*
X55654Y127862D01*
X55753Y127864D01*
X53531Y126594D02*
X51626Y123101D01*
X50038Y132563D02*
X55118Y132563D01*
X50038Y132563D02*
X49927Y132565D01*
X49817Y132571D01*
X49706Y132580D01*
X49596Y132594D01*
X49487Y132611D01*
X49378Y132632D01*
X49270Y132657D01*
X49163Y132686D01*
X49057Y132718D01*
X48952Y132754D01*
X48849Y132794D01*
X48747Y132837D01*
X48646Y132884D01*
X48547Y132935D01*
X48451Y132988D01*
X48356Y133045D01*
X48263Y133106D01*
X48172Y133169D01*
X48083Y133236D01*
X47997Y133306D01*
X47914Y133379D01*
X47832Y133454D01*
X47754Y133532D01*
X47679Y133614D01*
X47606Y133697D01*
X47536Y133783D01*
X47469Y133872D01*
X47406Y133963D01*
X47345Y134056D01*
X47288Y134151D01*
X47235Y134247D01*
X47184Y134346D01*
X47137Y134447D01*
X47094Y134549D01*
X47054Y134652D01*
X47018Y134757D01*
X46986Y134863D01*
X46957Y134970D01*
X46932Y135078D01*
X46911Y135187D01*
X46894Y135296D01*
X46880Y135406D01*
X46871Y135517D01*
X46865Y135627D01*
X46863Y135738D01*
X46865Y135849D01*
X46871Y135959D01*
X46880Y136070D01*
X46894Y136180D01*
X46911Y136289D01*
X46932Y136398D01*
X46957Y136506D01*
X46986Y136613D01*
X47018Y136719D01*
X47054Y136824D01*
X47094Y136927D01*
X47137Y137029D01*
X47184Y137130D01*
X47235Y137229D01*
X47288Y137326D01*
X47345Y137420D01*
X47406Y137513D01*
X47469Y137604D01*
X47536Y137693D01*
X47606Y137779D01*
X47679Y137862D01*
X47754Y137944D01*
X47832Y138022D01*
X47914Y138097D01*
X47997Y138170D01*
X48083Y138240D01*
X48172Y138307D01*
X48263Y138370D01*
X48356Y138431D01*
X48451Y138488D01*
X48547Y138541D01*
X48646Y138592D01*
X48747Y138639D01*
X48849Y138682D01*
X48952Y138722D01*
X49057Y138758D01*
X49163Y138790D01*
X49270Y138819D01*
X49378Y138844D01*
X49487Y138865D01*
X49596Y138882D01*
X49706Y138896D01*
X49817Y138905D01*
X49927Y138911D01*
X50038Y138913D01*
X55118Y138913D01*
X55229Y138911D01*
X55339Y138905D01*
X55450Y138896D01*
X55560Y138882D01*
X55669Y138865D01*
X55778Y138844D01*
X55886Y138819D01*
X55993Y138790D01*
X56099Y138758D01*
X56204Y138722D01*
X56307Y138682D01*
X56409Y138639D01*
X56510Y138592D01*
X56609Y138541D01*
X56706Y138488D01*
X56800Y138431D01*
X56893Y138370D01*
X56984Y138307D01*
X57073Y138240D01*
X57159Y138170D01*
X57242Y138097D01*
X57324Y138022D01*
X57402Y137944D01*
X57477Y137862D01*
X57550Y137779D01*
X57620Y137693D01*
X57687Y137604D01*
X57750Y137513D01*
X57811Y137420D01*
X57868Y137325D01*
X57921Y137229D01*
X57972Y137130D01*
X58019Y137029D01*
X58062Y136927D01*
X58102Y136824D01*
X58138Y136719D01*
X58170Y136613D01*
X58199Y136506D01*
X58224Y136398D01*
X58245Y136289D01*
X58262Y136180D01*
X58276Y136070D01*
X58285Y135959D01*
X58291Y135849D01*
X58293Y135738D01*
X58291Y135627D01*
X58285Y135517D01*
X58276Y135406D01*
X58262Y135296D01*
X58245Y135187D01*
X58224Y135078D01*
X58199Y134970D01*
X58170Y134863D01*
X58138Y134757D01*
X58102Y134652D01*
X58062Y134549D01*
X58019Y134447D01*
X57972Y134346D01*
X57921Y134247D01*
X57868Y134150D01*
X57811Y134056D01*
X57750Y133963D01*
X57687Y133872D01*
X57620Y133783D01*
X57550Y133697D01*
X57477Y133614D01*
X57402Y133532D01*
X57324Y133454D01*
X57242Y133379D01*
X57159Y133306D01*
X57073Y133236D01*
X56984Y133169D01*
X56893Y133106D01*
X56800Y133045D01*
X56705Y132988D01*
X56609Y132935D01*
X56510Y132884D01*
X56409Y132837D01*
X56307Y132794D01*
X56204Y132754D01*
X56099Y132718D01*
X55993Y132686D01*
X55886Y132657D01*
X55778Y132632D01*
X55669Y132611D01*
X55560Y132594D01*
X55450Y132580D01*
X55339Y132571D01*
X55229Y132565D01*
X55118Y132563D01*
X55118Y144374D02*
X46863Y144374D01*
X55118Y144374D02*
X55229Y144376D01*
X55339Y144382D01*
X55450Y144391D01*
X55560Y144405D01*
X55669Y144422D01*
X55778Y144443D01*
X55886Y144468D01*
X55993Y144497D01*
X56099Y144529D01*
X56204Y144565D01*
X56307Y144605D01*
X56409Y144648D01*
X56510Y144695D01*
X56609Y144746D01*
X56705Y144799D01*
X56800Y144856D01*
X56893Y144917D01*
X56984Y144980D01*
X57073Y145047D01*
X57159Y145117D01*
X57242Y145190D01*
X57324Y145265D01*
X57402Y145343D01*
X57477Y145425D01*
X57550Y145508D01*
X57620Y145594D01*
X57687Y145683D01*
X57750Y145774D01*
X57811Y145867D01*
X57868Y145961D01*
X57921Y146058D01*
X57972Y146157D01*
X58019Y146258D01*
X58062Y146360D01*
X58102Y146463D01*
X58138Y146568D01*
X58170Y146674D01*
X58199Y146781D01*
X58224Y146889D01*
X58245Y146998D01*
X58262Y147107D01*
X58276Y147217D01*
X58285Y147328D01*
X58291Y147438D01*
X58293Y147549D01*
X58291Y147660D01*
X58285Y147770D01*
X58276Y147881D01*
X58262Y147991D01*
X58245Y148100D01*
X58224Y148209D01*
X58199Y148317D01*
X58170Y148424D01*
X58138Y148530D01*
X58102Y148635D01*
X58062Y148738D01*
X58019Y148840D01*
X57972Y148941D01*
X57921Y149040D01*
X57868Y149136D01*
X57811Y149231D01*
X57750Y149324D01*
X57687Y149415D01*
X57620Y149504D01*
X57550Y149590D01*
X57477Y149673D01*
X57402Y149755D01*
X57324Y149833D01*
X57242Y149908D01*
X57159Y149981D01*
X57073Y150051D01*
X56984Y150118D01*
X56893Y150181D01*
X56800Y150242D01*
X56706Y150299D01*
X56609Y150352D01*
X56510Y150403D01*
X56409Y150450D01*
X56307Y150493D01*
X56204Y150533D01*
X56099Y150569D01*
X55993Y150601D01*
X55886Y150630D01*
X55778Y150655D01*
X55669Y150676D01*
X55560Y150693D01*
X55450Y150707D01*
X55339Y150716D01*
X55229Y150722D01*
X55118Y150724D01*
X46863Y150724D01*
X46863Y156649D02*
X58293Y156649D01*
X46863Y156649D02*
X46863Y159824D01*
X46865Y159935D01*
X46871Y160045D01*
X46880Y160156D01*
X46894Y160266D01*
X46911Y160375D01*
X46932Y160484D01*
X46957Y160592D01*
X46986Y160699D01*
X47018Y160805D01*
X47054Y160910D01*
X47094Y161013D01*
X47137Y161115D01*
X47184Y161216D01*
X47235Y161315D01*
X47288Y161412D01*
X47345Y161506D01*
X47406Y161599D01*
X47469Y161690D01*
X47536Y161779D01*
X47606Y161865D01*
X47679Y161948D01*
X47754Y162030D01*
X47832Y162108D01*
X47914Y162183D01*
X47997Y162256D01*
X48083Y162326D01*
X48172Y162393D01*
X48263Y162456D01*
X48356Y162517D01*
X48450Y162574D01*
X48547Y162627D01*
X48646Y162678D01*
X48747Y162725D01*
X48849Y162768D01*
X48952Y162808D01*
X49057Y162844D01*
X49163Y162876D01*
X49270Y162905D01*
X49378Y162930D01*
X49487Y162951D01*
X49596Y162968D01*
X49706Y162982D01*
X49817Y162991D01*
X49927Y162997D01*
X50038Y162999D01*
X50149Y162997D01*
X50259Y162991D01*
X50370Y162982D01*
X50480Y162968D01*
X50589Y162951D01*
X50698Y162930D01*
X50806Y162905D01*
X50913Y162876D01*
X51019Y162844D01*
X51124Y162808D01*
X51227Y162768D01*
X51329Y162725D01*
X51430Y162678D01*
X51529Y162627D01*
X51626Y162574D01*
X51720Y162517D01*
X51813Y162456D01*
X51904Y162393D01*
X51993Y162326D01*
X52079Y162256D01*
X52162Y162183D01*
X52244Y162108D01*
X52322Y162030D01*
X52397Y161948D01*
X52470Y161865D01*
X52540Y161779D01*
X52607Y161690D01*
X52670Y161599D01*
X52731Y161506D01*
X52788Y161412D01*
X52841Y161315D01*
X52892Y161216D01*
X52939Y161115D01*
X52982Y161013D01*
X53022Y160910D01*
X53058Y160805D01*
X53090Y160699D01*
X53119Y160592D01*
X53144Y160484D01*
X53165Y160375D01*
X53182Y160266D01*
X53196Y160156D01*
X53205Y160045D01*
X53211Y159935D01*
X53213Y159824D01*
X53213Y156649D01*
X53213Y160459D02*
X58293Y162999D01*
X58293Y170498D02*
X58293Y173038D01*
X58293Y170498D02*
X58291Y170398D01*
X58285Y170299D01*
X58275Y170199D01*
X58262Y170101D01*
X58244Y170002D01*
X58223Y169905D01*
X58198Y169809D01*
X58169Y169713D01*
X58136Y169619D01*
X58100Y169526D01*
X58060Y169435D01*
X58016Y169345D01*
X57969Y169257D01*
X57919Y169171D01*
X57865Y169087D01*
X57808Y169005D01*
X57748Y168926D01*
X57684Y168848D01*
X57618Y168774D01*
X57549Y168702D01*
X57477Y168633D01*
X57403Y168567D01*
X57325Y168503D01*
X57246Y168443D01*
X57164Y168386D01*
X57080Y168332D01*
X56994Y168282D01*
X56906Y168235D01*
X56816Y168191D01*
X56725Y168151D01*
X56632Y168115D01*
X56538Y168082D01*
X56442Y168053D01*
X56346Y168028D01*
X56249Y168007D01*
X56150Y167989D01*
X56052Y167976D01*
X55952Y167966D01*
X55853Y167960D01*
X55753Y167958D01*
X49403Y167958D01*
X49303Y167960D01*
X49204Y167966D01*
X49104Y167976D01*
X49006Y167989D01*
X48907Y168007D01*
X48810Y168028D01*
X48714Y168053D01*
X48618Y168082D01*
X48524Y168115D01*
X48431Y168151D01*
X48340Y168191D01*
X48250Y168235D01*
X48162Y168282D01*
X48076Y168332D01*
X47992Y168386D01*
X47910Y168443D01*
X47831Y168503D01*
X47753Y168567D01*
X47679Y168633D01*
X47607Y168702D01*
X47538Y168774D01*
X47472Y168848D01*
X47408Y168926D01*
X47348Y169005D01*
X47291Y169087D01*
X47237Y169171D01*
X47187Y169257D01*
X47140Y169345D01*
X47096Y169435D01*
X47056Y169526D01*
X47020Y169619D01*
X46987Y169713D01*
X46958Y169809D01*
X46933Y169905D01*
X46912Y170002D01*
X46894Y170101D01*
X46881Y170199D01*
X46871Y170299D01*
X46865Y170398D01*
X46863Y170498D01*
X46863Y173038D01*
X58293Y177927D02*
X58293Y183007D01*
X58293Y177927D02*
X46863Y177927D01*
X46863Y183007D01*
X51943Y181737D02*
X51943Y177927D01*
D11*
X49530Y38100D02*
X36830Y38100D01*
X49530Y38100D02*
X55880Y31750D01*
X55880Y19050D01*
X49530Y12700D01*
X30480Y19050D02*
X30480Y31750D01*
X36830Y38100D01*
X30480Y19050D02*
X36830Y12700D01*
X49530Y12700D01*
X55880Y31750D02*
X62230Y38100D01*
X74930Y38100D01*
X81280Y31750D01*
X81280Y19050D01*
X74930Y12700D01*
X62230Y12700D01*
X55880Y19050D01*
D12*
X34163Y44323D02*
X34263Y44325D01*
X34362Y44331D01*
X34462Y44341D01*
X34560Y44354D01*
X34659Y44372D01*
X34756Y44393D01*
X34852Y44418D01*
X34948Y44447D01*
X35042Y44480D01*
X35135Y44516D01*
X35226Y44556D01*
X35316Y44600D01*
X35404Y44647D01*
X35490Y44697D01*
X35574Y44751D01*
X35656Y44808D01*
X35735Y44868D01*
X35813Y44932D01*
X35887Y44998D01*
X35959Y45067D01*
X36028Y45139D01*
X36094Y45213D01*
X36158Y45291D01*
X36218Y45370D01*
X36275Y45452D01*
X36329Y45536D01*
X36379Y45622D01*
X36426Y45710D01*
X36470Y45800D01*
X36510Y45891D01*
X36546Y45984D01*
X36579Y46078D01*
X36608Y46174D01*
X36633Y46270D01*
X36654Y46367D01*
X36672Y46466D01*
X36685Y46564D01*
X36695Y46664D01*
X36701Y46763D01*
X36703Y46863D01*
X34163Y44323D02*
X34022Y44325D01*
X33881Y44330D01*
X33740Y44340D01*
X33599Y44353D01*
X33459Y44369D01*
X33319Y44390D01*
X33180Y44414D01*
X33041Y44442D01*
X32904Y44473D01*
X32767Y44508D01*
X32631Y44546D01*
X32496Y44588D01*
X32363Y44634D01*
X32230Y44683D01*
X32099Y44736D01*
X31970Y44792D01*
X31841Y44851D01*
X31715Y44914D01*
X31590Y44980D01*
X31467Y45049D01*
X31346Y45122D01*
X31227Y45198D01*
X31109Y45277D01*
X30994Y45358D01*
X30882Y45443D01*
X30771Y45531D01*
X30663Y45622D01*
X30557Y45715D01*
X30454Y45812D01*
X30353Y45911D01*
X30671Y53213D02*
X30673Y53313D01*
X30679Y53412D01*
X30689Y53512D01*
X30702Y53610D01*
X30720Y53709D01*
X30741Y53806D01*
X30766Y53902D01*
X30795Y53998D01*
X30828Y54092D01*
X30864Y54185D01*
X30904Y54276D01*
X30948Y54366D01*
X30995Y54454D01*
X31045Y54540D01*
X31099Y54624D01*
X31156Y54706D01*
X31216Y54785D01*
X31280Y54863D01*
X31346Y54937D01*
X31415Y55009D01*
X31487Y55078D01*
X31561Y55144D01*
X31639Y55208D01*
X31718Y55268D01*
X31800Y55325D01*
X31884Y55379D01*
X31970Y55429D01*
X32058Y55476D01*
X32148Y55520D01*
X32239Y55560D01*
X32332Y55596D01*
X32426Y55629D01*
X32522Y55658D01*
X32618Y55683D01*
X32715Y55704D01*
X32814Y55722D01*
X32912Y55735D01*
X33012Y55745D01*
X33111Y55751D01*
X33211Y55753D01*
X33211Y55754D02*
X33344Y55752D01*
X33477Y55747D01*
X33610Y55737D01*
X33743Y55724D01*
X33875Y55707D01*
X34007Y55687D01*
X34138Y55663D01*
X34268Y55635D01*
X34398Y55604D01*
X34526Y55569D01*
X34654Y55530D01*
X34780Y55488D01*
X34905Y55442D01*
X35029Y55393D01*
X35152Y55341D01*
X35273Y55285D01*
X35392Y55225D01*
X35510Y55163D01*
X35625Y55097D01*
X35739Y55028D01*
X35851Y54955D01*
X35961Y54880D01*
X36069Y54801D01*
X31940Y50990D02*
X31856Y51042D01*
X31773Y51097D01*
X31693Y51156D01*
X31615Y51217D01*
X31540Y51281D01*
X31467Y51349D01*
X31396Y51419D01*
X31329Y51491D01*
X31264Y51566D01*
X31202Y51644D01*
X31143Y51724D01*
X31087Y51806D01*
X31035Y51890D01*
X30986Y51976D01*
X30940Y52064D01*
X30897Y52154D01*
X30858Y52245D01*
X30823Y52338D01*
X30791Y52432D01*
X30763Y52527D01*
X30738Y52623D01*
X30718Y52720D01*
X30700Y52818D01*
X30687Y52916D01*
X30678Y53015D01*
X30672Y53114D01*
X30670Y53213D01*
X35433Y49086D02*
X35517Y49034D01*
X35600Y48979D01*
X35680Y48920D01*
X35758Y48859D01*
X35833Y48795D01*
X35906Y48727D01*
X35977Y48657D01*
X36044Y48585D01*
X36109Y48510D01*
X36171Y48432D01*
X36230Y48352D01*
X36286Y48270D01*
X36338Y48186D01*
X36387Y48100D01*
X36433Y48012D01*
X36476Y47922D01*
X36515Y47831D01*
X36550Y47738D01*
X36582Y47644D01*
X36610Y47549D01*
X36635Y47453D01*
X36655Y47356D01*
X36673Y47258D01*
X36686Y47160D01*
X36695Y47061D01*
X36701Y46962D01*
X36703Y46863D01*
X35433Y49086D02*
X31941Y50991D01*
X41021Y55753D02*
X43561Y44323D01*
X46101Y51943D01*
X48641Y44323D01*
X51181Y55753D01*
X56769Y55753D02*
X56769Y44323D01*
X55499Y44323D02*
X58039Y44323D01*
X58039Y55753D02*
X55499Y55753D01*
X65151Y55753D02*
X65151Y44323D01*
X61976Y55753D02*
X68326Y55753D01*
X75147Y44323D02*
X77687Y44323D01*
X75147Y44323D02*
X75047Y44325D01*
X74948Y44331D01*
X74848Y44341D01*
X74750Y44354D01*
X74651Y44372D01*
X74554Y44393D01*
X74458Y44418D01*
X74362Y44447D01*
X74268Y44480D01*
X74175Y44516D01*
X74084Y44556D01*
X73994Y44600D01*
X73906Y44647D01*
X73820Y44697D01*
X73736Y44751D01*
X73654Y44808D01*
X73575Y44868D01*
X73497Y44932D01*
X73423Y44998D01*
X73351Y45067D01*
X73282Y45139D01*
X73216Y45213D01*
X73152Y45291D01*
X73092Y45370D01*
X73035Y45452D01*
X72981Y45536D01*
X72931Y45622D01*
X72884Y45710D01*
X72840Y45800D01*
X72800Y45891D01*
X72764Y45984D01*
X72731Y46078D01*
X72702Y46174D01*
X72677Y46270D01*
X72656Y46367D01*
X72638Y46466D01*
X72625Y46564D01*
X72615Y46664D01*
X72609Y46763D01*
X72607Y46863D01*
X72607Y53213D01*
X72609Y53313D01*
X72615Y53412D01*
X72625Y53512D01*
X72638Y53610D01*
X72656Y53709D01*
X72677Y53806D01*
X72702Y53902D01*
X72731Y53998D01*
X72764Y54092D01*
X72800Y54185D01*
X72840Y54276D01*
X72884Y54366D01*
X72931Y54454D01*
X72981Y54540D01*
X73035Y54624D01*
X73092Y54706D01*
X73152Y54785D01*
X73216Y54863D01*
X73282Y54937D01*
X73351Y55009D01*
X73423Y55078D01*
X73497Y55144D01*
X73575Y55208D01*
X73654Y55268D01*
X73736Y55325D01*
X73820Y55379D01*
X73906Y55429D01*
X73994Y55476D01*
X74084Y55520D01*
X74175Y55560D01*
X74268Y55596D01*
X74362Y55629D01*
X74458Y55658D01*
X74554Y55683D01*
X74651Y55704D01*
X74750Y55722D01*
X74848Y55735D01*
X74948Y55745D01*
X75047Y55751D01*
X75147Y55753D01*
X77687Y55753D01*
X82550Y55753D02*
X82550Y44323D01*
X82550Y50673D02*
X88900Y50673D01*
X88900Y55753D02*
X88900Y44323D01*
D11*
X171450Y241300D02*
X184150Y241300D01*
X190500Y234950D01*
X190500Y222250D01*
X184150Y215900D01*
X165100Y222250D02*
X165100Y234950D01*
X171450Y241300D01*
X165100Y222250D02*
X171450Y215900D01*
X184150Y215900D01*
X190500Y234950D02*
X196850Y241300D01*
X209550Y241300D01*
X215900Y234950D01*
X215900Y222250D01*
X209550Y215900D01*
X196850Y215900D01*
X190500Y222250D01*
D12*
X168783Y247523D02*
X168883Y247525D01*
X168982Y247531D01*
X169082Y247541D01*
X169180Y247554D01*
X169279Y247572D01*
X169376Y247593D01*
X169472Y247618D01*
X169568Y247647D01*
X169662Y247680D01*
X169755Y247716D01*
X169846Y247756D01*
X169936Y247800D01*
X170024Y247847D01*
X170110Y247897D01*
X170194Y247951D01*
X170276Y248008D01*
X170355Y248068D01*
X170433Y248132D01*
X170507Y248198D01*
X170579Y248267D01*
X170648Y248339D01*
X170714Y248413D01*
X170778Y248491D01*
X170838Y248570D01*
X170895Y248652D01*
X170949Y248736D01*
X170999Y248822D01*
X171046Y248910D01*
X171090Y249000D01*
X171130Y249091D01*
X171166Y249184D01*
X171199Y249278D01*
X171228Y249374D01*
X171253Y249470D01*
X171274Y249567D01*
X171292Y249666D01*
X171305Y249764D01*
X171315Y249864D01*
X171321Y249963D01*
X171323Y250063D01*
X168783Y247523D02*
X168642Y247525D01*
X168501Y247530D01*
X168360Y247540D01*
X168219Y247553D01*
X168079Y247569D01*
X167939Y247590D01*
X167800Y247614D01*
X167661Y247642D01*
X167524Y247673D01*
X167387Y247708D01*
X167251Y247746D01*
X167116Y247788D01*
X166983Y247834D01*
X166850Y247883D01*
X166719Y247936D01*
X166590Y247992D01*
X166461Y248051D01*
X166335Y248114D01*
X166210Y248180D01*
X166087Y248249D01*
X165966Y248322D01*
X165847Y248398D01*
X165729Y248477D01*
X165614Y248558D01*
X165502Y248643D01*
X165391Y248731D01*
X165283Y248822D01*
X165177Y248915D01*
X165074Y249012D01*
X164973Y249111D01*
X165291Y256413D02*
X165293Y256513D01*
X165299Y256612D01*
X165309Y256712D01*
X165322Y256810D01*
X165340Y256909D01*
X165361Y257006D01*
X165386Y257102D01*
X165415Y257198D01*
X165448Y257292D01*
X165484Y257385D01*
X165524Y257476D01*
X165568Y257566D01*
X165615Y257654D01*
X165665Y257740D01*
X165719Y257824D01*
X165776Y257906D01*
X165836Y257985D01*
X165900Y258063D01*
X165966Y258137D01*
X166035Y258209D01*
X166107Y258278D01*
X166181Y258344D01*
X166259Y258408D01*
X166338Y258468D01*
X166420Y258525D01*
X166504Y258579D01*
X166590Y258629D01*
X166678Y258676D01*
X166768Y258720D01*
X166859Y258760D01*
X166952Y258796D01*
X167046Y258829D01*
X167142Y258858D01*
X167238Y258883D01*
X167335Y258904D01*
X167434Y258922D01*
X167532Y258935D01*
X167632Y258945D01*
X167731Y258951D01*
X167831Y258953D01*
X167831Y258954D02*
X167964Y258952D01*
X168097Y258947D01*
X168230Y258937D01*
X168363Y258924D01*
X168495Y258907D01*
X168627Y258887D01*
X168758Y258863D01*
X168888Y258835D01*
X169018Y258804D01*
X169146Y258769D01*
X169274Y258730D01*
X169400Y258688D01*
X169525Y258642D01*
X169649Y258593D01*
X169772Y258541D01*
X169893Y258485D01*
X170012Y258425D01*
X170130Y258363D01*
X170245Y258297D01*
X170359Y258228D01*
X170471Y258155D01*
X170581Y258080D01*
X170689Y258001D01*
X166560Y254190D02*
X166476Y254242D01*
X166393Y254297D01*
X166313Y254356D01*
X166235Y254417D01*
X166160Y254481D01*
X166087Y254549D01*
X166016Y254619D01*
X165949Y254691D01*
X165884Y254766D01*
X165822Y254844D01*
X165763Y254924D01*
X165707Y255006D01*
X165655Y255090D01*
X165606Y255176D01*
X165560Y255264D01*
X165517Y255354D01*
X165478Y255445D01*
X165443Y255538D01*
X165411Y255632D01*
X165383Y255727D01*
X165358Y255823D01*
X165338Y255920D01*
X165320Y256018D01*
X165307Y256116D01*
X165298Y256215D01*
X165292Y256314D01*
X165290Y256413D01*
X170053Y252286D02*
X170137Y252234D01*
X170220Y252179D01*
X170300Y252120D01*
X170378Y252059D01*
X170453Y251995D01*
X170526Y251927D01*
X170597Y251857D01*
X170664Y251785D01*
X170729Y251710D01*
X170791Y251632D01*
X170850Y251552D01*
X170906Y251470D01*
X170958Y251386D01*
X171007Y251300D01*
X171053Y251212D01*
X171096Y251122D01*
X171135Y251031D01*
X171170Y250938D01*
X171202Y250844D01*
X171230Y250749D01*
X171255Y250653D01*
X171275Y250556D01*
X171293Y250458D01*
X171306Y250360D01*
X171315Y250261D01*
X171321Y250162D01*
X171323Y250063D01*
X170053Y252286D02*
X166561Y254191D01*
X176022Y255778D02*
X176022Y250698D01*
X176022Y255778D02*
X176024Y255889D01*
X176030Y255999D01*
X176039Y256110D01*
X176053Y256220D01*
X176070Y256329D01*
X176091Y256438D01*
X176116Y256546D01*
X176145Y256653D01*
X176177Y256759D01*
X176213Y256864D01*
X176253Y256967D01*
X176296Y257069D01*
X176343Y257170D01*
X176394Y257269D01*
X176447Y257366D01*
X176504Y257460D01*
X176565Y257553D01*
X176628Y257644D01*
X176695Y257733D01*
X176765Y257819D01*
X176838Y257902D01*
X176913Y257984D01*
X176991Y258062D01*
X177073Y258137D01*
X177156Y258210D01*
X177242Y258280D01*
X177331Y258347D01*
X177422Y258410D01*
X177515Y258471D01*
X177610Y258528D01*
X177706Y258581D01*
X177805Y258632D01*
X177906Y258679D01*
X178008Y258722D01*
X178111Y258762D01*
X178216Y258798D01*
X178322Y258830D01*
X178429Y258859D01*
X178537Y258884D01*
X178646Y258905D01*
X178755Y258922D01*
X178865Y258936D01*
X178976Y258945D01*
X179086Y258951D01*
X179197Y258953D01*
X179308Y258951D01*
X179418Y258945D01*
X179529Y258936D01*
X179639Y258922D01*
X179748Y258905D01*
X179857Y258884D01*
X179965Y258859D01*
X180072Y258830D01*
X180178Y258798D01*
X180283Y258762D01*
X180386Y258722D01*
X180488Y258679D01*
X180589Y258632D01*
X180688Y258581D01*
X180785Y258528D01*
X180879Y258471D01*
X180972Y258410D01*
X181063Y258347D01*
X181152Y258280D01*
X181238Y258210D01*
X181321Y258137D01*
X181403Y258062D01*
X181481Y257984D01*
X181556Y257902D01*
X181629Y257819D01*
X181699Y257733D01*
X181766Y257644D01*
X181829Y257553D01*
X181890Y257460D01*
X181947Y257366D01*
X182000Y257269D01*
X182051Y257170D01*
X182098Y257069D01*
X182141Y256967D01*
X182181Y256864D01*
X182217Y256759D01*
X182249Y256653D01*
X182278Y256546D01*
X182303Y256438D01*
X182324Y256329D01*
X182341Y256220D01*
X182355Y256110D01*
X182364Y255999D01*
X182370Y255889D01*
X182372Y255778D01*
X182372Y250698D01*
X182370Y250587D01*
X182364Y250477D01*
X182355Y250366D01*
X182341Y250256D01*
X182324Y250147D01*
X182303Y250038D01*
X182278Y249930D01*
X182249Y249823D01*
X182217Y249717D01*
X182181Y249612D01*
X182141Y249509D01*
X182098Y249407D01*
X182051Y249306D01*
X182000Y249207D01*
X181947Y249110D01*
X181890Y249016D01*
X181829Y248923D01*
X181766Y248832D01*
X181699Y248743D01*
X181629Y248657D01*
X181556Y248574D01*
X181481Y248492D01*
X181403Y248414D01*
X181321Y248339D01*
X181238Y248266D01*
X181152Y248196D01*
X181063Y248129D01*
X180972Y248066D01*
X180879Y248005D01*
X180784Y247948D01*
X180688Y247895D01*
X180589Y247844D01*
X180488Y247797D01*
X180386Y247754D01*
X180283Y247714D01*
X180178Y247678D01*
X180072Y247646D01*
X179965Y247617D01*
X179857Y247592D01*
X179748Y247571D01*
X179639Y247554D01*
X179529Y247540D01*
X179418Y247531D01*
X179308Y247525D01*
X179197Y247523D01*
X179086Y247525D01*
X178976Y247531D01*
X178865Y247540D01*
X178755Y247554D01*
X178646Y247571D01*
X178537Y247592D01*
X178429Y247617D01*
X178322Y247646D01*
X178216Y247678D01*
X178111Y247714D01*
X178008Y247754D01*
X177906Y247797D01*
X177805Y247844D01*
X177706Y247895D01*
X177610Y247948D01*
X177515Y248005D01*
X177422Y248066D01*
X177331Y248129D01*
X177242Y248196D01*
X177156Y248266D01*
X177073Y248339D01*
X176991Y248414D01*
X176913Y248492D01*
X176838Y248574D01*
X176765Y248657D01*
X176695Y248743D01*
X176628Y248832D01*
X176565Y248923D01*
X176504Y249016D01*
X176447Y249111D01*
X176394Y249207D01*
X176343Y249306D01*
X176296Y249407D01*
X176253Y249509D01*
X176213Y249612D01*
X176177Y249717D01*
X176145Y249823D01*
X176116Y249930D01*
X176091Y250038D01*
X176070Y250147D01*
X176053Y250256D01*
X176039Y250366D01*
X176030Y250477D01*
X176024Y250587D01*
X176022Y250698D01*
X187833Y250698D02*
X187833Y258953D01*
X187833Y250698D02*
X187835Y250587D01*
X187841Y250477D01*
X187850Y250366D01*
X187864Y250256D01*
X187881Y250147D01*
X187902Y250038D01*
X187927Y249930D01*
X187956Y249823D01*
X187988Y249717D01*
X188024Y249612D01*
X188064Y249509D01*
X188107Y249407D01*
X188154Y249306D01*
X188205Y249207D01*
X188258Y249111D01*
X188315Y249016D01*
X188376Y248923D01*
X188439Y248832D01*
X188506Y248743D01*
X188576Y248657D01*
X188649Y248574D01*
X188724Y248492D01*
X188802Y248414D01*
X188884Y248339D01*
X188967Y248266D01*
X189053Y248196D01*
X189142Y248129D01*
X189233Y248066D01*
X189326Y248005D01*
X189421Y247948D01*
X189517Y247895D01*
X189616Y247844D01*
X189717Y247797D01*
X189819Y247754D01*
X189922Y247714D01*
X190027Y247678D01*
X190133Y247646D01*
X190240Y247617D01*
X190348Y247592D01*
X190457Y247571D01*
X190566Y247554D01*
X190676Y247540D01*
X190787Y247531D01*
X190897Y247525D01*
X191008Y247523D01*
X191119Y247525D01*
X191229Y247531D01*
X191340Y247540D01*
X191450Y247554D01*
X191559Y247571D01*
X191668Y247592D01*
X191776Y247617D01*
X191883Y247646D01*
X191989Y247678D01*
X192094Y247714D01*
X192197Y247754D01*
X192299Y247797D01*
X192400Y247844D01*
X192499Y247895D01*
X192595Y247948D01*
X192690Y248005D01*
X192783Y248066D01*
X192874Y248129D01*
X192963Y248196D01*
X193049Y248266D01*
X193132Y248339D01*
X193214Y248414D01*
X193292Y248492D01*
X193367Y248574D01*
X193440Y248657D01*
X193510Y248743D01*
X193577Y248832D01*
X193640Y248923D01*
X193701Y249016D01*
X193758Y249110D01*
X193811Y249207D01*
X193862Y249306D01*
X193909Y249407D01*
X193952Y249509D01*
X193992Y249612D01*
X194028Y249717D01*
X194060Y249823D01*
X194089Y249930D01*
X194114Y250038D01*
X194135Y250147D01*
X194152Y250256D01*
X194166Y250366D01*
X194175Y250477D01*
X194181Y250587D01*
X194183Y250698D01*
X194183Y258953D01*
X200108Y258953D02*
X200108Y247523D01*
X200108Y258953D02*
X203283Y258953D01*
X203394Y258951D01*
X203504Y258945D01*
X203615Y258936D01*
X203725Y258922D01*
X203834Y258905D01*
X203943Y258884D01*
X204051Y258859D01*
X204158Y258830D01*
X204264Y258798D01*
X204369Y258762D01*
X204472Y258722D01*
X204574Y258679D01*
X204675Y258632D01*
X204774Y258581D01*
X204871Y258528D01*
X204965Y258471D01*
X205058Y258410D01*
X205149Y258347D01*
X205238Y258280D01*
X205324Y258210D01*
X205407Y258137D01*
X205489Y258062D01*
X205567Y257984D01*
X205642Y257902D01*
X205715Y257819D01*
X205785Y257733D01*
X205852Y257644D01*
X205915Y257553D01*
X205976Y257460D01*
X206033Y257365D01*
X206086Y257269D01*
X206137Y257170D01*
X206184Y257069D01*
X206227Y256967D01*
X206267Y256864D01*
X206303Y256759D01*
X206335Y256653D01*
X206364Y256546D01*
X206389Y256438D01*
X206410Y256329D01*
X206427Y256220D01*
X206441Y256110D01*
X206450Y255999D01*
X206456Y255889D01*
X206458Y255778D01*
X206456Y255667D01*
X206450Y255557D01*
X206441Y255446D01*
X206427Y255336D01*
X206410Y255227D01*
X206389Y255118D01*
X206364Y255010D01*
X206335Y254903D01*
X206303Y254797D01*
X206267Y254692D01*
X206227Y254589D01*
X206184Y254487D01*
X206137Y254386D01*
X206086Y254287D01*
X206033Y254190D01*
X205976Y254096D01*
X205915Y254003D01*
X205852Y253912D01*
X205785Y253823D01*
X205715Y253737D01*
X205642Y253654D01*
X205567Y253572D01*
X205489Y253494D01*
X205407Y253419D01*
X205324Y253346D01*
X205238Y253276D01*
X205149Y253209D01*
X205058Y253146D01*
X204965Y253085D01*
X204870Y253028D01*
X204774Y252975D01*
X204675Y252924D01*
X204574Y252877D01*
X204472Y252834D01*
X204369Y252794D01*
X204264Y252758D01*
X204158Y252726D01*
X204051Y252697D01*
X203943Y252672D01*
X203834Y252651D01*
X203725Y252634D01*
X203615Y252620D01*
X203504Y252611D01*
X203394Y252605D01*
X203283Y252603D01*
X200108Y252603D01*
X203918Y252603D02*
X206458Y247523D01*
X213958Y247523D02*
X216498Y247523D01*
X213958Y247523D02*
X213858Y247525D01*
X213759Y247531D01*
X213659Y247541D01*
X213561Y247554D01*
X213462Y247572D01*
X213365Y247593D01*
X213269Y247618D01*
X213173Y247647D01*
X213079Y247680D01*
X212986Y247716D01*
X212895Y247756D01*
X212805Y247800D01*
X212717Y247847D01*
X212631Y247897D01*
X212547Y247951D01*
X212465Y248008D01*
X212386Y248068D01*
X212308Y248132D01*
X212234Y248198D01*
X212162Y248267D01*
X212093Y248339D01*
X212027Y248413D01*
X211963Y248491D01*
X211903Y248570D01*
X211846Y248652D01*
X211792Y248736D01*
X211742Y248822D01*
X211695Y248910D01*
X211651Y249000D01*
X211611Y249091D01*
X211575Y249184D01*
X211542Y249278D01*
X211513Y249374D01*
X211488Y249470D01*
X211467Y249567D01*
X211449Y249666D01*
X211436Y249764D01*
X211426Y249864D01*
X211420Y249963D01*
X211418Y250063D01*
X211418Y256413D01*
X211420Y256513D01*
X211426Y256612D01*
X211436Y256712D01*
X211449Y256810D01*
X211467Y256909D01*
X211488Y257006D01*
X211513Y257102D01*
X211542Y257198D01*
X211575Y257292D01*
X211611Y257385D01*
X211651Y257476D01*
X211695Y257566D01*
X211742Y257654D01*
X211792Y257740D01*
X211846Y257824D01*
X211903Y257906D01*
X211963Y257985D01*
X212027Y258063D01*
X212093Y258137D01*
X212162Y258209D01*
X212234Y258278D01*
X212308Y258344D01*
X212386Y258408D01*
X212465Y258468D01*
X212547Y258525D01*
X212631Y258579D01*
X212717Y258629D01*
X212805Y258676D01*
X212895Y258720D01*
X212986Y258760D01*
X213079Y258796D01*
X213173Y258829D01*
X213269Y258858D01*
X213365Y258883D01*
X213462Y258904D01*
X213561Y258922D01*
X213659Y258935D01*
X213759Y258945D01*
X213858Y258951D01*
X213958Y258953D01*
X216498Y258953D01*
X221386Y247523D02*
X226466Y247523D01*
X221386Y247523D02*
X221386Y258953D01*
X226466Y258953D01*
X225196Y253873D02*
X221386Y253873D01*
X230886Y256413D02*
X234061Y258953D01*
X234061Y247523D01*
X230886Y247523D02*
X237236Y247523D01*
X95250Y3810D02*
X450850Y3810D01*
X95250Y3810D02*
X95250Y168910D01*
X450850Y168910D01*
X450850Y3810D01*
D13*
X126492Y80624D02*
X114808Y80624D01*
X126492Y79326D02*
X126492Y81922D01*
X114808Y81922D02*
X114808Y79326D01*
X114808Y86903D02*
X126492Y86903D01*
X126492Y93394D02*
X114808Y86903D01*
X114808Y93394D02*
X126492Y93394D01*
X422854Y71684D02*
X428046Y71684D01*
X422854Y71684D02*
X422741Y71686D01*
X422628Y71692D01*
X422515Y71702D01*
X422402Y71716D01*
X422290Y71733D01*
X422179Y71755D01*
X422069Y71780D01*
X421959Y71810D01*
X421851Y71843D01*
X421744Y71880D01*
X421638Y71920D01*
X421534Y71965D01*
X421431Y72013D01*
X421330Y72064D01*
X421231Y72119D01*
X421134Y72177D01*
X421039Y72239D01*
X420946Y72304D01*
X420856Y72372D01*
X420768Y72443D01*
X420682Y72518D01*
X420599Y72595D01*
X420519Y72675D01*
X420442Y72758D01*
X420367Y72844D01*
X420296Y72932D01*
X420228Y73022D01*
X420163Y73115D01*
X420101Y73210D01*
X420043Y73307D01*
X419988Y73406D01*
X419937Y73507D01*
X419889Y73610D01*
X419844Y73714D01*
X419804Y73820D01*
X419767Y73927D01*
X419734Y74035D01*
X419704Y74145D01*
X419679Y74255D01*
X419657Y74366D01*
X419640Y74478D01*
X419626Y74591D01*
X419616Y74704D01*
X419610Y74817D01*
X419608Y74930D01*
X419610Y75043D01*
X419616Y75156D01*
X419626Y75269D01*
X419640Y75382D01*
X419657Y75494D01*
X419679Y75605D01*
X419704Y75715D01*
X419734Y75825D01*
X419767Y75933D01*
X419804Y76040D01*
X419844Y76146D01*
X419889Y76250D01*
X419937Y76353D01*
X419988Y76454D01*
X420043Y76553D01*
X420101Y76650D01*
X420163Y76745D01*
X420228Y76838D01*
X420296Y76928D01*
X420367Y77016D01*
X420442Y77102D01*
X420519Y77185D01*
X420599Y77265D01*
X420682Y77342D01*
X420768Y77417D01*
X420856Y77488D01*
X420946Y77556D01*
X421039Y77621D01*
X421134Y77683D01*
X421231Y77741D01*
X421330Y77796D01*
X421431Y77847D01*
X421534Y77895D01*
X421638Y77940D01*
X421744Y77980D01*
X421851Y78017D01*
X421959Y78050D01*
X422069Y78080D01*
X422179Y78105D01*
X422290Y78127D01*
X422402Y78144D01*
X422515Y78158D01*
X422628Y78168D01*
X422741Y78174D01*
X422854Y78176D01*
X428046Y78176D01*
X428159Y78174D01*
X428272Y78168D01*
X428385Y78158D01*
X428498Y78144D01*
X428610Y78127D01*
X428721Y78105D01*
X428831Y78080D01*
X428941Y78050D01*
X429049Y78017D01*
X429156Y77980D01*
X429262Y77940D01*
X429366Y77895D01*
X429469Y77847D01*
X429570Y77796D01*
X429669Y77741D01*
X429766Y77683D01*
X429861Y77621D01*
X429954Y77556D01*
X430044Y77488D01*
X430132Y77417D01*
X430218Y77342D01*
X430301Y77265D01*
X430381Y77185D01*
X430458Y77102D01*
X430533Y77016D01*
X430604Y76928D01*
X430672Y76838D01*
X430737Y76745D01*
X430799Y76650D01*
X430857Y76553D01*
X430912Y76454D01*
X430963Y76353D01*
X431011Y76250D01*
X431056Y76146D01*
X431096Y76040D01*
X431133Y75933D01*
X431166Y75825D01*
X431196Y75715D01*
X431221Y75605D01*
X431243Y75494D01*
X431260Y75382D01*
X431274Y75269D01*
X431284Y75156D01*
X431290Y75043D01*
X431292Y74930D01*
X431290Y74817D01*
X431284Y74704D01*
X431274Y74591D01*
X431260Y74478D01*
X431243Y74366D01*
X431221Y74255D01*
X431196Y74145D01*
X431166Y74035D01*
X431133Y73927D01*
X431096Y73820D01*
X431056Y73714D01*
X431011Y73610D01*
X430963Y73507D01*
X430912Y73406D01*
X430857Y73307D01*
X430799Y73210D01*
X430737Y73115D01*
X430672Y73022D01*
X430604Y72932D01*
X430533Y72844D01*
X430458Y72758D01*
X430381Y72675D01*
X430301Y72595D01*
X430218Y72518D01*
X430132Y72443D01*
X430044Y72372D01*
X429954Y72304D01*
X429861Y72239D01*
X429766Y72177D01*
X429669Y72119D01*
X429570Y72064D01*
X429469Y72013D01*
X429366Y71965D01*
X429262Y71920D01*
X429156Y71880D01*
X429049Y71843D01*
X428941Y71810D01*
X428831Y71780D01*
X428721Y71755D01*
X428610Y71733D01*
X428498Y71716D01*
X428385Y71702D01*
X428272Y71692D01*
X428159Y71686D01*
X428046Y71684D01*
X428046Y83495D02*
X419608Y83495D01*
X428046Y83495D02*
X428159Y83497D01*
X428272Y83503D01*
X428385Y83513D01*
X428498Y83527D01*
X428610Y83544D01*
X428721Y83566D01*
X428831Y83591D01*
X428941Y83621D01*
X429049Y83654D01*
X429156Y83691D01*
X429262Y83731D01*
X429366Y83776D01*
X429469Y83824D01*
X429570Y83875D01*
X429669Y83930D01*
X429766Y83988D01*
X429861Y84050D01*
X429954Y84115D01*
X430044Y84183D01*
X430132Y84254D01*
X430218Y84329D01*
X430301Y84406D01*
X430381Y84486D01*
X430458Y84569D01*
X430533Y84655D01*
X430604Y84743D01*
X430672Y84833D01*
X430737Y84926D01*
X430799Y85021D01*
X430857Y85118D01*
X430912Y85217D01*
X430963Y85318D01*
X431011Y85421D01*
X431056Y85525D01*
X431096Y85631D01*
X431133Y85738D01*
X431166Y85846D01*
X431196Y85956D01*
X431221Y86066D01*
X431243Y86177D01*
X431260Y86289D01*
X431274Y86402D01*
X431284Y86515D01*
X431290Y86628D01*
X431292Y86741D01*
X431290Y86854D01*
X431284Y86967D01*
X431274Y87080D01*
X431260Y87193D01*
X431243Y87305D01*
X431221Y87416D01*
X431196Y87526D01*
X431166Y87636D01*
X431133Y87744D01*
X431096Y87851D01*
X431056Y87957D01*
X431011Y88061D01*
X430963Y88164D01*
X430912Y88265D01*
X430857Y88364D01*
X430799Y88461D01*
X430737Y88556D01*
X430672Y88649D01*
X430604Y88739D01*
X430533Y88827D01*
X430458Y88913D01*
X430381Y88996D01*
X430301Y89076D01*
X430218Y89153D01*
X430132Y89228D01*
X430044Y89299D01*
X429954Y89367D01*
X429861Y89432D01*
X429766Y89494D01*
X429669Y89552D01*
X429570Y89607D01*
X429469Y89658D01*
X429366Y89706D01*
X429262Y89751D01*
X429156Y89791D01*
X429049Y89828D01*
X428941Y89861D01*
X428831Y89891D01*
X428721Y89916D01*
X428610Y89938D01*
X428498Y89955D01*
X428385Y89969D01*
X428272Y89979D01*
X428159Y89985D01*
X428046Y89987D01*
X419608Y89987D01*
X419608Y97790D02*
X431292Y97790D01*
X419608Y94544D02*
X419608Y101036D01*
D14*
X120650Y143510D02*
X120650Y156210D01*
X127000Y22860D02*
X114300Y22860D01*
X425450Y29210D02*
X425450Y16510D01*
X120650Y16510D02*
X120650Y29210D01*
X425450Y143510D02*
X425450Y156210D01*
X431800Y22860D02*
X419100Y22860D01*
D13*
X258946Y-9398D02*
X258946Y-17836D01*
X258948Y-17949D01*
X258954Y-18062D01*
X258964Y-18175D01*
X258978Y-18288D01*
X258995Y-18400D01*
X259017Y-18511D01*
X259042Y-18621D01*
X259072Y-18731D01*
X259105Y-18839D01*
X259142Y-18946D01*
X259182Y-19052D01*
X259227Y-19156D01*
X259275Y-19259D01*
X259326Y-19360D01*
X259381Y-19459D01*
X259439Y-19556D01*
X259501Y-19651D01*
X259566Y-19744D01*
X259634Y-19834D01*
X259705Y-19922D01*
X259780Y-20008D01*
X259857Y-20091D01*
X259937Y-20171D01*
X260020Y-20248D01*
X260106Y-20323D01*
X260194Y-20394D01*
X260284Y-20462D01*
X260377Y-20527D01*
X260472Y-20589D01*
X260569Y-20647D01*
X260668Y-20702D01*
X260769Y-20753D01*
X260872Y-20801D01*
X260976Y-20846D01*
X261082Y-20886D01*
X261189Y-20923D01*
X261297Y-20956D01*
X261407Y-20986D01*
X261517Y-21011D01*
X261628Y-21033D01*
X261740Y-21050D01*
X261853Y-21064D01*
X261966Y-21074D01*
X262079Y-21080D01*
X262192Y-21082D01*
X262305Y-21080D01*
X262418Y-21074D01*
X262531Y-21064D01*
X262644Y-21050D01*
X262756Y-21033D01*
X262867Y-21011D01*
X262977Y-20986D01*
X263087Y-20956D01*
X263195Y-20923D01*
X263302Y-20886D01*
X263408Y-20846D01*
X263512Y-20801D01*
X263615Y-20753D01*
X263716Y-20702D01*
X263815Y-20647D01*
X263912Y-20589D01*
X264007Y-20527D01*
X264100Y-20462D01*
X264190Y-20394D01*
X264278Y-20323D01*
X264364Y-20248D01*
X264447Y-20171D01*
X264527Y-20091D01*
X264604Y-20008D01*
X264679Y-19922D01*
X264750Y-19834D01*
X264818Y-19744D01*
X264883Y-19651D01*
X264945Y-19556D01*
X265003Y-19459D01*
X265058Y-19360D01*
X265109Y-19259D01*
X265157Y-19156D01*
X265202Y-19052D01*
X265242Y-18946D01*
X265279Y-18839D01*
X265312Y-18731D01*
X265342Y-18621D01*
X265367Y-18511D01*
X265389Y-18400D01*
X265406Y-18288D01*
X265420Y-18175D01*
X265430Y-18062D01*
X265436Y-17949D01*
X265438Y-17836D01*
X265437Y-17836D02*
X265437Y-9398D01*
X273241Y-9398D02*
X273241Y-21082D01*
X273241Y-15240D02*
X271618Y-14266D01*
X271617Y-14267D02*
X271544Y-14220D01*
X271473Y-14171D01*
X271404Y-14118D01*
X271337Y-14062D01*
X271273Y-14003D01*
X271211Y-13942D01*
X271153Y-13878D01*
X271097Y-13811D01*
X271045Y-13742D01*
X270995Y-13670D01*
X270949Y-13596D01*
X270906Y-13521D01*
X270867Y-13443D01*
X270831Y-13364D01*
X270799Y-13283D01*
X270770Y-13201D01*
X270745Y-13118D01*
X270724Y-13034D01*
X270707Y-12949D01*
X270693Y-12863D01*
X270684Y-12777D01*
X270678Y-12690D01*
X270676Y-12603D01*
X270678Y-12516D01*
X270684Y-12429D01*
X270694Y-12343D01*
X270707Y-12257D01*
X270725Y-12172D01*
X270746Y-12088D01*
X270771Y-12005D01*
X270800Y-11922D01*
X270832Y-11842D01*
X270868Y-11763D01*
X270907Y-11685D01*
X270950Y-11610D01*
X270997Y-11536D01*
X271046Y-11465D01*
X271099Y-11395D01*
X271154Y-11329D01*
X271213Y-11265D01*
X271274Y-11203D01*
X271338Y-11144D01*
X271405Y-11089D01*
X271474Y-11036D01*
X271546Y-10986D01*
X271619Y-10940D01*
X271695Y-10897D01*
X271772Y-10858D01*
X271851Y-10822D01*
X271932Y-10789D01*
X272014Y-10761D01*
X272097Y-10735D01*
X272181Y-10714D01*
X272266Y-10697D01*
X272267Y-10696D02*
X272407Y-10672D01*
X272549Y-10652D01*
X272690Y-10636D01*
X272832Y-10625D01*
X272975Y-10617D01*
X273117Y-10613D01*
X273260Y-10612D01*
X273403Y-10616D01*
X273545Y-10624D01*
X273687Y-10636D01*
X273829Y-10652D01*
X273970Y-10671D01*
X274111Y-10695D01*
X274251Y-10722D01*
X274390Y-10754D01*
X274528Y-10789D01*
X274666Y-10828D01*
X274802Y-10871D01*
X274936Y-10917D01*
X275070Y-10968D01*
X275202Y-11021D01*
X275332Y-11079D01*
X275461Y-11140D01*
X275588Y-11205D01*
X275714Y-11273D01*
X275837Y-11345D01*
X273241Y-15240D02*
X274863Y-16214D01*
X274864Y-16213D02*
X274937Y-16260D01*
X275008Y-16309D01*
X275078Y-16362D01*
X275144Y-16418D01*
X275208Y-16477D01*
X275270Y-16538D01*
X275328Y-16602D01*
X275384Y-16669D01*
X275436Y-16738D01*
X275486Y-16810D01*
X275532Y-16884D01*
X275575Y-16959D01*
X275614Y-17037D01*
X275650Y-17116D01*
X275682Y-17197D01*
X275711Y-17279D01*
X275736Y-17362D01*
X275757Y-17446D01*
X275774Y-17531D01*
X275788Y-17617D01*
X275797Y-17704D01*
X275803Y-17790D01*
X275805Y-17877D01*
X275803Y-17964D01*
X275797Y-18051D01*
X275787Y-18137D01*
X275774Y-18223D01*
X275756Y-18308D01*
X275735Y-18392D01*
X275710Y-18475D01*
X275681Y-18558D01*
X275649Y-18638D01*
X275613Y-18717D01*
X275574Y-18795D01*
X275531Y-18870D01*
X275484Y-18944D01*
X275435Y-19015D01*
X275382Y-19085D01*
X275327Y-19151D01*
X275268Y-19215D01*
X275207Y-19277D01*
X275142Y-19336D01*
X275076Y-19391D01*
X275007Y-19444D01*
X274935Y-19494D01*
X274862Y-19540D01*
X274786Y-19583D01*
X274709Y-19622D01*
X274630Y-19658D01*
X274549Y-19691D01*
X274467Y-19719D01*
X274384Y-19745D01*
X274300Y-19766D01*
X274214Y-19783D01*
X274214Y-19784D02*
X274074Y-19808D01*
X273932Y-19828D01*
X273791Y-19844D01*
X273649Y-19855D01*
X273506Y-19863D01*
X273364Y-19867D01*
X273221Y-19868D01*
X273078Y-19864D01*
X272936Y-19856D01*
X272794Y-19844D01*
X272652Y-19828D01*
X272511Y-19809D01*
X272370Y-19785D01*
X272230Y-19758D01*
X272091Y-19726D01*
X271953Y-19691D01*
X271815Y-19652D01*
X271679Y-19609D01*
X271545Y-19563D01*
X271411Y-19512D01*
X271279Y-19459D01*
X271149Y-19401D01*
X271020Y-19340D01*
X270893Y-19275D01*
X270767Y-19207D01*
X270644Y-19135D01*
X284233Y-9398D02*
X284340Y-9400D01*
X284446Y-9406D01*
X284552Y-9416D01*
X284658Y-9429D01*
X284764Y-9447D01*
X284868Y-9468D01*
X284972Y-9493D01*
X285075Y-9522D01*
X285176Y-9554D01*
X285276Y-9591D01*
X285375Y-9631D01*
X285473Y-9674D01*
X285569Y-9721D01*
X285663Y-9772D01*
X285755Y-9826D01*
X285845Y-9883D01*
X285933Y-9943D01*
X286018Y-10007D01*
X286101Y-10074D01*
X286182Y-10144D01*
X286260Y-10216D01*
X286336Y-10292D01*
X286408Y-10370D01*
X286478Y-10451D01*
X286545Y-10534D01*
X286609Y-10619D01*
X286669Y-10707D01*
X286726Y-10797D01*
X286780Y-10889D01*
X286831Y-10983D01*
X286878Y-11079D01*
X286921Y-11177D01*
X286961Y-11276D01*
X286998Y-11376D01*
X287030Y-11477D01*
X287059Y-11580D01*
X287084Y-11684D01*
X287105Y-11788D01*
X287123Y-11894D01*
X287136Y-12000D01*
X287146Y-12106D01*
X287152Y-12212D01*
X287154Y-12319D01*
X284233Y-9398D02*
X284112Y-9400D01*
X283991Y-9406D01*
X283871Y-9416D01*
X283750Y-9429D01*
X283631Y-9447D01*
X283511Y-9468D01*
X283393Y-9493D01*
X283276Y-9522D01*
X283159Y-9555D01*
X283044Y-9591D01*
X282930Y-9632D01*
X282817Y-9675D01*
X282705Y-9723D01*
X282596Y-9774D01*
X282488Y-9829D01*
X282381Y-9887D01*
X282277Y-9948D01*
X282175Y-10013D01*
X282075Y-10081D01*
X281977Y-10152D01*
X281881Y-10226D01*
X281788Y-10303D01*
X281698Y-10384D01*
X281610Y-10467D01*
X281525Y-10553D01*
X281442Y-10642D01*
X281363Y-10733D01*
X281286Y-10827D01*
X281213Y-10923D01*
X281143Y-11021D01*
X281076Y-11122D01*
X281012Y-11225D01*
X280952Y-11330D01*
X280894Y-11437D01*
X280841Y-11545D01*
X280791Y-11655D01*
X280745Y-11767D01*
X280702Y-11880D01*
X280663Y-11995D01*
X286180Y-14591D02*
X286259Y-14513D01*
X286335Y-14433D01*
X286408Y-14350D01*
X286478Y-14264D01*
X286545Y-14177D01*
X286609Y-14086D01*
X286669Y-13994D01*
X286727Y-13900D01*
X286781Y-13803D01*
X286831Y-13705D01*
X286878Y-13605D01*
X286922Y-13504D01*
X286962Y-13401D01*
X286998Y-13296D01*
X287030Y-13191D01*
X287059Y-13084D01*
X287084Y-12977D01*
X287106Y-12868D01*
X287123Y-12759D01*
X287137Y-12650D01*
X287146Y-12540D01*
X287152Y-12429D01*
X287154Y-12319D01*
X286180Y-14591D02*
X280663Y-21082D01*
X287154Y-21082D01*
D14*
X490580Y194900D02*
X535580Y194900D01*
X490580Y194900D02*
X490580Y6400D01*
X535580Y6400D01*
X535580Y194900D01*
D11*
X526580Y5400D02*
X526580Y-9100D01*
X516580Y-9100D01*
X516580Y-4100D01*
X509580Y-4100D01*
X509580Y-9100D01*
X499580Y-9100D01*
X499580Y5400D01*
D13*
X540588Y177545D02*
X552272Y177545D01*
X540588Y177545D02*
X540588Y180790D01*
X540590Y180903D01*
X540596Y181016D01*
X540606Y181129D01*
X540620Y181242D01*
X540637Y181354D01*
X540659Y181465D01*
X540684Y181575D01*
X540714Y181685D01*
X540747Y181793D01*
X540784Y181900D01*
X540824Y182006D01*
X540869Y182110D01*
X540917Y182213D01*
X540968Y182314D01*
X541023Y182413D01*
X541081Y182510D01*
X541143Y182605D01*
X541208Y182698D01*
X541276Y182788D01*
X541347Y182876D01*
X541422Y182962D01*
X541499Y183045D01*
X541579Y183125D01*
X541662Y183202D01*
X541748Y183277D01*
X541836Y183348D01*
X541926Y183416D01*
X542019Y183481D01*
X542114Y183543D01*
X542211Y183601D01*
X542310Y183656D01*
X542411Y183707D01*
X542514Y183755D01*
X542618Y183800D01*
X542724Y183840D01*
X542831Y183877D01*
X542939Y183910D01*
X543049Y183940D01*
X543159Y183965D01*
X543270Y183987D01*
X543382Y184004D01*
X543495Y184018D01*
X543608Y184028D01*
X543721Y184034D01*
X543834Y184036D01*
X543947Y184034D01*
X544060Y184028D01*
X544173Y184018D01*
X544286Y184004D01*
X544398Y183987D01*
X544509Y183965D01*
X544619Y183940D01*
X544729Y183910D01*
X544837Y183877D01*
X544944Y183840D01*
X545050Y183800D01*
X545154Y183755D01*
X545257Y183707D01*
X545358Y183656D01*
X545457Y183601D01*
X545554Y183543D01*
X545649Y183481D01*
X545742Y183416D01*
X545832Y183348D01*
X545920Y183277D01*
X546006Y183202D01*
X546089Y183125D01*
X546169Y183045D01*
X546246Y182962D01*
X546321Y182876D01*
X546392Y182788D01*
X546460Y182698D01*
X546525Y182605D01*
X546587Y182510D01*
X546645Y182413D01*
X546700Y182314D01*
X546751Y182213D01*
X546799Y182110D01*
X546844Y182006D01*
X546884Y181900D01*
X546921Y181793D01*
X546954Y181685D01*
X546984Y181575D01*
X547009Y181465D01*
X547031Y181354D01*
X547048Y181242D01*
X547062Y181129D01*
X547072Y181016D01*
X547078Y180903D01*
X547080Y180790D01*
X547079Y180790D02*
X547079Y177545D01*
X547079Y181439D02*
X552272Y184036D01*
X552272Y188901D02*
X552272Y192796D01*
X552270Y192895D01*
X552264Y192995D01*
X552255Y193094D01*
X552242Y193192D01*
X552225Y193290D01*
X552204Y193388D01*
X552179Y193484D01*
X552151Y193579D01*
X552119Y193673D01*
X552084Y193766D01*
X552045Y193858D01*
X552002Y193948D01*
X551957Y194036D01*
X551907Y194123D01*
X551855Y194207D01*
X551799Y194290D01*
X551741Y194370D01*
X551679Y194448D01*
X551614Y194523D01*
X551546Y194596D01*
X551476Y194666D01*
X551403Y194734D01*
X551328Y194799D01*
X551250Y194861D01*
X551170Y194919D01*
X551087Y194975D01*
X551003Y195027D01*
X550916Y195077D01*
X550828Y195122D01*
X550738Y195165D01*
X550646Y195204D01*
X550553Y195239D01*
X550459Y195271D01*
X550364Y195299D01*
X550268Y195324D01*
X550170Y195345D01*
X550072Y195362D01*
X549974Y195375D01*
X549875Y195384D01*
X549775Y195390D01*
X549676Y195392D01*
X548377Y195392D01*
X548278Y195390D01*
X548178Y195384D01*
X548079Y195375D01*
X547981Y195362D01*
X547883Y195345D01*
X547785Y195324D01*
X547689Y195299D01*
X547594Y195271D01*
X547500Y195239D01*
X547407Y195204D01*
X547315Y195165D01*
X547225Y195122D01*
X547137Y195077D01*
X547050Y195027D01*
X546966Y194975D01*
X546883Y194919D01*
X546803Y194861D01*
X546725Y194799D01*
X546650Y194734D01*
X546577Y194666D01*
X546507Y194596D01*
X546439Y194523D01*
X546374Y194448D01*
X546312Y194370D01*
X546254Y194290D01*
X546198Y194207D01*
X546146Y194123D01*
X546096Y194036D01*
X546051Y193948D01*
X546008Y193858D01*
X545969Y193766D01*
X545934Y193673D01*
X545902Y193579D01*
X545874Y193484D01*
X545849Y193388D01*
X545828Y193290D01*
X545811Y193192D01*
X545798Y193094D01*
X545789Y192995D01*
X545783Y192895D01*
X545781Y192796D01*
X545781Y188901D01*
X540588Y188901D01*
X540588Y195392D01*
D14*
X538840Y194900D02*
X583840Y194900D01*
X538840Y194900D02*
X538840Y6400D01*
X583840Y6400D01*
X583840Y194900D01*
D11*
X574840Y5400D02*
X574840Y-9100D01*
X564840Y-9100D01*
X564840Y-4100D01*
X557840Y-4100D01*
X557840Y-9100D01*
X547840Y-9100D01*
X547840Y5400D01*
D13*
X588848Y177545D02*
X600532Y177545D01*
X588848Y177545D02*
X588848Y180790D01*
X588850Y180903D01*
X588856Y181016D01*
X588866Y181129D01*
X588880Y181242D01*
X588897Y181354D01*
X588919Y181465D01*
X588944Y181575D01*
X588974Y181685D01*
X589007Y181793D01*
X589044Y181900D01*
X589084Y182006D01*
X589129Y182110D01*
X589177Y182213D01*
X589228Y182314D01*
X589283Y182413D01*
X589341Y182510D01*
X589403Y182605D01*
X589468Y182698D01*
X589536Y182788D01*
X589607Y182876D01*
X589682Y182962D01*
X589759Y183045D01*
X589839Y183125D01*
X589922Y183202D01*
X590008Y183277D01*
X590096Y183348D01*
X590186Y183416D01*
X590279Y183481D01*
X590374Y183543D01*
X590471Y183601D01*
X590570Y183656D01*
X590671Y183707D01*
X590774Y183755D01*
X590878Y183800D01*
X590984Y183840D01*
X591091Y183877D01*
X591199Y183910D01*
X591309Y183940D01*
X591419Y183965D01*
X591530Y183987D01*
X591642Y184004D01*
X591755Y184018D01*
X591868Y184028D01*
X591981Y184034D01*
X592094Y184036D01*
X592207Y184034D01*
X592320Y184028D01*
X592433Y184018D01*
X592546Y184004D01*
X592658Y183987D01*
X592769Y183965D01*
X592879Y183940D01*
X592989Y183910D01*
X593097Y183877D01*
X593204Y183840D01*
X593310Y183800D01*
X593414Y183755D01*
X593517Y183707D01*
X593618Y183656D01*
X593717Y183601D01*
X593814Y183543D01*
X593909Y183481D01*
X594002Y183416D01*
X594092Y183348D01*
X594180Y183277D01*
X594266Y183202D01*
X594349Y183125D01*
X594429Y183045D01*
X594506Y182962D01*
X594581Y182876D01*
X594652Y182788D01*
X594720Y182698D01*
X594785Y182605D01*
X594847Y182510D01*
X594905Y182413D01*
X594960Y182314D01*
X595011Y182213D01*
X595059Y182110D01*
X595104Y182006D01*
X595144Y181900D01*
X595181Y181793D01*
X595214Y181685D01*
X595244Y181575D01*
X595269Y181465D01*
X595291Y181354D01*
X595308Y181242D01*
X595322Y181129D01*
X595332Y181016D01*
X595338Y180903D01*
X595340Y180790D01*
X595339Y180790D02*
X595339Y177545D01*
X595339Y181439D02*
X600532Y184036D01*
X594041Y188901D02*
X594041Y192796D01*
X594043Y192895D01*
X594049Y192995D01*
X594058Y193094D01*
X594071Y193192D01*
X594088Y193290D01*
X594109Y193388D01*
X594134Y193484D01*
X594162Y193579D01*
X594194Y193673D01*
X594229Y193766D01*
X594268Y193858D01*
X594311Y193948D01*
X594356Y194036D01*
X594406Y194123D01*
X594458Y194207D01*
X594514Y194290D01*
X594572Y194370D01*
X594634Y194448D01*
X594699Y194523D01*
X594767Y194596D01*
X594837Y194666D01*
X594910Y194734D01*
X594985Y194799D01*
X595063Y194861D01*
X595143Y194919D01*
X595226Y194975D01*
X595310Y195027D01*
X595397Y195077D01*
X595485Y195122D01*
X595575Y195165D01*
X595667Y195204D01*
X595760Y195239D01*
X595854Y195271D01*
X595949Y195299D01*
X596045Y195324D01*
X596143Y195345D01*
X596241Y195362D01*
X596339Y195375D01*
X596438Y195384D01*
X596538Y195390D01*
X596637Y195392D01*
X597286Y195392D01*
X597399Y195390D01*
X597512Y195384D01*
X597625Y195374D01*
X597738Y195360D01*
X597850Y195343D01*
X597961Y195321D01*
X598071Y195296D01*
X598181Y195266D01*
X598289Y195233D01*
X598396Y195196D01*
X598502Y195156D01*
X598606Y195111D01*
X598709Y195063D01*
X598810Y195012D01*
X598909Y194957D01*
X599006Y194899D01*
X599101Y194837D01*
X599194Y194772D01*
X599284Y194704D01*
X599372Y194633D01*
X599458Y194558D01*
X599541Y194481D01*
X599621Y194401D01*
X599698Y194318D01*
X599773Y194232D01*
X599844Y194144D01*
X599912Y194054D01*
X599977Y193961D01*
X600039Y193866D01*
X600097Y193769D01*
X600152Y193670D01*
X600203Y193569D01*
X600251Y193466D01*
X600296Y193362D01*
X600336Y193256D01*
X600373Y193149D01*
X600406Y193041D01*
X600436Y192931D01*
X600461Y192821D01*
X600483Y192710D01*
X600500Y192598D01*
X600514Y192485D01*
X600524Y192372D01*
X600530Y192259D01*
X600532Y192146D01*
X600530Y192033D01*
X600524Y191920D01*
X600514Y191807D01*
X600500Y191694D01*
X600483Y191582D01*
X600461Y191471D01*
X600436Y191361D01*
X600406Y191251D01*
X600373Y191143D01*
X600336Y191036D01*
X600296Y190930D01*
X600251Y190826D01*
X600203Y190723D01*
X600152Y190622D01*
X600097Y190523D01*
X600039Y190426D01*
X599977Y190331D01*
X599912Y190238D01*
X599844Y190148D01*
X599773Y190060D01*
X599698Y189974D01*
X599621Y189891D01*
X599541Y189811D01*
X599458Y189734D01*
X599372Y189659D01*
X599284Y189588D01*
X599194Y189520D01*
X599101Y189455D01*
X599006Y189393D01*
X598909Y189335D01*
X598810Y189280D01*
X598709Y189229D01*
X598606Y189181D01*
X598502Y189136D01*
X598396Y189096D01*
X598289Y189059D01*
X598181Y189026D01*
X598071Y188996D01*
X597961Y188971D01*
X597850Y188949D01*
X597738Y188932D01*
X597625Y188918D01*
X597512Y188908D01*
X597399Y188902D01*
X597286Y188900D01*
X597286Y188901D02*
X594041Y188901D01*
X593898Y188903D01*
X593755Y188909D01*
X593612Y188919D01*
X593470Y188933D01*
X593328Y188950D01*
X593186Y188972D01*
X593045Y188997D01*
X592905Y189027D01*
X592766Y189060D01*
X592628Y189097D01*
X592491Y189138D01*
X592355Y189182D01*
X592220Y189231D01*
X592087Y189283D01*
X591955Y189338D01*
X591825Y189398D01*
X591696Y189461D01*
X591569Y189527D01*
X591445Y189597D01*
X591322Y189670D01*
X591201Y189747D01*
X591082Y189826D01*
X590966Y189910D01*
X590851Y189996D01*
X590740Y190085D01*
X590631Y190178D01*
X590524Y190273D01*
X590420Y190372D01*
X590319Y190473D01*
X590220Y190577D01*
X590125Y190683D01*
X590032Y190793D01*
X589943Y190904D01*
X589857Y191018D01*
X589774Y191135D01*
X589694Y191254D01*
X589617Y191375D01*
X589544Y191497D01*
X589474Y191622D01*
X589408Y191749D01*
X589345Y191878D01*
X589285Y192008D01*
X589230Y192140D01*
X589178Y192273D01*
X589129Y192408D01*
X589085Y192544D01*
X589044Y192681D01*
X589007Y192819D01*
X588974Y192958D01*
X588944Y193098D01*
X588919Y193239D01*
X588897Y193381D01*
X588880Y193523D01*
X588866Y193665D01*
X588856Y193808D01*
X588850Y193951D01*
X588848Y194094D01*
D11*
X50800Y68580D02*
X50800Y60960D01*
X54610Y64770D02*
X46990Y64770D01*
X16510Y91440D02*
X16520Y92282D01*
X16551Y93123D01*
X16603Y93963D01*
X16675Y94801D01*
X16768Y95637D01*
X16881Y96471D01*
X17015Y97302D01*
X17169Y98130D01*
X17343Y98953D01*
X17538Y99772D01*
X17752Y100586D01*
X17987Y101394D01*
X18241Y102196D01*
X18514Y102992D01*
X18808Y103781D01*
X19120Y104562D01*
X19452Y105336D01*
X19802Y106101D01*
X20171Y106857D01*
X20559Y107604D01*
X20965Y108341D01*
X21388Y109069D01*
X21830Y109785D01*
X22289Y110491D01*
X22765Y111184D01*
X23258Y111867D01*
X23768Y112536D01*
X24293Y113193D01*
X24835Y113837D01*
X25393Y114468D01*
X25966Y115084D01*
X26553Y115687D01*
X27156Y116274D01*
X27772Y116847D01*
X28403Y117405D01*
X29047Y117947D01*
X29704Y118472D01*
X30373Y118982D01*
X31056Y119475D01*
X31749Y119951D01*
X32455Y120410D01*
X33171Y120852D01*
X33899Y121275D01*
X34636Y121681D01*
X35383Y122069D01*
X36139Y122438D01*
X36904Y122788D01*
X37678Y123120D01*
X38459Y123432D01*
X39248Y123726D01*
X40044Y123999D01*
X40846Y124253D01*
X41654Y124488D01*
X42468Y124702D01*
X43287Y124897D01*
X44110Y125071D01*
X44938Y125225D01*
X45769Y125359D01*
X46603Y125472D01*
X47439Y125565D01*
X48277Y125637D01*
X49117Y125689D01*
X49958Y125720D01*
X50800Y125730D01*
X51642Y125720D01*
X52483Y125689D01*
X53323Y125637D01*
X54161Y125565D01*
X54997Y125472D01*
X55831Y125359D01*
X56662Y125225D01*
X57490Y125071D01*
X58313Y124897D01*
X59132Y124702D01*
X59946Y124488D01*
X60754Y124253D01*
X61556Y123999D01*
X62352Y123726D01*
X63141Y123432D01*
X63922Y123120D01*
X64696Y122788D01*
X65461Y122438D01*
X66217Y122069D01*
X66964Y121681D01*
X67701Y121275D01*
X68429Y120852D01*
X69145Y120410D01*
X69851Y119951D01*
X70544Y119475D01*
X71227Y118982D01*
X71896Y118472D01*
X72553Y117947D01*
X73197Y117405D01*
X73828Y116847D01*
X74444Y116274D01*
X75047Y115687D01*
X75634Y115084D01*
X76207Y114468D01*
X76765Y113837D01*
X77307Y113193D01*
X77832Y112536D01*
X78342Y111867D01*
X78835Y111184D01*
X79311Y110491D01*
X79770Y109785D01*
X80212Y109069D01*
X80635Y108341D01*
X81041Y107604D01*
X81429Y106857D01*
X81798Y106101D01*
X82148Y105336D01*
X82480Y104562D01*
X82792Y103781D01*
X83086Y102992D01*
X83359Y102196D01*
X83613Y101394D01*
X83848Y100586D01*
X84062Y99772D01*
X84257Y98953D01*
X84431Y98130D01*
X84585Y97302D01*
X84719Y96471D01*
X84832Y95637D01*
X84925Y94801D01*
X84997Y93963D01*
X85049Y93123D01*
X85080Y92282D01*
X85090Y91440D01*
X85080Y90598D01*
X85049Y89757D01*
X84997Y88917D01*
X84925Y88079D01*
X84832Y87243D01*
X84719Y86409D01*
X84585Y85578D01*
X84431Y84750D01*
X84257Y83927D01*
X84062Y83108D01*
X83848Y82294D01*
X83613Y81486D01*
X83359Y80684D01*
X83086Y79888D01*
X82792Y79099D01*
X82480Y78318D01*
X82148Y77544D01*
X81798Y76779D01*
X81429Y76023D01*
X81041Y75276D01*
X80635Y74539D01*
X80212Y73811D01*
X79770Y73095D01*
X79311Y72389D01*
X78835Y71696D01*
X78342Y71013D01*
X77832Y70344D01*
X77307Y69687D01*
X76765Y69043D01*
X76207Y68412D01*
X75634Y67796D01*
X75047Y67193D01*
X74444Y66606D01*
X73828Y66033D01*
X73197Y65475D01*
X72553Y64933D01*
X71896Y64408D01*
X71227Y63898D01*
X70544Y63405D01*
X69851Y62929D01*
X69145Y62470D01*
X68429Y62028D01*
X67701Y61605D01*
X66964Y61199D01*
X66217Y60811D01*
X65461Y60442D01*
X64696Y60092D01*
X63922Y59760D01*
X63141Y59448D01*
X62352Y59154D01*
X61556Y58881D01*
X60754Y58627D01*
X59946Y58392D01*
X59132Y58178D01*
X58313Y57983D01*
X57490Y57809D01*
X56662Y57655D01*
X55831Y57521D01*
X54997Y57408D01*
X54161Y57315D01*
X53323Y57243D01*
X52483Y57191D01*
X51642Y57160D01*
X50800Y57150D01*
X49958Y57160D01*
X49117Y57191D01*
X48277Y57243D01*
X47439Y57315D01*
X46603Y57408D01*
X45769Y57521D01*
X44938Y57655D01*
X44110Y57809D01*
X43287Y57983D01*
X42468Y58178D01*
X41654Y58392D01*
X40846Y58627D01*
X40044Y58881D01*
X39248Y59154D01*
X38459Y59448D01*
X37678Y59760D01*
X36904Y60092D01*
X36139Y60442D01*
X35383Y60811D01*
X34636Y61199D01*
X33899Y61605D01*
X33171Y62028D01*
X32455Y62470D01*
X31749Y62929D01*
X31056Y63405D01*
X30373Y63898D01*
X29704Y64408D01*
X29047Y64933D01*
X28403Y65475D01*
X27772Y66033D01*
X27156Y66606D01*
X26553Y67193D01*
X25966Y67796D01*
X25393Y68412D01*
X24835Y69043D01*
X24293Y69687D01*
X23768Y70344D01*
X23258Y71013D01*
X22765Y71696D01*
X22289Y72389D01*
X21830Y73095D01*
X21388Y73811D01*
X20965Y74539D01*
X20559Y75276D01*
X20171Y76023D01*
X19802Y76779D01*
X19452Y77544D01*
X19120Y78318D01*
X18808Y79099D01*
X18514Y79888D01*
X18241Y80684D01*
X17987Y81486D01*
X17752Y82294D01*
X17538Y83108D01*
X17343Y83927D01*
X17169Y84750D01*
X17015Y85578D01*
X16881Y86409D01*
X16768Y87243D01*
X16675Y88079D01*
X16603Y88917D01*
X16551Y89757D01*
X16520Y90598D01*
X16510Y91440D01*
D12*
X29845Y125095D02*
X29845Y127635D01*
X29845Y125095D02*
X29843Y124995D01*
X29837Y124896D01*
X29827Y124796D01*
X29814Y124698D01*
X29796Y124599D01*
X29775Y124502D01*
X29750Y124406D01*
X29721Y124310D01*
X29688Y124216D01*
X29652Y124123D01*
X29612Y124032D01*
X29568Y123942D01*
X29521Y123854D01*
X29471Y123768D01*
X29417Y123684D01*
X29360Y123602D01*
X29300Y123523D01*
X29236Y123445D01*
X29170Y123371D01*
X29101Y123299D01*
X29029Y123230D01*
X28955Y123164D01*
X28877Y123100D01*
X28798Y123040D01*
X28716Y122983D01*
X28632Y122929D01*
X28546Y122879D01*
X28458Y122832D01*
X28368Y122788D01*
X28277Y122748D01*
X28184Y122712D01*
X28090Y122679D01*
X27994Y122650D01*
X27898Y122625D01*
X27801Y122604D01*
X27702Y122586D01*
X27604Y122573D01*
X27504Y122563D01*
X27405Y122557D01*
X27305Y122555D01*
X20955Y122555D01*
X20855Y122557D01*
X20756Y122563D01*
X20656Y122573D01*
X20558Y122586D01*
X20459Y122604D01*
X20362Y122625D01*
X20266Y122650D01*
X20170Y122679D01*
X20076Y122712D01*
X19983Y122748D01*
X19892Y122788D01*
X19802Y122832D01*
X19714Y122879D01*
X19628Y122929D01*
X19544Y122983D01*
X19462Y123040D01*
X19383Y123100D01*
X19305Y123164D01*
X19231Y123230D01*
X19159Y123299D01*
X19090Y123371D01*
X19024Y123445D01*
X18960Y123523D01*
X18900Y123602D01*
X18843Y123684D01*
X18789Y123768D01*
X18739Y123854D01*
X18692Y123942D01*
X18648Y124032D01*
X18608Y124123D01*
X18572Y124216D01*
X18539Y124310D01*
X18510Y124406D01*
X18485Y124502D01*
X18464Y124599D01*
X18446Y124698D01*
X18433Y124796D01*
X18423Y124896D01*
X18417Y124995D01*
X18415Y125095D01*
X18415Y127635D01*
X18415Y134657D02*
X27305Y132117D01*
X27305Y138467D01*
X24765Y136562D02*
X29845Y136562D01*
M02*
