G04 EAGLE Gerber RS-274X export*
G75*
%MOMM*%
%FSLAX34Y34*%
%LPD*%
%INSolder stop mask SOL*%
%IPPOS*%
%AMOC8*
5,1,8,0,0,1.08239X$1,22.5*%
G01*
%ADD10R,1.703200X1.503200*%
%ADD11R,2.403200X0.803200*%
%ADD12P,1.869504X8X22.500000*%
%ADD13C,1.727200*%
%ADD14R,1.503200X1.703200*%
%ADD15R,3.003200X3.003200*%
%ADD16C,1.879600*%
%ADD17P,1.951982X8X112.500000*%
%ADD18C,1.803400*%
%ADD19C,1.803200*%


D10*
X157480Y42520D03*
X157480Y23520D03*
X215900Y20980D03*
X215900Y39980D03*
D11*
X306740Y50800D03*
X358740Y50800D03*
X306740Y38100D03*
X306740Y63500D03*
X306740Y76200D03*
X358740Y38100D03*
X358740Y63500D03*
X358740Y76200D03*
X306740Y101600D03*
X358740Y101600D03*
X306740Y88900D03*
X306740Y114300D03*
X358740Y88900D03*
X358740Y114300D03*
D12*
X444500Y226060D03*
X444500Y200660D03*
X327660Y228600D03*
X269240Y226060D03*
X381000Y226060D03*
X269240Y200660D03*
X327660Y200660D03*
X381000Y200660D03*
D13*
X48260Y220980D02*
X48260Y236220D01*
X73660Y236220D02*
X73660Y220980D01*
X99060Y220980D02*
X99060Y236220D01*
X124460Y236220D02*
X124460Y220980D01*
X149860Y220980D02*
X149860Y236220D01*
D14*
X224180Y88900D03*
X243180Y88900D03*
X150520Y96520D03*
X169520Y96520D03*
D13*
X35560Y170180D02*
X20320Y170180D01*
X20320Y144780D02*
X35560Y144780D01*
X43180Y33020D02*
X43180Y17780D01*
X68580Y17780D02*
X68580Y33020D01*
X177800Y220980D02*
X177800Y236220D01*
X203200Y236220D02*
X203200Y220980D01*
D15*
X120650Y48260D03*
X120650Y124460D03*
X425450Y124460D03*
X425450Y48260D03*
D16*
X525780Y165100D03*
X500380Y88900D03*
X525780Y38100D03*
X574040Y165100D03*
X548640Y88900D03*
X574040Y38100D03*
D17*
X50800Y104140D03*
D18*
X50800Y78740D03*
D19*
X438150Y158750D03*
X187960Y36830D03*
X260350Y57150D03*
X93980Y91440D03*
X187960Y64770D03*
X198120Y132080D03*
X391160Y55880D03*
X236220Y213360D03*
X275590Y148590D03*
X393700Y111760D03*
X274320Y99060D03*
M02*
