G04 EAGLE Gerber RS-274X export*
G75*
%MOMM*%
%FSLAX34Y34*%
%LPD*%
%INComponent side*%
%IPPOS*%
%AMOC8*
5,1,8,0,0,1.08239X$1,22.5*%
G01*
%ADD10P,1.649562X8X22.500000*%
%ADD11C,1.524000*%
%ADD12R,2.800000X2.800000*%
%ADD13C,1.676400*%
%ADD14P,1.732040X8X112.500000*%
%ADD15C,1.600200*%
%ADD16C,0.609600*%
%ADD17C,1.600000*%

G36*
X593418Y-7616D02*
X593418Y-7616D01*
X593437Y-7618D01*
X593539Y-7596D01*
X593641Y-7580D01*
X593658Y-7570D01*
X593678Y-7566D01*
X593767Y-7513D01*
X593858Y-7464D01*
X593872Y-7450D01*
X593889Y-7440D01*
X593956Y-7361D01*
X594028Y-7286D01*
X594036Y-7268D01*
X594049Y-7253D01*
X594088Y-7157D01*
X594131Y-7063D01*
X594133Y-7043D01*
X594141Y-7025D01*
X594159Y-6858D01*
X594159Y263908D01*
X594156Y263928D01*
X594158Y263947D01*
X594136Y264049D01*
X594120Y264151D01*
X594110Y264168D01*
X594106Y264188D01*
X594053Y264277D01*
X594004Y264368D01*
X593990Y264382D01*
X593980Y264399D01*
X593901Y264466D01*
X593826Y264538D01*
X593808Y264546D01*
X593793Y264559D01*
X593697Y264598D01*
X593603Y264641D01*
X593583Y264643D01*
X593565Y264651D01*
X593398Y264669D01*
X-1778Y264669D01*
X-1798Y264666D01*
X-1817Y264668D01*
X-1919Y264646D01*
X-2021Y264630D01*
X-2038Y264620D01*
X-2058Y264616D01*
X-2147Y264563D01*
X-2238Y264514D01*
X-2252Y264500D01*
X-2269Y264490D01*
X-2336Y264411D01*
X-2408Y264336D01*
X-2416Y264318D01*
X-2429Y264303D01*
X-2468Y264207D01*
X-2511Y264113D01*
X-2513Y264093D01*
X-2521Y264075D01*
X-2539Y263908D01*
X-2539Y-6858D01*
X-2536Y-6878D01*
X-2538Y-6897D01*
X-2516Y-6999D01*
X-2500Y-7101D01*
X-2490Y-7118D01*
X-2486Y-7138D01*
X-2433Y-7227D01*
X-2384Y-7318D01*
X-2370Y-7332D01*
X-2360Y-7349D01*
X-2281Y-7416D01*
X-2206Y-7488D01*
X-2188Y-7496D01*
X-2173Y-7509D01*
X-2077Y-7548D01*
X-1983Y-7591D01*
X-1963Y-7593D01*
X-1945Y-7601D01*
X-1778Y-7619D01*
X593398Y-7619D01*
X593418Y-7616D01*
G37*
%LPC*%
G36*
X90797Y75439D02*
X90797Y75439D01*
X84916Y77875D01*
X80415Y82376D01*
X77979Y88257D01*
X77979Y94623D01*
X80415Y100504D01*
X82708Y102797D01*
X82761Y102871D01*
X82821Y102940D01*
X82833Y102970D01*
X82852Y102997D01*
X82879Y103083D01*
X82913Y103168D01*
X82917Y103209D01*
X82924Y103232D01*
X82923Y103264D01*
X82931Y103335D01*
X82931Y144968D01*
X82917Y145058D01*
X82909Y145149D01*
X82897Y145179D01*
X82892Y145211D01*
X82849Y145292D01*
X82813Y145375D01*
X82787Y145408D01*
X82776Y145428D01*
X82753Y145450D01*
X82708Y145506D01*
X38893Y189321D01*
X37211Y193382D01*
X37211Y209622D01*
X37197Y209712D01*
X37189Y209803D01*
X37177Y209833D01*
X37172Y209865D01*
X37129Y209946D01*
X37093Y210030D01*
X37067Y210062D01*
X37056Y210082D01*
X37033Y210105D01*
X36988Y210161D01*
X35017Y212132D01*
X32639Y217873D01*
X32639Y239327D01*
X35017Y245068D01*
X39412Y249463D01*
X45153Y251841D01*
X51367Y251841D01*
X57108Y249463D01*
X60422Y246149D01*
X60438Y246138D01*
X60450Y246122D01*
X60538Y246066D01*
X60621Y246006D01*
X60640Y246000D01*
X60657Y245989D01*
X60758Y245964D01*
X60857Y245933D01*
X60876Y245934D01*
X60896Y245929D01*
X60999Y245937D01*
X61102Y245940D01*
X61121Y245947D01*
X61141Y245948D01*
X61236Y245989D01*
X61333Y246024D01*
X61349Y246037D01*
X61367Y246045D01*
X61498Y246149D01*
X64812Y249463D01*
X70553Y251841D01*
X76767Y251841D01*
X82508Y249463D01*
X85822Y246149D01*
X85838Y246138D01*
X85850Y246122D01*
X85938Y246066D01*
X86021Y246006D01*
X86040Y246000D01*
X86057Y245989D01*
X86158Y245964D01*
X86257Y245933D01*
X86276Y245934D01*
X86296Y245929D01*
X86399Y245937D01*
X86502Y245940D01*
X86521Y245947D01*
X86541Y245948D01*
X86636Y245989D01*
X86733Y246024D01*
X86749Y246037D01*
X86767Y246045D01*
X86898Y246149D01*
X90212Y249463D01*
X95953Y251841D01*
X102167Y251841D01*
X107908Y249463D01*
X111222Y246149D01*
X111238Y246138D01*
X111250Y246122D01*
X111338Y246066D01*
X111421Y246006D01*
X111440Y246000D01*
X111457Y245989D01*
X111558Y245964D01*
X111657Y245933D01*
X111676Y245934D01*
X111696Y245929D01*
X111799Y245937D01*
X111902Y245940D01*
X111921Y245947D01*
X111941Y245948D01*
X112036Y245989D01*
X112133Y246024D01*
X112149Y246037D01*
X112167Y246045D01*
X112298Y246149D01*
X115612Y249463D01*
X121353Y251841D01*
X127567Y251841D01*
X133308Y249463D01*
X137703Y245068D01*
X140081Y239327D01*
X140081Y217873D01*
X138211Y213359D01*
X138184Y213245D01*
X138156Y213132D01*
X138156Y213125D01*
X138155Y213119D01*
X138166Y213003D01*
X138175Y212887D01*
X138177Y212881D01*
X138178Y212875D01*
X138226Y212767D01*
X138271Y212660D01*
X138276Y212654D01*
X138278Y212650D01*
X138291Y212636D01*
X138376Y212529D01*
X144054Y206852D01*
X144128Y206799D01*
X144197Y206739D01*
X144227Y206727D01*
X144253Y206708D01*
X144340Y206681D01*
X144425Y206647D01*
X144466Y206643D01*
X144488Y206636D01*
X144521Y206637D01*
X144592Y206629D01*
X168222Y206629D01*
X168293Y206640D01*
X168365Y206642D01*
X168414Y206660D01*
X168465Y206668D01*
X168529Y206702D01*
X168596Y206727D01*
X168637Y206759D01*
X168683Y206784D01*
X168732Y206836D01*
X168788Y206880D01*
X168816Y206924D01*
X168852Y206962D01*
X168882Y207027D01*
X168921Y207087D01*
X168934Y207138D01*
X168956Y207185D01*
X168963Y207256D01*
X168981Y207326D01*
X168977Y207378D01*
X168983Y207429D01*
X168967Y207500D01*
X168962Y207571D01*
X168941Y207619D01*
X168930Y207670D01*
X168894Y207731D01*
X168866Y207797D01*
X168821Y207853D01*
X168804Y207881D01*
X168786Y207896D01*
X168761Y207928D01*
X164557Y212132D01*
X162179Y217873D01*
X162179Y239327D01*
X164557Y245068D01*
X168952Y249463D01*
X174693Y251841D01*
X180907Y251841D01*
X186648Y249463D01*
X191043Y245068D01*
X193421Y239327D01*
X193421Y217873D01*
X191043Y212132D01*
X186839Y207928D01*
X186797Y207870D01*
X186748Y207818D01*
X186726Y207771D01*
X186696Y207729D01*
X186675Y207660D01*
X186644Y207595D01*
X186639Y207543D01*
X186623Y207493D01*
X186625Y207422D01*
X186617Y207351D01*
X186628Y207300D01*
X186630Y207248D01*
X186654Y207180D01*
X186670Y207110D01*
X186696Y207065D01*
X186714Y207017D01*
X186759Y206961D01*
X186796Y206899D01*
X186835Y206865D01*
X186868Y206825D01*
X186928Y206786D01*
X186983Y206739D01*
X187031Y206720D01*
X187075Y206692D01*
X187144Y206674D01*
X187211Y206647D01*
X187282Y206639D01*
X187313Y206631D01*
X187337Y206633D01*
X187378Y206629D01*
X213548Y206629D01*
X213638Y206643D01*
X213729Y206651D01*
X213759Y206663D01*
X213791Y206668D01*
X213872Y206711D01*
X213955Y206747D01*
X213988Y206773D01*
X214008Y206784D01*
X214030Y206807D01*
X214086Y206852D01*
X219996Y212762D01*
X220049Y212836D01*
X220109Y212905D01*
X220121Y212935D01*
X220140Y212961D01*
X220167Y213048D01*
X220201Y213133D01*
X220205Y213174D01*
X220212Y213196D01*
X220211Y213229D01*
X220219Y213300D01*
X220219Y216543D01*
X222655Y222424D01*
X227156Y226925D01*
X233037Y229361D01*
X239403Y229361D01*
X245284Y226925D01*
X249785Y222424D01*
X252221Y216543D01*
X252221Y210917D01*
X252228Y210872D01*
X252226Y210826D01*
X252248Y210751D01*
X252260Y210674D01*
X252282Y210634D01*
X252295Y210590D01*
X252339Y210526D01*
X252376Y210457D01*
X252409Y210425D01*
X252435Y210388D01*
X252498Y210341D01*
X252554Y210288D01*
X252596Y210268D01*
X252632Y210241D01*
X252706Y210217D01*
X252777Y210184D01*
X252823Y210179D01*
X252866Y210165D01*
X252944Y210165D01*
X253021Y210157D01*
X253066Y210167D01*
X253112Y210167D01*
X253244Y210205D01*
X253262Y210209D01*
X253266Y210212D01*
X253273Y210214D01*
X256882Y211709D01*
X257882Y211709D01*
X257972Y211723D01*
X258063Y211731D01*
X258093Y211743D01*
X258125Y211748D01*
X258206Y211791D01*
X258290Y211827D01*
X258322Y211853D01*
X258343Y211864D01*
X258365Y211887D01*
X258421Y211932D01*
X259311Y212822D01*
X259322Y212838D01*
X259338Y212850D01*
X259394Y212937D01*
X259454Y213021D01*
X259460Y213041D01*
X259471Y213057D01*
X259496Y213158D01*
X259527Y213257D01*
X259526Y213276D01*
X259531Y213296D01*
X259523Y213399D01*
X259520Y213502D01*
X259513Y213521D01*
X259512Y213541D01*
X259471Y213636D01*
X259436Y213733D01*
X259423Y213749D01*
X259415Y213767D01*
X259311Y213898D01*
X253619Y219590D01*
X253619Y232530D01*
X262770Y241681D01*
X275710Y241681D01*
X284861Y232530D01*
X284861Y219590D01*
X279169Y213898D01*
X279158Y213882D01*
X279142Y213870D01*
X279086Y213782D01*
X279026Y213699D01*
X279020Y213680D01*
X279009Y213663D01*
X278984Y213562D01*
X278953Y213463D01*
X278954Y213444D01*
X278949Y213424D01*
X278957Y213321D01*
X278960Y213218D01*
X278967Y213199D01*
X278968Y213179D01*
X279009Y213084D01*
X279044Y212987D01*
X279057Y212971D01*
X279065Y212953D01*
X279169Y212822D01*
X284861Y207130D01*
X284861Y194190D01*
X275739Y185068D01*
X275697Y185010D01*
X275648Y184958D01*
X275626Y184911D01*
X275596Y184869D01*
X275575Y184800D01*
X275544Y184735D01*
X275539Y184683D01*
X275523Y184633D01*
X275525Y184562D01*
X275517Y184491D01*
X275528Y184440D01*
X275530Y184388D01*
X275554Y184320D01*
X275570Y184250D01*
X275596Y184205D01*
X275614Y184157D01*
X275659Y184101D01*
X275696Y184039D01*
X275735Y184005D01*
X275768Y183965D01*
X275828Y183926D01*
X275883Y183879D01*
X275931Y183860D01*
X275975Y183832D01*
X276044Y183814D01*
X276111Y183787D01*
X276182Y183779D01*
X276213Y183771D01*
X276237Y183773D01*
X276278Y183769D01*
X294828Y183769D01*
X294918Y183783D01*
X295009Y183791D01*
X295039Y183803D01*
X295071Y183808D01*
X295152Y183851D01*
X295235Y183887D01*
X295268Y183913D01*
X295288Y183924D01*
X295310Y183947D01*
X295366Y183992D01*
X311816Y200442D01*
X311861Y200503D01*
X311891Y200535D01*
X311896Y200547D01*
X311929Y200585D01*
X311941Y200615D01*
X311960Y200641D01*
X311987Y200728D01*
X312021Y200813D01*
X312025Y200854D01*
X312032Y200876D01*
X312031Y200909D01*
X312039Y200980D01*
X312039Y207130D01*
X319001Y214092D01*
X319012Y214108D01*
X319028Y214120D01*
X319084Y214208D01*
X319144Y214291D01*
X319150Y214310D01*
X319161Y214327D01*
X319186Y214428D01*
X319217Y214527D01*
X319216Y214546D01*
X319221Y214566D01*
X319213Y214669D01*
X319210Y214772D01*
X319203Y214791D01*
X319202Y214811D01*
X319161Y214906D01*
X319126Y215003D01*
X319113Y215019D01*
X319105Y215037D01*
X319001Y215168D01*
X312039Y222130D01*
X312039Y235070D01*
X321190Y244221D01*
X334130Y244221D01*
X343281Y235070D01*
X343281Y222130D01*
X336319Y215168D01*
X336308Y215152D01*
X336292Y215140D01*
X336236Y215052D01*
X336176Y214969D01*
X336170Y214950D01*
X336159Y214933D01*
X336134Y214832D01*
X336103Y214733D01*
X336104Y214714D01*
X336099Y214694D01*
X336107Y214591D01*
X336110Y214488D01*
X336117Y214469D01*
X336118Y214449D01*
X336159Y214354D01*
X336194Y214257D01*
X336207Y214241D01*
X336215Y214223D01*
X336319Y214092D01*
X343281Y207130D01*
X343281Y194190D01*
X334130Y185039D01*
X327980Y185039D01*
X327890Y185025D01*
X327799Y185017D01*
X327769Y185005D01*
X327737Y185000D01*
X327656Y184957D01*
X327573Y184921D01*
X327540Y184895D01*
X327520Y184884D01*
X327498Y184861D01*
X327442Y184816D01*
X305979Y163353D01*
X303613Y162373D01*
X303530Y162322D01*
X303444Y162276D01*
X303426Y162257D01*
X303403Y162244D01*
X303341Y162169D01*
X303274Y162098D01*
X303263Y162074D01*
X303247Y162054D01*
X303212Y161963D01*
X303171Y161875D01*
X303168Y161849D01*
X303158Y161825D01*
X303154Y161727D01*
X303144Y161631D01*
X303149Y161605D01*
X303148Y161579D01*
X303175Y161485D01*
X303196Y161390D01*
X303209Y161368D01*
X303217Y161343D01*
X303272Y161263D01*
X303322Y161179D01*
X303342Y161162D01*
X303357Y161141D01*
X303435Y161082D01*
X303509Y161019D01*
X303533Y161009D01*
X303554Y160994D01*
X303647Y160964D01*
X303737Y160927D01*
X303770Y160924D01*
X303788Y160918D01*
X303821Y160918D01*
X303904Y160909D01*
X329858Y160909D01*
X333919Y159227D01*
X340904Y152242D01*
X340978Y152189D01*
X341047Y152129D01*
X341077Y152117D01*
X341103Y152098D01*
X341190Y152071D01*
X341275Y152037D01*
X341316Y152033D01*
X341338Y152026D01*
X341371Y152027D01*
X341442Y152019D01*
X349438Y152019D01*
X349528Y152033D01*
X349619Y152041D01*
X349649Y152053D01*
X349681Y152058D01*
X349762Y152101D01*
X349845Y152137D01*
X349878Y152163D01*
X349898Y152174D01*
X349920Y152197D01*
X349976Y152242D01*
X369728Y171994D01*
X369781Y172068D01*
X369841Y172137D01*
X369853Y172167D01*
X369872Y172193D01*
X369899Y172280D01*
X369933Y172365D01*
X369937Y172406D01*
X369944Y172428D01*
X369943Y172461D01*
X369951Y172532D01*
X369951Y189302D01*
X369937Y189392D01*
X369929Y189483D01*
X369917Y189513D01*
X369912Y189545D01*
X369869Y189626D01*
X369833Y189710D01*
X369807Y189742D01*
X369796Y189763D01*
X369773Y189785D01*
X369728Y189841D01*
X365379Y194190D01*
X365379Y207130D01*
X371071Y212822D01*
X371082Y212838D01*
X371098Y212850D01*
X371154Y212938D01*
X371214Y213021D01*
X371220Y213040D01*
X371231Y213057D01*
X371256Y213158D01*
X371287Y213257D01*
X371286Y213276D01*
X371291Y213296D01*
X371283Y213399D01*
X371280Y213502D01*
X371273Y213521D01*
X371272Y213541D01*
X371231Y213636D01*
X371196Y213733D01*
X371183Y213749D01*
X371175Y213767D01*
X371071Y213898D01*
X365379Y219590D01*
X365379Y232530D01*
X374530Y241681D01*
X387470Y241681D01*
X396621Y232530D01*
X396621Y219590D01*
X390929Y213898D01*
X390918Y213882D01*
X390902Y213870D01*
X390846Y213782D01*
X390786Y213699D01*
X390780Y213680D01*
X390769Y213663D01*
X390744Y213562D01*
X390713Y213463D01*
X390714Y213444D01*
X390709Y213424D01*
X390717Y213321D01*
X390720Y213218D01*
X390727Y213199D01*
X390728Y213179D01*
X390769Y213084D01*
X390804Y212987D01*
X390817Y212971D01*
X390825Y212953D01*
X390929Y212822D01*
X396621Y207130D01*
X396621Y194190D01*
X392272Y189841D01*
X392219Y189767D01*
X392159Y189697D01*
X392147Y189667D01*
X392128Y189641D01*
X392101Y189554D01*
X392067Y189469D01*
X392063Y189428D01*
X392056Y189406D01*
X392057Y189374D01*
X392049Y189302D01*
X392049Y165442D01*
X390367Y161381D01*
X360589Y131603D01*
X356528Y129921D01*
X334352Y129921D01*
X330291Y131603D01*
X323306Y138588D01*
X323232Y138641D01*
X323163Y138701D01*
X323133Y138713D01*
X323107Y138732D01*
X323020Y138759D01*
X322935Y138793D01*
X322894Y138797D01*
X322872Y138804D01*
X322839Y138803D01*
X322768Y138811D01*
X288755Y138811D01*
X288665Y138797D01*
X288574Y138789D01*
X288544Y138777D01*
X288512Y138772D01*
X288432Y138729D01*
X288348Y138693D01*
X288316Y138667D01*
X288295Y138656D01*
X288273Y138633D01*
X288217Y138588D01*
X284654Y135025D01*
X278773Y132589D01*
X272407Y132589D01*
X266526Y135025D01*
X262025Y139526D01*
X259589Y145407D01*
X259589Y151773D01*
X260452Y153856D01*
X260474Y153950D01*
X260503Y154043D01*
X260502Y154070D01*
X260508Y154095D01*
X260499Y154192D01*
X260497Y154289D01*
X260488Y154314D01*
X260485Y154340D01*
X260446Y154429D01*
X260412Y154520D01*
X260396Y154541D01*
X260385Y154565D01*
X260319Y154636D01*
X260258Y154712D01*
X260236Y154726D01*
X260219Y154746D01*
X260133Y154793D01*
X260051Y154845D01*
X260026Y154852D01*
X260003Y154864D01*
X259907Y154882D01*
X259813Y154905D01*
X259787Y154903D01*
X259761Y154908D01*
X259665Y154894D01*
X259568Y154886D01*
X259544Y154876D01*
X259518Y154872D01*
X259431Y154828D01*
X259341Y154790D01*
X259316Y154770D01*
X259299Y154761D01*
X259275Y154737D01*
X259210Y154685D01*
X245019Y140493D01*
X240958Y138811D01*
X122262Y138811D01*
X118201Y140493D01*
X106328Y152366D01*
X106270Y152408D01*
X106218Y152458D01*
X106171Y152480D01*
X106129Y152510D01*
X106060Y152531D01*
X105995Y152561D01*
X105943Y152567D01*
X105893Y152582D01*
X105822Y152581D01*
X105751Y152588D01*
X105700Y152577D01*
X105648Y152576D01*
X105580Y152551D01*
X105510Y152536D01*
X105465Y152509D01*
X105417Y152492D01*
X105361Y152447D01*
X105299Y152410D01*
X105265Y152370D01*
X105225Y152338D01*
X105186Y152278D01*
X105139Y152223D01*
X105120Y152175D01*
X105092Y152131D01*
X105074Y152061D01*
X105047Y151995D01*
X105039Y151924D01*
X105031Y151892D01*
X105033Y151869D01*
X105029Y151828D01*
X105029Y103335D01*
X105043Y103245D01*
X105051Y103154D01*
X105063Y103124D01*
X105068Y103092D01*
X105111Y103012D01*
X105147Y102928D01*
X105173Y102896D01*
X105184Y102875D01*
X105207Y102853D01*
X105252Y102797D01*
X107545Y100504D01*
X109981Y94623D01*
X109981Y88257D01*
X107545Y82376D01*
X103044Y77875D01*
X97163Y75439D01*
X90797Y75439D01*
G37*
%LPD*%
%LPC*%
G36*
X296252Y8001D02*
X296252Y8001D01*
X292191Y9683D01*
X288976Y12898D01*
X260948Y40926D01*
X260875Y40979D01*
X260805Y41039D01*
X260775Y41051D01*
X260749Y41070D01*
X260662Y41097D01*
X260577Y41131D01*
X260536Y41135D01*
X260514Y41142D01*
X260481Y41141D01*
X260410Y41149D01*
X260290Y41149D01*
X260200Y41135D01*
X260109Y41127D01*
X260079Y41115D01*
X260047Y41110D01*
X259966Y41067D01*
X259883Y41031D01*
X259850Y41005D01*
X259830Y40994D01*
X259808Y40971D01*
X259752Y40926D01*
X246289Y27463D01*
X242228Y25781D01*
X199855Y25781D01*
X199765Y25767D01*
X199674Y25759D01*
X199644Y25747D01*
X199612Y25742D01*
X199532Y25699D01*
X199448Y25663D01*
X199416Y25637D01*
X199395Y25626D01*
X199373Y25603D01*
X199317Y25558D01*
X197024Y23265D01*
X191143Y20829D01*
X184777Y20829D01*
X178896Y23265D01*
X174395Y27766D01*
X171959Y33647D01*
X171959Y40013D01*
X174395Y45894D01*
X178896Y50395D01*
X184777Y52831D01*
X191143Y52831D01*
X197024Y50395D01*
X199317Y48102D01*
X199391Y48049D01*
X199460Y47989D01*
X199490Y47977D01*
X199517Y47958D01*
X199603Y47931D01*
X199688Y47897D01*
X199729Y47893D01*
X199752Y47886D01*
X199784Y47887D01*
X199855Y47879D01*
X235138Y47879D01*
X235228Y47893D01*
X235319Y47901D01*
X235349Y47913D01*
X235381Y47918D01*
X235462Y47961D01*
X235545Y47997D01*
X235578Y48023D01*
X235598Y48034D01*
X235620Y48057D01*
X235676Y48102D01*
X244126Y56552D01*
X244169Y56610D01*
X244215Y56659D01*
X244223Y56676D01*
X244239Y56695D01*
X244251Y56725D01*
X244270Y56751D01*
X244294Y56829D01*
X244318Y56882D01*
X244320Y56896D01*
X244331Y56923D01*
X244335Y56964D01*
X244342Y56986D01*
X244341Y57019D01*
X244349Y57090D01*
X244349Y60333D01*
X246785Y66214D01*
X251286Y70715D01*
X257167Y73151D01*
X263533Y73151D01*
X269414Y70715D01*
X273915Y66214D01*
X276351Y60333D01*
X276351Y57090D01*
X276356Y57059D01*
X276355Y57048D01*
X276366Y56996D01*
X276373Y56909D01*
X276385Y56879D01*
X276390Y56847D01*
X276404Y56822D01*
X276407Y56807D01*
X276438Y56755D01*
X276469Y56683D01*
X276495Y56650D01*
X276506Y56630D01*
X276523Y56613D01*
X276533Y56596D01*
X276549Y56582D01*
X276574Y56552D01*
X302804Y30322D01*
X302878Y30269D01*
X302947Y30209D01*
X302977Y30197D01*
X303003Y30178D01*
X303090Y30151D01*
X303175Y30117D01*
X303216Y30113D01*
X303238Y30106D01*
X303271Y30107D01*
X303342Y30099D01*
X403374Y30099D01*
X403420Y30106D01*
X403466Y30104D01*
X403540Y30126D01*
X403617Y30138D01*
X403658Y30160D01*
X403702Y30173D01*
X403766Y30217D01*
X403835Y30254D01*
X403866Y30287D01*
X403904Y30313D01*
X403950Y30375D01*
X404004Y30432D01*
X404023Y30474D01*
X404051Y30510D01*
X404075Y30584D01*
X404108Y30655D01*
X404113Y30701D01*
X404127Y30744D01*
X404126Y30822D01*
X404135Y30899D01*
X404125Y30944D01*
X404124Y30990D01*
X404086Y31122D01*
X404082Y31140D01*
X404080Y31144D01*
X404078Y31151D01*
X403449Y32669D01*
X403449Y63851D01*
X404667Y66792D01*
X406918Y69043D01*
X409859Y70261D01*
X431510Y70261D01*
X431600Y70275D01*
X431691Y70283D01*
X431721Y70295D01*
X431753Y70300D01*
X431834Y70343D01*
X431917Y70379D01*
X431950Y70405D01*
X431970Y70416D01*
X431992Y70439D01*
X432048Y70484D01*
X447198Y85634D01*
X447251Y85708D01*
X447311Y85777D01*
X447323Y85807D01*
X447342Y85833D01*
X447369Y85920D01*
X447403Y86005D01*
X447407Y86046D01*
X447414Y86068D01*
X447413Y86101D01*
X447421Y86172D01*
X447421Y139888D01*
X447407Y139978D01*
X447399Y140069D01*
X447387Y140099D01*
X447382Y140131D01*
X447339Y140211D01*
X447303Y140295D01*
X447277Y140328D01*
X447266Y140348D01*
X447243Y140370D01*
X447198Y140426D01*
X444198Y143427D01*
X444103Y143495D01*
X444009Y143565D01*
X444003Y143567D01*
X443998Y143571D01*
X443887Y143605D01*
X443775Y143641D01*
X443769Y143641D01*
X443763Y143643D01*
X443646Y143640D01*
X443529Y143639D01*
X443522Y143637D01*
X443517Y143637D01*
X443499Y143630D01*
X443368Y143592D01*
X441333Y142749D01*
X434967Y142749D01*
X429086Y145185D01*
X424585Y149686D01*
X422149Y155567D01*
X422149Y161933D01*
X424585Y167814D01*
X429086Y172315D01*
X434967Y174751D01*
X441333Y174751D01*
X447214Y172315D01*
X451715Y167814D01*
X452119Y166838D01*
X452153Y166783D01*
X452179Y166722D01*
X452231Y166658D01*
X452248Y166629D01*
X452263Y166617D01*
X452284Y166592D01*
X453974Y164902D01*
X464622Y154254D01*
X466442Y152434D01*
X466500Y152392D01*
X466552Y152342D01*
X466599Y152320D01*
X466641Y152290D01*
X466710Y152269D01*
X466775Y152239D01*
X466827Y152233D01*
X466877Y152218D01*
X466948Y152219D01*
X467019Y152212D01*
X467070Y152223D01*
X467122Y152224D01*
X467190Y152249D01*
X467260Y152264D01*
X467305Y152291D01*
X467353Y152308D01*
X467409Y152353D01*
X467471Y152390D01*
X467505Y152430D01*
X467545Y152462D01*
X467584Y152522D01*
X467631Y152577D01*
X467650Y152625D01*
X467678Y152669D01*
X467696Y152739D01*
X467723Y152805D01*
X467731Y152876D01*
X467739Y152908D01*
X467737Y152931D01*
X467741Y152972D01*
X467741Y161478D01*
X467727Y161568D01*
X467719Y161659D01*
X467707Y161689D01*
X467702Y161721D01*
X467659Y161802D01*
X467623Y161885D01*
X467597Y161918D01*
X467586Y161938D01*
X467563Y161960D01*
X467518Y162016D01*
X444718Y184816D01*
X444644Y184869D01*
X444575Y184929D01*
X444545Y184941D01*
X444519Y184960D01*
X444432Y184987D01*
X444347Y185021D01*
X444306Y185025D01*
X444284Y185032D01*
X444251Y185031D01*
X444180Y185039D01*
X438030Y185039D01*
X428879Y194190D01*
X428879Y207130D01*
X434571Y212822D01*
X434582Y212838D01*
X434598Y212850D01*
X434654Y212938D01*
X434714Y213021D01*
X434720Y213040D01*
X434731Y213057D01*
X434756Y213158D01*
X434787Y213257D01*
X434786Y213276D01*
X434791Y213296D01*
X434783Y213399D01*
X434780Y213502D01*
X434773Y213521D01*
X434772Y213541D01*
X434731Y213636D01*
X434696Y213733D01*
X434683Y213749D01*
X434675Y213767D01*
X434571Y213898D01*
X428879Y219590D01*
X428879Y232530D01*
X438030Y241681D01*
X450970Y241681D01*
X460121Y232530D01*
X460121Y219590D01*
X454429Y213898D01*
X454418Y213882D01*
X454402Y213870D01*
X454346Y213782D01*
X454286Y213699D01*
X454280Y213680D01*
X454269Y213663D01*
X454244Y213562D01*
X454213Y213463D01*
X454214Y213444D01*
X454209Y213424D01*
X454217Y213321D01*
X454220Y213218D01*
X454227Y213199D01*
X454228Y213179D01*
X454269Y213084D01*
X454304Y212987D01*
X454317Y212971D01*
X454325Y212953D01*
X454429Y212822D01*
X460121Y207130D01*
X460121Y200980D01*
X460135Y200890D01*
X460143Y200799D01*
X460155Y200769D01*
X460160Y200737D01*
X460203Y200656D01*
X460239Y200573D01*
X460265Y200540D01*
X460276Y200520D01*
X460299Y200498D01*
X460310Y200484D01*
X460317Y200472D01*
X460324Y200466D01*
X460344Y200442D01*
X488157Y172629D01*
X489839Y168568D01*
X489839Y103365D01*
X489850Y103294D01*
X489852Y103223D01*
X489870Y103174D01*
X489878Y103122D01*
X489912Y103059D01*
X489937Y102992D01*
X489969Y102951D01*
X489994Y102905D01*
X490045Y102856D01*
X490090Y102800D01*
X490134Y102772D01*
X490172Y102736D01*
X490237Y102706D01*
X490297Y102667D01*
X490348Y102654D01*
X490395Y102632D01*
X490466Y102624D01*
X490536Y102607D01*
X490588Y102611D01*
X490639Y102605D01*
X490710Y102620D01*
X490781Y102626D01*
X490829Y102646D01*
X490880Y102657D01*
X490942Y102694D01*
X491007Y102722D01*
X491063Y102767D01*
X491091Y102783D01*
X491093Y102786D01*
X497121Y105283D01*
X503639Y105283D01*
X509660Y102789D01*
X514269Y98180D01*
X516763Y92159D01*
X516763Y85641D01*
X514269Y79620D01*
X509660Y75011D01*
X503639Y72517D01*
X497121Y72517D01*
X491071Y75023D01*
X491028Y75064D01*
X490981Y75086D01*
X490939Y75117D01*
X490870Y75138D01*
X490805Y75168D01*
X490753Y75174D01*
X490704Y75189D01*
X490632Y75187D01*
X490561Y75195D01*
X490510Y75184D01*
X490458Y75183D01*
X490390Y75158D01*
X490320Y75143D01*
X490275Y75116D01*
X490227Y75098D01*
X490171Y75053D01*
X490109Y75017D01*
X490075Y74977D01*
X490035Y74945D01*
X489996Y74884D01*
X489949Y74830D01*
X489930Y74781D01*
X489902Y74738D01*
X489884Y74668D01*
X489857Y74601D01*
X489849Y74530D01*
X489841Y74499D01*
X489843Y74476D01*
X489839Y74435D01*
X489839Y44792D01*
X488157Y40731D01*
X460324Y12898D01*
X457109Y9683D01*
X453048Y8001D01*
X296252Y8001D01*
G37*
%LPD*%
%LPC*%
G36*
X282282Y77851D02*
X282282Y77851D01*
X278221Y79533D01*
X274918Y82836D01*
X274844Y82889D01*
X274775Y82949D01*
X274745Y82961D01*
X274719Y82980D01*
X274632Y83007D01*
X274547Y83041D01*
X274506Y83045D01*
X274484Y83052D01*
X274451Y83051D01*
X274380Y83059D01*
X271137Y83059D01*
X265256Y85495D01*
X260755Y89996D01*
X258319Y95877D01*
X258319Y102243D01*
X260755Y108124D01*
X265256Y112625D01*
X271137Y115061D01*
X277503Y115061D01*
X283384Y112625D01*
X287885Y108124D01*
X290321Y102243D01*
X290321Y100710D01*
X290324Y100690D01*
X290322Y100671D01*
X290344Y100569D01*
X290360Y100467D01*
X290370Y100450D01*
X290374Y100430D01*
X290427Y100341D01*
X290476Y100250D01*
X290490Y100236D01*
X290500Y100219D01*
X290579Y100152D01*
X290654Y100080D01*
X290672Y100072D01*
X290687Y100059D01*
X290783Y100020D01*
X290877Y99977D01*
X290897Y99975D01*
X290915Y99967D01*
X291082Y99949D01*
X365948Y99949D01*
X366038Y99963D01*
X366129Y99971D01*
X366159Y99983D01*
X366191Y99988D01*
X366272Y100031D01*
X366355Y100067D01*
X366388Y100093D01*
X366408Y100104D01*
X366430Y100127D01*
X366486Y100172D01*
X377476Y111162D01*
X377529Y111236D01*
X377589Y111305D01*
X377601Y111335D01*
X377620Y111361D01*
X377647Y111448D01*
X377681Y111533D01*
X377685Y111574D01*
X377692Y111596D01*
X377691Y111629D01*
X377699Y111700D01*
X377699Y114943D01*
X380135Y120824D01*
X384636Y125325D01*
X390517Y127761D01*
X396883Y127761D01*
X402764Y125325D01*
X407265Y120824D01*
X409701Y114943D01*
X409701Y108577D01*
X407265Y102696D01*
X402764Y98195D01*
X396883Y95759D01*
X393640Y95759D01*
X393550Y95745D01*
X393459Y95737D01*
X393429Y95725D01*
X393397Y95720D01*
X393316Y95677D01*
X393233Y95641D01*
X393200Y95615D01*
X393180Y95604D01*
X393158Y95581D01*
X393102Y95536D01*
X377099Y79533D01*
X373038Y77851D01*
X282282Y77851D01*
G37*
%LPD*%
%LPC*%
G36*
X40073Y2159D02*
X40073Y2159D01*
X34332Y4537D01*
X29937Y8932D01*
X27559Y14673D01*
X27559Y36127D01*
X29937Y41868D01*
X34332Y46263D01*
X40073Y48641D01*
X46287Y48641D01*
X52028Y46263D01*
X55342Y42949D01*
X55358Y42938D01*
X55370Y42922D01*
X55458Y42866D01*
X55541Y42806D01*
X55560Y42800D01*
X55577Y42789D01*
X55678Y42764D01*
X55777Y42733D01*
X55796Y42734D01*
X55816Y42729D01*
X55919Y42737D01*
X56022Y42740D01*
X56041Y42747D01*
X56061Y42748D01*
X56156Y42789D01*
X56253Y42824D01*
X56269Y42837D01*
X56287Y42845D01*
X56418Y42949D01*
X59732Y46263D01*
X65473Y48641D01*
X71687Y48641D01*
X77428Y46263D01*
X81823Y41868D01*
X84201Y36127D01*
X84201Y14673D01*
X81823Y8932D01*
X77428Y4537D01*
X71687Y2159D01*
X65473Y2159D01*
X59732Y4537D01*
X56418Y7851D01*
X56402Y7862D01*
X56390Y7878D01*
X56302Y7934D01*
X56219Y7994D01*
X56200Y8000D01*
X56183Y8011D01*
X56082Y8036D01*
X55983Y8067D01*
X55964Y8066D01*
X55944Y8071D01*
X55841Y8063D01*
X55738Y8060D01*
X55719Y8053D01*
X55699Y8052D01*
X55604Y8011D01*
X55507Y7976D01*
X55491Y7963D01*
X55473Y7955D01*
X55342Y7851D01*
X52028Y4537D01*
X46287Y2159D01*
X40073Y2159D01*
G37*
%LPD*%
%LPC*%
G36*
X105059Y26259D02*
X105059Y26259D01*
X102118Y27477D01*
X99867Y29728D01*
X98649Y32669D01*
X98649Y63851D01*
X99867Y66792D01*
X102118Y69043D01*
X105059Y70261D01*
X136241Y70261D01*
X139182Y69043D01*
X141433Y66792D01*
X142651Y63851D01*
X142651Y32669D01*
X141433Y29728D01*
X139182Y27477D01*
X136241Y26259D01*
X105059Y26259D01*
G37*
%LPD*%
%LPC*%
G36*
X17213Y129159D02*
X17213Y129159D01*
X11472Y131537D01*
X7077Y135932D01*
X4699Y141673D01*
X4699Y147887D01*
X7077Y153628D01*
X11472Y158023D01*
X17213Y160401D01*
X38667Y160401D01*
X44408Y158023D01*
X48803Y153628D01*
X51181Y147887D01*
X51181Y141673D01*
X48803Y135932D01*
X44408Y131537D01*
X38667Y129159D01*
X17213Y129159D01*
G37*
%LPD*%
%LPC*%
G36*
X570781Y148717D02*
X570781Y148717D01*
X564760Y151211D01*
X560151Y155820D01*
X557657Y161841D01*
X557657Y168359D01*
X560151Y174380D01*
X564760Y178989D01*
X570781Y181483D01*
X577299Y181483D01*
X583320Y178989D01*
X587929Y174380D01*
X590423Y168359D01*
X590423Y161841D01*
X587929Y155820D01*
X583320Y151211D01*
X577299Y148717D01*
X570781Y148717D01*
G37*
%LPD*%
%LPC*%
G36*
X522521Y148717D02*
X522521Y148717D01*
X516500Y151211D01*
X511891Y155820D01*
X509397Y161841D01*
X509397Y168359D01*
X511891Y174380D01*
X516500Y178989D01*
X522521Y181483D01*
X529039Y181483D01*
X535060Y178989D01*
X539669Y174380D01*
X542163Y168359D01*
X542163Y161841D01*
X539669Y155820D01*
X535060Y151211D01*
X529039Y148717D01*
X522521Y148717D01*
G37*
%LPD*%
%LPC*%
G36*
X545381Y72517D02*
X545381Y72517D01*
X539360Y75011D01*
X534751Y79620D01*
X532257Y85641D01*
X532257Y92159D01*
X534751Y98180D01*
X539360Y102789D01*
X545381Y105283D01*
X551899Y105283D01*
X557920Y102789D01*
X562529Y98180D01*
X565023Y92159D01*
X565023Y85641D01*
X562529Y79620D01*
X557920Y75011D01*
X551899Y72517D01*
X545381Y72517D01*
G37*
%LPD*%
%LPC*%
G36*
X47617Y62738D02*
X47617Y62738D01*
X41736Y65174D01*
X37234Y69676D01*
X34798Y75557D01*
X34798Y81923D01*
X37234Y87804D01*
X41736Y92306D01*
X47617Y94742D01*
X53983Y94742D01*
X59864Y92306D01*
X64366Y87804D01*
X66802Y81923D01*
X66802Y75557D01*
X64366Y69676D01*
X59864Y65174D01*
X53983Y62738D01*
X47617Y62738D01*
G37*
%LPD*%
D10*
X444500Y226060D03*
X444500Y200660D03*
X327660Y228600D03*
X269240Y226060D03*
X381000Y226060D03*
X269240Y200660D03*
X327660Y200660D03*
X381000Y200660D03*
D11*
X48260Y220980D02*
X48260Y236220D01*
X73660Y236220D02*
X73660Y220980D01*
X99060Y220980D02*
X99060Y236220D01*
X124460Y236220D02*
X124460Y220980D01*
X149860Y220980D02*
X149860Y236220D01*
X35560Y170180D02*
X20320Y170180D01*
X20320Y144780D02*
X35560Y144780D01*
X43180Y33020D02*
X43180Y17780D01*
X68580Y17780D02*
X68580Y33020D01*
X177800Y220980D02*
X177800Y236220D01*
X203200Y236220D02*
X203200Y220980D01*
D12*
X120650Y48260D03*
X120650Y124460D03*
X425450Y124460D03*
X425450Y48260D03*
D13*
X525780Y165100D03*
X500380Y88900D03*
X525780Y38100D03*
X574040Y165100D03*
X548640Y88900D03*
X574040Y38100D03*
D14*
X50800Y104140D03*
D15*
X50800Y78740D03*
D16*
X444500Y158750D02*
X458470Y144780D01*
X444500Y158750D02*
X438150Y158750D01*
D17*
X438150Y158750D03*
D16*
X458470Y81280D02*
X425450Y48260D01*
X458470Y81280D02*
X458470Y144780D01*
D17*
X187960Y36830D03*
D16*
X240030Y36830D02*
X260350Y57150D01*
X240030Y36830D02*
X187960Y36830D01*
D17*
X260350Y57150D03*
D16*
X444500Y200660D02*
X478790Y166370D01*
X478790Y46990D01*
X450850Y19050D01*
X298450Y19050D02*
X260350Y57150D01*
X298450Y19050D02*
X450850Y19050D01*
D17*
X93980Y91440D03*
D16*
X93980Y149860D01*
X48260Y195580D01*
X48260Y228600D01*
D17*
X187960Y64770D03*
D16*
X198120Y74930D02*
X198120Y132080D01*
X198120Y74930D02*
X187960Y64770D01*
D17*
X198120Y132080D03*
D16*
X424180Y123190D02*
X425450Y124460D01*
X424180Y123190D02*
X424180Y101600D01*
X391160Y68580D01*
X391160Y55880D01*
D17*
X391160Y55880D03*
D16*
X425450Y124460D02*
X417830Y132080D01*
X381000Y132080D01*
X363220Y114300D01*
X297180Y114300D01*
X287020Y124460D01*
X259080Y124460D01*
X243840Y109220D01*
X218440Y109220D01*
X198120Y129540D01*
X198120Y132080D01*
X190500Y124460D01*
X120650Y124460D01*
X124460Y210820D02*
X124460Y228600D01*
X218440Y195580D02*
X236220Y213360D01*
X218440Y195580D02*
X139700Y195580D01*
X124460Y210820D01*
D17*
X236220Y213360D03*
X275590Y148590D03*
D16*
X275590Y149860D01*
X327660Y149860D01*
X336550Y140970D01*
X354330Y140970D01*
X381000Y167640D02*
X381000Y200660D01*
X381000Y167640D02*
X354330Y140970D01*
X99060Y205740D02*
X99060Y228600D01*
X99060Y205740D02*
X132080Y172720D01*
X231140Y172720D01*
X259080Y200660D02*
X269240Y200660D01*
X259080Y200660D02*
X231140Y172720D01*
X261620Y172720D02*
X299720Y172720D01*
X261620Y172720D02*
X238760Y149860D01*
X124460Y149860D01*
X73660Y200660D01*
X299720Y172720D02*
X327660Y200660D01*
X73660Y200660D02*
X73660Y228600D01*
D17*
X393700Y111760D03*
D16*
X370840Y88900D01*
X284480Y88900D01*
X274320Y99060D01*
D17*
X274320Y99060D03*
M02*
